<svg xmlns="http://www.w3.org/2000/svg" viewBox="0 0 263.83105 62.91785"><defs><style>.cls-1{fill:#fff;}</style></defs><g id="レイヤー_2" data-name="レイヤー 2"><g id="LP"><path class="cls-1" d="M151.93336,0H116.19164V21.956h35.74172Zm-3.51172,18.44286H119.70477V3.51305h28.71687Z"/><path class="cls-1" d="M151.349,24.59186H116.77736l-5.24286,4.92519v2.83386h45.056V29.51705Zm-21.758,4.46873.85941-1.375h7.22427l.86073,1.375Z"/><path class="cls-1" d="M14.68359,46.67419l-.33984-.86377q-.22558-.56616-.35352-.8496a6.14736,6.14736,0,0,0-1.16113-.52393q-.77929-.31128-1.11914-.46729t-.33984-.2832a.61905.61905,0,0,1,.043-.1416c.02832-.07568.04687-.12256.05664-.1416h9.09082c.00879.02832.02539.07568.04883.1416a.47526.47526,0,0,1,.03613.1416.40715.40715,0,0,1-.30469.42481,4.66876,4.66876,0,0,1-.95605.15576,4.36267,4.36267,0,0,0-1.08985.19092.53769.53769,0,0,0-.36816.55957q0,.29736,1.59277,5.31,1.59228,5.0127,2.10254,6.48536l.39648-1.20362Q25.332,45.71131,25.332,45.03162a.62438.62438,0,0,0-.4248-.61621,5.31286,5.31286,0,0,0-1.2461-.29q-.33984-.04248-.665-.11328a1.99181,1.99181,0,0,1-.50976-.16993l-.085-.15576.085-.2832h7.32031a.30109.30109,0,0,1,.1416.04931.27679.27679,0,0,1,.11328.10645q0,.2124-.32519.33252a8.50437,8.50437,0,0,1-1.04785.27637,9.77745,9.77745,0,0,0-1.68555.48828,1.3919,1.3919,0,0,0-.82129.80029q-.15528.43872-.32519,1.01221t-.24122.81445q-.085.33984-.1416.50977l-4.2334,14.03271q-.085.28272-.59472.2832a1.07336,1.07336,0,0,1-.376-.05664.43843.43843,0,0,1-.2334-.22656,8.10505,8.10505,0,0,1-.53808-1.54346l-.25489-.80712L15.22168,47.76453l-3.667,10.54931q-.12744.35376-.35449,1.147-.26808.89208-.45313,1.40185a8.95658,8.95658,0,0,1-.41016.96289.47371.47371,0,0,1-.22656.24756.90742.90742,0,0,1-.36816.064q-.42482,0-.72266-.59473a10.8446,10.8446,0,0,1-.59473-1.5293l-.1416-.45312L6.34375,54.36316Q4.772,50.08656,3.15723,45.86707A1.79329,1.79329,0,0,0,2.499,44.996a5.615,5.615,0,0,0-1.15429-.55908,8.77644,8.77644,0,0,1-.82129-.33984A2.00384,2.00384,0,0,1,0,43.71472l.09863-.31152H9.2041c.00879.02832.02344.07324.042.13428a.51393.51393,0,0,1,.02832.14892.38788.38788,0,0,1-.27636.38916,3.803,3.803,0,0,1-.82813.17725,3.78854,3.78854,0,0,0-1.041.24756.602.602,0,0,0-.36036.60205q0,.19848,1.52149,4.50293,1.52343,4.30445,2.585,7.23584Z"/><path class="cls-1" d="M49.33105,61.96716a2.46164,2.46164,0,0,1-.45312.04248,5.69443,5.69443,0,0,1-.80762-.085,5.69558,5.69558,0,0,0-.82129-.085H32.7207l-.02832-.69385a3.96767,3.96767,0,0,1,.81446-.34716A7.081,7.081,0,0,1,34.335,60.622a2.54838,2.54838,0,0,0,.82813-.25488,1.07769,1.07769,0,0,0,.40429-.67286A6.81515,6.81515,0,0,0,35.709,58.059V47.33972a5.47761,5.47761,0,0,0-.17773-1.62842,1.28767,1.28767,0,0,0-.5166-.72949,5.41528,5.41528,0,0,0-1.13281-.4458q-.12744-.04248-.48829-.15576-.36181-.11352-.70117-.25488l.02832-.72217H47.16406a3.55544,3.55544,0,0,0,.43164-.02832c.15625-.019.26758-.03321.333-.04248a4.67759,4.67759,0,0,1,.76465-.0708,2.18636,2.18636,0,0,1,.52441.05664v4.40381l-.73632.02832a2.1809,2.1809,0,0,1-.39649-.53809c-.10449-.19824-.22168-.458-.35449-.77881A5.58994,5.58994,0,0,0,47.1709,45.329a1.57337,1.57337,0,0,0-.81348-.58057,8.13667,8.13667,0,0,0-1.96875-.32568q-1.1748-.071-2.71875-.0708a24.99151,24.99151,0,0,0-2.86035.12744q-.05566.6372-.05664,1.4585v5.749h4.07812A6.09429,6.09429,0,0,0,44.502,51.517a1.69229,1.69229,0,0,0,.85645-.55225,10.67112,10.67112,0,0,0,.84277-1.35937l.21289-.38233h.80664v6.07471l-.80664.04248a5.06694,5.06694,0,0,0-1.15429-1.89746,2.58111,2.58111,0,0,0-1.876-.67969H38.75293v4.772a5.25552,5.25552,0,0,0,.34668,2.19483,1.6552,1.6552,0,0,0,1.00586.91308,6.60656,6.60656,0,0,0,1.876.20557h1.38769a10.41693,10.41693,0,0,0,3.08008-.40381,3.10946,3.10946,0,0,0,1.91894-1.64941l.19825-.439q.25488-.55224.41015-.82861a2.76485,2.76485,0,0,1,.39649-.53076h.89257Z"/><path class="cls-1" d="M58.10742,45.704a1.291,1.291,0,0,0-.49609-.73633,4.147,4.147,0,0,0-1.06153-.40332c-.0664-.019-.23339-.06836-.50292-.14892q-.40284-.12012-.82813-.29l.02832-.72217H63.29a27.634,27.634,0,0,1,4.043.26172,6.395,6.395,0,0,1,3.05078,1.28174,3.67582,3.67582,0,0,1,1.30273,3.08691q0,3.46948-5.11132,4.333a9.95045,9.95045,0,0,1,2.85351.55908,5.50294,5.50294,0,0,1,2.28613,1.48682,3.558,3.558,0,0,1,.90625,2.48535,3.93986,3.93986,0,0,1-1.08984,2.88134,6.13169,6.13169,0,0,1-2.71875,1.58594,11.984,11.984,0,0,1-3.37012.47461H55.24707l-.02832-.73633.50977-.1416a9.42779,9.42779,0,0,0,1.331-.43213,2.24354,2.24354,0,0,0,.86328-.65136,1.78534,1.78534,0,0,0,.35449-1.168V47.35388A5.85642,5.85642,0,0,0,58.10742,45.704Zm3.73828,6.103a1.75332,1.75332,0,0,0,.6084.1206h1.88379q4.53077,0,4.53125-3.44092a3.39155,3.39155,0,0,0-1.02637-2.71191,4.72449,4.72449,0,0,0-2.42871-1.09717,23.49735,23.49735,0,0,0-3.4414-.2124h-.65137v7.0376A1.55205,1.55205,0,0,0,61.8457,51.807Zm-.52441,6.15283a4.66073,4.66073,0,0,0,.34766,1.81933,1.22392,1.22392,0,0,0,1.21.82862h2.29394a4.56449,4.56449,0,0,0,1.97559-.418,3.69965,3.69965,0,0,0,.7998-5.91895,5.35055,5.35055,0,0,0-2.64062-1.13281,25.73675,25.73675,0,0,0-3.63184-.21924.88437.88437,0,0,0-.29785.50244,4.06161,4.06161,0,0,0-.05664.74366Z"/><path class="cls-1" d="M80.39258,45.82117c1.82617-.15381,5.43457-.48389,9.417-.83594,2.24512-.17627,4.62109-.30811,6.16113-.374l.02246,2.8164a22.49666,22.49666,0,0,0-4.20312.28614,6.61376,6.61376,0,0,0-4.59863,6.09472c0,3.58643,3.34472,4.88477,7.041,5.06055L93.2207,61.88367c-4.57715-.28614-8.88965-2.75049-8.88965-7.481a8.639,8.639,0,0,1,3.2129-6.71094c-1.89258.19776-6.46875.68213-9,1.23194l-.28516-2.99219C79.13867,45.90955,79.97461,45.86511,80.39258,45.82117ZM94.69434,52.5321l-1.67188.748a16.96582,16.96582,0,0,0-1.71582-3.0581l1.62793-.68213A28.78278,28.78278,0,0,1,94.69434,52.5321ZM97.24707,51.454l-1.65039.79248a19.32293,19.32293,0,0,0-1.80371-2.9707l1.60547-.748A32.73545,32.73545,0,0,1,97.24707,51.454Z"/><path class="cls-1" d="M110.1377,59.30945c.83593-.11035,1.45214-.22022,2.02441-.352,2.79394-.66016,4.95019-2.6626,4.95019-5.83106,0-3.01416-1.62792-5.25879-4.55468-5.76465a47.23643,47.23643,0,0,1-1.29785,5.91846c-1.29786,4.40088-3.19043,7.08545-5.56641,7.08545-2.39844,0-4.44531-2.6626-4.44531-6.33691,0-5.01709,4.3789-9.32959,10.03418-9.32959,5.39062,0,8.80078,3.76269,8.80078,8.51513,0,4.57666-2.81641,7.8335-8.31739,8.66944Zm-1.69434-6.60108a34.96512,34.96512,0,0,0,1.166-5.28076,6.8319,6.8319,0,0,0-5.52247,6.31494c0,2.2002.87989,3.27832,1.69434,3.27832C106.68359,57.02087,107.56348,55.65662,108.44336,52.70837Z"/><path class="cls-1" d="M132.6875,51.96033a17.74192,17.74192,0,0,1,4.18066-.57227c3.34473,0,5.98536,1.78223,5.98536,4.7749,0,2.57422-1.34278,4.51075-4.79688,5.36866a17.71613,17.71613,0,0,1-2.86035.35205l-1.0127-2.79444a16.67694,16.67694,0,0,0,2.68457-.15381c1.76075-.3081,3.169-1.21044,3.169-2.79443,0-1.47412-1.32031-2.33252-3.21289-2.33252a15.4768,15.4768,0,0,0-4.09277.59424c.04394,1.73828.11035,3.41016.11035,4.15869,0,2.70606-.99024,3.41016-2.39844,3.41016-2.13379,0-5.14844-1.82617-5.14844-4.13672,0-1.91406,2.22266-3.87207,4.88477-5.03858-.02246-.50585-.02246-1.0122-.02246-1.51806V49.452c-.418.022-.81348.04394-1.166.04394-.99023,0-2.08984-.022-3.03613-.11035l-.04395-2.64014a23.90075,23.90075,0,0,0,3.01465.17578c.39551,0,.81348-.022,1.25391-.04394.02148-.77.02148-1.4082.02148-1.78223a17.44077,17.44077,0,0,0-.15332-1.91406H133.04c-.04395.396-.13184,1.34229-.17578,1.89209-.02246.48438-.04395,1.01221-.06641,1.5625a29.86745,29.86745,0,0,0,4.00488-.81445l.06543,2.72851a42.10565,42.10565,0,0,1-4.1582.68213c-.02246.66016-.02246,1.32031-.02246,1.9585Zm-2.39844,6.1167c0-.54981-.02148-1.54-.06543-2.68457-1.34277.68261-2.22265,1.58447-2.22265,2.35449,0,.66015,1.01269,1.27637,1.584,1.27637C129.98145,59.02332,130.28906,58.82507,130.28906,58.077Zm8.97754-12.542a48.09754,48.09754,0,0,1,5.34668,3.0586L143.293,50.83826a33.0464,33.0464,0,0,0-5.23633-3.16846Z"/><path class="cls-1" d="M151.585,51.36609V62.89587h-2.59668V43.181h8.40527v8.18506Zm0-6.18262v1.188h3.36621v-1.188Zm3.36621,4.20215V48.13171H151.585v1.25391ZM156.294,59.79334v1.23193h-2.44239V52.88416h8.51465v6.90918Zm0-4.75245v2.5962h3.62988v-2.5962Zm11.24316,4.73047c0,1.45215-.30762,2.2002-1.23242,2.61817a10.79757,10.79757,0,0,1-4.3125.50634,9.36746,9.36746,0,0,0-.87989-2.68457c1.27637.08838,2.77247.06592,3.19043.04395.418,0,.57227-.13184.57227-.52783V51.38806h-5.96289V43.181h8.625ZM161.39844,45.161v1.21045H164.875V45.161Zm3.47656,4.24707V48.13171h-3.47656v1.27637Z"/><path class="cls-1" d="M176.77539,47.95544c-.02246,1.40821,0,3.0586.13184,4.62061.30761,3.14648.96777,5.28125,2.332,5.28125,1.03418,0,1.89258-2.55273,2.31054-4.269l2.2002,2.64062c-1.45215,3.78467-2.81641,5.12647-4.57715,5.12647-2.376,0-4.46582-2.15625-5.082-8.00879-.19824-2.00244-.24219-4.53272-.24219-5.875a12.64577,12.64577,0,0,0-.15429-2.2002l3.34472.04395A17.22875,17.22875,0,0,0,176.77539,47.95544Zm15.1377,8.95557-2.88282,1.1001c-.33007-3.49854-1.49609-8.62549-3.87207-11.30957l2.77246-.92432C189.999,48.3075,191.6709,53.56628,191.91309,56.911Z"/><path class="cls-1" d="M207.4668,42.36707a22.09636,22.09636,0,0,0,9.417,7.56884,12.74674,12.74674,0,0,0-1.69434,2.3545,26.39217,26.39217,0,0,1-3.36621-2.09034v1.51807h-10.958v-1.54a30.69413,30.69413,0,0,1-3.41015,2.15625,10.687,10.687,0,0,0-1.65039-2.13428,23.29831,23.29831,0,0,0,8.95508-7.833Zm-8.05371,11.52929h13.95019v9.02149h-2.68457v-.81446H201.9873v.81446h-2.57421Zm11.332-4.48828a24.10817,24.10817,0,0,1-4.51074-4.4668,22.48793,22.48793,0,0,1-4.37891,4.4668Zm-8.75782,6.79883v3.58643h8.69141V56.20691Z"/><path class="cls-1" d="M229.1582,47.44959c-.28613.374-.748,1.07812-1.12207,1.65039-.02246.21972-.02246.418-.04394.63769a10.63039,10.63039,0,0,1,6.40234-2.26611,5.75747,5.75747,0,0,1,6.00684,5.875c0,4.40039-2.75,7.041-8.16309,8.11914l-1.29785-2.64063c3.82812-.59375,6.55664-2.13427,6.55664-5.54492a3.32,3.32,0,0,0-3.543-3.23437,9.12348,9.12348,0,0,0-6.18262,2.79443c-.02148.61621-.04394,1.23242-.04394,1.8042,0,1.78223,0,3.60889.13184,5.65527.02246.39551.11035,1.188.15429,1.67188h-2.99219c.04395-.46192.06543-1.25391.06543-1.606.044-1.69434.044-2.94873.08887-4.79687-.9248,1.38623-2.00293,2.97021-2.751,4.02685l-1.71582-2.4209c1.23145-1.49609,3.43262-4.40039,4.66407-6.22656l.08789-1.51807c-1.05567.13184-2.72754.352-3.96.50586l-.26465-2.79443a18.56411,18.56411,0,0,0,1.89258-.022c.63867-.04395,1.584-.15381,2.50879-.28614.04394-.814.08789-1.43017.08789-1.67236a11.69014,11.69014,0,0,0-.08789-1.936l3.19042.08789c-.13183.61621-.30859,1.73828-.48437,3.10254Z"/><path class="cls-1" d="M260.28906,43.79724a18.53161,18.53161,0,0,0-.13281,1.87012c-.02148.85791-.04395,1.62842-.06543,2.35449.59375-.04443,1.14356-.08838,1.65039-.11035.59375-.04395,1.45215-.10986,2.08984-.15381v2.68408c-.374-.022-1.51855,0-2.1123.022-.46191.02246-1.03418.04443-1.67187.08837a38.27144,38.27144,0,0,1-.33008,4.35645c-.22071,1.144-.77051,1.43018-1.89258,1.43018a27.5114,27.5114,0,0,1-3.27832-.33008l.0664-2.39844a13.53817,13.53817,0,0,0,2.002.26416c.43945,0,.61621-.08789.68164-.50586a24.52,24.52,0,0,0,.1543-2.61865c-1.91407.15429-4.04883.35205-5.91895.55029-.02148,2.00244-.04395,4.0044,0,4.92871.06641,2.13428.24219,2.61817,3.52051,2.61817a40.56167,40.56167,0,0,0,6.51269-.57178l-.10937,2.99219a61.15972,61.15972,0,0,1-6.20508.352c-5.65527,0-6.33691-1.188-6.4248-4.95069-.02247-.92382-.02247-3.03613-.02247-5.08252l-1.47363.15381c-.68262.08789-2.04687.30811-2.61914.396l-.28516-2.79444c.61524,0,1.62793-.04394,2.72754-.13183l1.65039-.1543V46.85535a16.416,16.416,0,0,0-.17578-2.42041H251.707a17.26072,17.26072,0,0,0-.13183,2.2666c0,.50586,0,1.23193-.02149,2.09033,1.84766-.17627,3.96-.374,5.94043-.55029V45.77722a16.78311,16.78311,0,0,0-.1543-1.98Z"/></g></g></svg>