<svg xmlns="http://www.w3.org/2000/svg" viewBox="0 0 76.8 76.8"><defs><style>.cls-1{fill:#fff;}.cls-2{fill:#1b1b1a;}.cls-3{fill:#17af05;}</style></defs><g id="レイヤー_2" data-name="レイヤー 2"><g id="LP"><rect class="cls-1" width="76.8" height="76.8"/><rect class="cls-2" x="3.84" y="3.84" width="69.12" height="69.12"/><path class="cls-1" d="M58.30673,35.587c0-8.90761-8.93-16.1545-19.90689-16.1545-10.97566,0-19.90657,7.24689-19.90657,16.1545,0,7.98566,7.08194,14.67352,16.64825,15.938.64827.13984,1.53064.42736,1.75376.98167a4.0887,4.0887,0,0,1,.06441,1.79994s-.23348,1.40463-.28406,1.7041c-.08673.50309-.4,1.96836,1.72421,1.07311,2.12487-.89526,11.4643-6.7504,15.64081-11.55756h-.00094c2.885-3.16372,4.267-6.37426,4.267-9.93926"/><path class="cls-3" d="M34.35527,31.28257H32.95881a.38765.38765,0,0,0-.38778.38714v8.67383a.38738.38738,0,0,0,.38778.38682h1.39646a.38736.38736,0,0,0,.38776-.38682V31.66971a.38763.38763,0,0,0-.38776-.38714"/><path class="cls-3" d="M43.96623,31.28257H42.57007a.38744.38744,0,0,0-.38777.38714v5.15314l-3.9751-5.36808a.4062.4062,0,0,0-.03016-.03928l-.00251-.00251-.02325-.02388-.00723-.0066-.02075-.01729-.01-.00785-.02011-.01383-.01163-.0069-.02073-.01164-.01226-.006-.02231-.00943-.01258-.0044-.02293-.00755-.01352-.00345-.0223-.005-.01634-.00221-.02043-.00251L37.898,31.2832l-.01351-.00063H36.48833a.38763.38763,0,0,0-.38776.38714v8.67383a.38736.38736,0,0,0,.38776.38682h1.39616a.38744.38744,0,0,0,.38808-.38682V35.192l3.97981,5.375a.38311.38311,0,0,0,.09835.09552l.00408.00315.02389.01445.011.006.01855.00911.01885.00786.01162.0044.0264.00849.00566.00125a.38034.38034,0,0,0,.0993.0132h1.39616a.38717.38717,0,0,0,.38776-.38682V31.66971a.38744.38744,0,0,0-.38776-.38714"/><path class="cls-3" d="M30.98939,38.55855h-3.7941V31.6699a.38744.38744,0,0,0-.38745-.38746H25.41137a.38772.38772,0,0,0-.38777.38746v8.67351a.38472.38472,0,0,0,.10841.26773l.00535.006.00565.00535a.38505.38505,0,0,0,.26773.10809h5.57865a.38744.38744,0,0,0,.38714-.38777V38.94632a.38745.38745,0,0,0-.38714-.38777"/><path class="cls-3" d="M51.67725,33.4545a.38724.38724,0,0,0,.38714-.38776V31.6706a.38752.38752,0,0,0-.38714-.38809H46.0986a.38578.38578,0,0,0-.269.10935l-.0044.00409-.00629.00691a.38575.38575,0,0,0-.10747.2671v8.67351a.38473.38473,0,0,0,.10841.26774l.00535.006.00565.005a.38477.38477,0,0,0,.26773.10841h5.57865a.38745.38745,0,0,0,.38714-.38777V38.94639a.38744.38744,0,0,0-.38714-.38777H47.88346V37.0924h3.79379a.38724.38724,0,0,0,.38714-.38776V35.30849a.38751.38751,0,0,0-.38714-.38808H47.88346V33.4545Z"/></g></g></svg>