<?xml version="1.0" encoding="utf-8"?>
<!-- Generator: Adobe Illustrator 25.1.0, SVG Export Plug-In . SVG Version: 6.00 Build 0)  -->
<svg version="1.1" id="レイヤー_1" xmlns="http://www.w3.org/2000/svg" xmlns:xlink="http://www.w3.org/1999/xlink" x="0px"
	 y="0px" viewBox="0 0 300 99.3" style="enable-background:new 0 0 300 99.3;" xml:space="preserve">
<style type="text/css">
	.st0{fill:#FFFFFF;}
</style>
<g>
	<path class="st0" d="M182,0h-56.4v34.7H182V0z M131.1,29.1V5.5h45.3l0,23.6H131.1z"/>
	<path class="st0" d="M189.4,46.6l-8.3-7.8h-54.6l-8.3,7.8v4.5h71.1V46.6z M146.7,45.9l1.4-2.2h11.4l1.4,2.2H146.7z"/>
	<path class="st0" d="M47,68.5H35.5l-0.1,0.4l0.1,0.2c0.3,0.1,0.5,0.2,0.8,0.3c0.3,0.1,0.7,0.1,1,0.2c0.7,0.1,1.3,0.2,2,0.5
		c0.4,0.1,0.7,0.5,0.7,1c0,0.7-1.7,6.3-5.2,16.7l-0.6,1.9c-0.5-1.5-1.6-5-3.3-10.2c-1.7-5.3-2.5-8.1-2.5-8.4c0-0.4,0.2-0.8,0.6-0.9
		c0.6-0.2,1.1-0.3,1.7-0.3c0.5,0,1-0.1,1.5-0.2c0.3-0.1,0.5-0.4,0.5-0.7c0-0.1,0-0.2-0.1-0.2c0-0.1-0.1-0.2-0.1-0.2H18.1
		c0,0,0,0.1-0.1,0.2c0,0.1-0.1,0.1-0.1,0.2c0,0.1,0.2,0.3,0.5,0.4c0.4,0.2,0.9,0.4,1.8,0.7c0.6,0.2,1.3,0.5,1.8,0.8
		c0.1,0.3,0.3,0.7,0.6,1.3l0.5,1.4l-6,16c-1.1-3.1-2.5-6.9-4.1-11.4c-1.6-4.5-2.4-6.9-2.4-7.1c0-0.4,0.2-0.8,0.6-1
		c0.5-0.2,1.1-0.3,1.6-0.4c0.4,0,0.9-0.1,1.3-0.3c0.3-0.1,0.4-0.3,0.4-0.6c0-0.1,0-0.2,0-0.2c0-0.1-0.1-0.2-0.1-0.2H0.2L0,69
		c0.2,0.2,0.5,0.4,0.8,0.6c0.4,0.2,0.9,0.4,1.3,0.5c0.6,0.2,1.3,0.5,1.8,0.9c0.5,0.3,0.8,0.8,1,1.4c1.7,4.4,3.4,8.9,5,13.4l3.1,8.2
		l0.2,0.7c0.3,0.8,0.6,1.6,0.9,2.4c0.3,0.6,0.7,0.9,1.1,0.9c0.2,0,0.4,0,0.6-0.1c0.2-0.1,0.3-0.2,0.4-0.4c0.2-0.5,0.5-1,0.6-1.5
		c0.2-0.5,0.4-1.3,0.7-2.2c0.2-0.8,0.4-1.4,0.6-1.8L24,75.4l6.3,18.5l0.4,1.3c0.2,0.8,0.5,1.7,0.8,2.4c0.1,0.2,0.2,0.3,0.4,0.4
		c0.2,0.1,0.4,0.1,0.6,0.1c0.5,0,0.8-0.1,0.9-0.4l6.7-22.1c0.1-0.2,0.1-0.4,0.2-0.8c0.1-0.3,0.2-0.7,0.4-1.3s0.3-1.1,0.5-1.6
		c0.2-0.6,0.7-1,1.3-1.3c0.9-0.3,1.8-0.6,2.7-0.8c0.6-0.1,1.1-0.3,1.7-0.4c0.3-0.1,0.5-0.3,0.5-0.5c0-0.1-0.1-0.1-0.2-0.2
		C47.2,68.5,47.1,68.5,47,68.5z"/>
	<path class="st0" d="M77.3,90.8c-0.2,0.3-0.4,0.7-0.6,1.3l-0.3,0.7c-0.6,1.3-1.7,2.2-3,2.6c-1.6,0.5-3.2,0.7-4.9,0.6h-2.2
		c-1,0-2-0.1-3-0.3c-0.7-0.2-1.3-0.8-1.6-1.4c-0.4-1.1-0.6-2.3-0.5-3.5v-7.5h7.3c1.1-0.1,2.2,0.3,3,1.1c0.8,0.9,1.4,1.9,1.8,3
		l1.3-0.1v-9.6h-1.3l-0.3,0.6c-0.4,0.7-0.8,1.5-1.3,2.1c-0.4,0.4-0.8,0.7-1.4,0.9c-0.9,0.2-1.7,0.3-2.6,0.3h-6.4v-9.1
		c0-0.9,0-1.6,0.1-2.3c1.5-0.2,3-0.2,4.5-0.2c1.6,0,3.1,0,4.3,0.1c1.1,0,2.1,0.2,3.1,0.5c0.5,0.2,1,0.5,1.3,0.9
		c0.4,0.5,0.7,1.1,0.9,1.7c0.2,0.5,0.4,0.9,0.6,1.2c0.2,0.3,0.4,0.6,0.6,0.8l1.2,0v-7c-0.3-0.1-0.5-0.1-0.8-0.1
		c-0.4,0-0.8,0-1.2,0.1c-0.1,0-0.3,0-0.5,0.1c-0.2,0-0.5,0-0.7,0H51.6l0,1.1c0.4,0.1,0.7,0.3,1.1,0.4c0.4,0.1,0.6,0.2,0.8,0.2
		c0.6,0.2,1.2,0.4,1.8,0.7c0.4,0.3,0.7,0.7,0.8,1.2c0.2,0.8,0.3,1.7,0.3,2.6v16.9c0,0.9,0,1.7-0.2,2.6c-0.1,0.4-0.3,0.8-0.6,1.1
		c-0.4,0.2-0.9,0.3-1.3,0.4c-0.4,0.1-0.9,0.2-1.3,0.3c-0.4,0.1-0.9,0.3-1.3,0.5l0,1.1h22.9c0.4,0,0.9,0.1,1.3,0.1
		c0.4,0.1,0.8,0.1,1.3,0.1c0.2,0,0.5,0,0.7-0.1l1.5-7.8h-1.4C77.7,90.2,77.5,90.5,77.3,90.8z"/>
	<path class="st0" d="M109.6,83.5c-1.4-0.5-3-0.8-4.5-0.9c5.4-0.9,8.1-3.2,8.1-6.8c0.1-1.9-0.6-3.7-2.1-4.9c-1.4-1.1-3.1-1.8-4.8-2
		c-2.1-0.3-4.2-0.4-6.4-0.4H87.2l0,1.1c0.4,0.2,0.9,0.3,1.3,0.5c0.4,0.1,0.7,0.2,0.8,0.2c0.6,0.1,1.1,0.3,1.7,0.6
		c0.4,0.3,0.7,0.7,0.8,1.2c0.2,0.9,0.3,1.7,0.3,2.6v17.9c0,0.7-0.2,1.3-0.6,1.8c-0.4,0.4-0.8,0.8-1.4,1c-0.7,0.3-1.4,0.5-2.1,0.7
		l-0.8,0.2l0,1.2h16.1c1.8,0,3.6-0.2,5.3-0.7c1.6-0.4,3.1-1.3,4.3-2.5c1.2-1.2,1.8-2.9,1.7-4.5c0-1.4-0.5-2.8-1.4-3.9
		C112.2,84.8,111,84,109.6,83.5z M96.8,70.2h1c1.8,0,3.6,0.1,5.4,0.3c1.4,0.2,2.7,0.8,3.8,1.7c1.2,1.1,1.7,2.7,1.6,4.3
		c0,3.6-2.4,5.4-7.2,5.4h-3c-0.3,0-0.7-0.1-1-0.2c-0.3-0.1-0.6-0.3-0.8-0.5V70.2z M106,95c-1,0.4-2,0.7-3.1,0.7h-3.6
		c-0.9,0-1.6-0.5-1.9-1.3c-0.4-0.9-0.6-1.9-0.5-2.9l0-6c0-0.4,0-0.8,0.1-1.2c0.1-0.3,0.2-0.6,0.5-0.8c1.9,0,3.8,0.1,5.7,0.3
		c1.5,0.2,3,0.8,4.2,1.8c0.4,0.4,0.8,0.9,1.1,1.4C109.9,89.9,108.8,93.5,106,95z"/>
	<path class="st0" d="M137.6,84.9c0.1-4.4,3-8.3,7.3-9.6c2.2-0.4,4.4-0.5,6.6-0.5l0-4.4c-2.4,0.1-6.2,0.3-9.7,0.6
		c-6.3,0.6-12,1.1-14.9,1.3c-0.7,0.1-2,0.1-3.4,0.2l0.5,4.7c4-0.9,11.2-1.6,14.2-1.9c-3.2,2.6-5.1,6.5-5.1,10.6
		c0,7.5,6.8,11.4,14,11.8l1.6-4.8C142.9,92.6,137.6,90.6,137.6,84.9z"/>
	<path class="st0" d="M144.1,79.3c1.1,1.5,2,3.1,2.7,4.8l2.6-1.2c-0.8-1.6-1.8-3.2-2.8-4.7L144.1,79.3z"/>
	<path class="st0" d="M148,77.8c1.1,1.5,2,3,2.8,4.7l2.6-1.3c-0.9-1.6-1.9-3.1-2.9-4.6L148,77.8z"/>
	<path class="st0" d="M175.6,70.5c-8.9,0-15.8,6.8-15.8,14.7c0,5.8,3.2,10,7,10c3.7,0,6.7-4.2,8.8-11.2c0.9-3.1,1.6-6.2,2-9.3
		c4.6,0.8,7.2,4.3,7.2,9.1c0,5-3.4,8.2-7.8,9.2c-0.9,0.2-1.9,0.4-3.2,0.6l2.6,4.1c8.7-1.3,13.1-6.5,13.1-13.7
		C189.5,76.5,184.1,70.5,175.6,70.5z M171.1,83.2c-1.4,4.7-2.8,6.8-4.2,6.8c-1.3,0-2.7-1.7-2.7-5.2c0.3-4.9,3.9-9,8.7-10
		C172.6,77.7,172,80.5,171.1,83.2z"/>
	<path class="st0" d="M218,68.9c0.5,0.8,1,1.6,1.5,2.5c-2.6,0.2-6.4,0.5-9.7,0.5c-3.1,0-6.2-0.1-9.3-0.4V76c2.8,0.2,5.8,0.4,9.4,0.4
		c3.3,0,7.5-0.2,9.9-0.4v-4.1c0.3,0.7,0.7,1.4,1,1.9l2.8-1.2c-0.7-1.3-1.9-3.5-2.8-4.8L218,68.9z"/>
	<path class="st0" d="M222.1,67.3c1.1,1.5,2,3.1,2.8,4.8l2.7-1.2c-0.8-1.6-1.8-3.2-2.8-4.7L222.1,67.3z"/>
	<path class="st0" d="M209.8,93.3c-5,0-7-1.6-7-3.8c0-1.2,0.2-2.3,0.6-3.5l-4.5-0.4c-0.4,1.6-0.6,3.3-0.7,5c0,4.7,3.9,7.4,11.8,7.4
		c4,0.1,8-0.3,11.9-1.1l0-4.9C217.9,92.9,213.9,93.3,209.8,93.3z"/>
	<path class="st0" d="M258.2,80h-5.5l0.8-1.4c-0.8-0.4-1.8-0.8-3-1.2c2.9-2,5.6-4.2,8-6.6l-3-2.3l-0.9,0.2H234v3.8h16.8
		c-1.4,1.2-2.9,2.3-4.4,3.3c-1.9-0.7-3.9-1.4-5.5-1.9l-2,3.1c2.2,0.8,5,1.9,7.6,3h-15.8v3.9h13.7v10.7c0,0.5-0.2,0.7-0.9,0.7
		c-0.7,0-3.3,0-5.3-0.1c0.7,1.2,1.2,2.6,1.5,4c2.3,0.2,4.6-0.1,6.8-0.6c1.7-0.6,2.2-1.6,2.2-3.8V83.9h7.3c-0.8,1.5-1.7,2.9-2.7,4.3
		l3.5,2c2.2-2.8,4.1-5.8,5.6-9.1l-3.4-1.5L258.2,80z"/>
	<path class="st0" d="M267.7,95.2c1.1,0.4,2.2,0.9,3.2,1.5c1.1-2.9,1.8-5.9,2.1-9l-3.4-0.6C269.4,89.9,268.8,92.6,267.7,95.2z"/>
	<path class="st0" d="M292.1,88.6c-1.1-2.8-2.7-5.4-4.5-7.8l-3.3,1.7c1.8,2.5,3.2,5.2,4.2,8L292.1,88.6z"/>
	<path class="st0" d="M288.2,72.7c0.7-1.6,1.2-3.3,1.7-5l-4.2-0.9c-1,4.3-2.9,8.2-5.7,11.6l-0.2-0.4l-2.9,1.3
		c0.4,0.7,0.8,1.6,1.2,2.4l-3.5,0.1c2.4-3,4.6-6.2,6.6-9.4l-3.5-1.5c-0.9,2-2,3.9-3.2,5.7c-0.3-0.5-0.8-1-1.2-1.5
		c1.2-1.9,2.7-4.6,3.9-7l-3.6-1.3c-0.7,2.1-1.5,4.1-2.5,6c-0.3-0.2-0.6-0.5-0.8-0.7l-1.9,2.8c1.5,1.4,2.9,3,4.2,4.8
		c-0.5,0.8-1.1,1.5-1.6,2.2l-2.6,0.1l0.3,3.6l5.1-0.3v14h3.6V85l2-0.1c0.2,0.6,0.4,1.2,0.5,1.9l3.1-1.5c-0.6-2.3-1.5-4.5-2.7-6.5
		c1.1,0.7,2.2,1.4,3.3,2.3c1.1-1.4,2.1-2.9,3-4.5h9.6c-0.4,11.8-0.9,16.9-1.9,18c-0.4,0.4-0.9,0.6-1.5,0.6c-0.9,0-2.9,0-5.1-0.2
		c0.8,1.3,1.2,2.7,1.4,4.2c1.8,0.1,3.6,0.1,5.4-0.1c1.3-0.1,2.6-0.8,3.3-1.9c1.5-1.8,1.9-7.3,2.4-22.5c0-0.5,0-1.9,0-1.9L288.2,72.7
		z"/>
	<path class="st0" d="M277.3,87.9c0.9,2.2,1.6,4.4,2,6.7l3.3-1.1c-0.6-2.2-1.3-4.4-2.3-6.5L277.3,87.9z"/>
</g>
</svg>
