<svg xmlns="http://www.w3.org/2000/svg" viewBox="0 0 296.7832 116.761"><defs><style>.cls-1{fill:#fff;}</style></defs><g id="レイヤー_2" data-name="レイヤー 2"><g id="MV"><path class="cls-1" d="M11.66211,56.71851a16.636,16.636,0,0,0,.15332,2.5962H9.08789a25.673,25.673,0,0,0,.13184-2.5962V48.885a42.13184,42.13184,0,0,1-7.96582,3.23437L0,49.9856a34.55305,34.55305,0,0,0,9.92383-4.00488A24.05811,24.05811,0,0,0,15.666,41.052l1.87109,1.69434a36.54531,36.54531,0,0,1-5.875,4.73047Z"/><path class="cls-1" d="M24.13477,50.95338c1.01171-1.03418,2.83789-3.34424,4.29-5.06055,1.23243-1.45215,2.26661-1.60644,3.93848-.19824a51.57715,51.57715,0,0,1,4.5332,4.51074c1.47364,1.58447,3.7627,4.02637,5.34668,5.897l-1.82617,1.98c-1.47461-1.89209-3.47656-4.22461-4.84082-5.80859a58.88866,58.88866,0,0,0-4.20312-4.42285c-.83594-.7041-1.1875-.7041-1.87012.1543-.99023,1.21-2.72852,3.5205-3.67481,4.73046-.46191.63819-.96777,1.34229-1.31933,1.84864l-2.04688-2.06836C23.05664,52.00953,23.49609,51.56959,24.13477,50.95338ZM38.89844,46.927l-1.584.7041A24.00784,24.00784,0,0,0,35.29,44.08863l1.54-.66015A40.59093,40.59093,0,0,1,38.89844,46.927Zm2.94824-1.21-1.56152.748a22.517,22.517,0,0,0-2.11231-3.47657l1.54-.7041A30.34393,30.34393,0,0,1,41.84668,45.71705Z"/><path class="cls-1" d="M56.05762,53.74781a20.94091,20.94091,0,0,0,7.63476-8.29492l1.34278,2.398a22.67233,22.67233,0,0,1-7.72364,7.96533A24.25627,24.25627,0,0,1,48.88477,59.095l-1.47461-2.2666A22.85475,22.85475,0,0,0,56.05762,53.74781Zm-.748-7.041L53.57129,48.489a50.00385,50.00385,0,0,0-5.501-4.66455l1.60645-1.71631A44.5805,44.5805,0,0,1,55.30957,46.7068Z"/><path class="cls-1" d="M85.5166,53.10963a58.72935,58.72935,0,0,0-8.31738-3.43213v6.79883a25.69208,25.69208,0,0,0,.17578,2.8164H74.669a23.166,23.166,0,0,0,.17578-2.8164V43.75855a15.95071,15.95071,0,0,0-.19825-2.46435h2.707c-.06641.72607-.1543,1.69433-.1543,2.46435v3.43213a76.03983,76.03983,0,0,1,9.30762,3.52051Z"/><path class="cls-1" d="M111.74121,48.84107A30.411,30.411,0,0,1,108,54.34205l-1.71582-1.03418a21.71978,21.71978,0,0,0,2.15625-3.10254h-5.47852v7.65723c0,1.144-.28613,1.71631-1.167,2.002a14.22336,14.22336,0,0,1-4.11426.33008,10.00786,10.00786,0,0,0-.76953-1.98c1.42969.06592,2.96973.04394,3.3877.04394.418-.022.52832-.10986.52832-.43994V50.20533H91.98242v-1.958h10.75879c-1.78223-.83642-3.96-1.80468-5.67676-2.48632l1.05664-1.54053c1.09961.43994,2.41993.94629,3.71875,1.49658a23.08194,23.08194,0,0,0,3.56446-2.59668H94.0498V41.22828h13.35645l.44043-.10986,1.49609,1.14355a34.39,34.39,0,0,1-5.43554,4.313c.83691.374,1.585.7041,2.15722.99023l-.41894.68213h4.04883l.374-.13232Z"/><path class="cls-1" d="M117.48047,52.93385a20.35674,20.35674,0,0,1-1.47461,5.61084,8.57293,8.57293,0,0,0-1.56152-.77,16.62264,16.62264,0,0,0,1.29785-5.14893Zm4.07031-5.875a18.57314,18.57314,0,0,1,2.11231,4.51074l-1.5625.748a11.083,11.083,0,0,0-.39551-1.23194l-1.62793.10987V60.261H118.251V51.30543c-1.25489.06592-2.4209.13232-3.43262.19824l-.17676-1.8042,1.541-.04394c.418-.52832.83593-1.10059,1.27539-1.71631a23.57514,23.57514,0,0,0-2.77246-3.08057l.99023-1.36426q.29736.26367.59473.52832a25.36171,25.36171,0,0,0,1.80371-3.98291l1.84863.66016c-.792,1.49658-1.7168,3.23486-2.50879,4.42285a12.8353,12.8353,0,0,1,1.07813,1.27588,41.01926,41.01926,0,0,0,2.22265-3.82812l1.73828.748a69.03586,69.03586,0,0,1-4.3789,6.249l2.92676-.11036a18.95211,18.95211,0,0,0-.92383-1.76025Zm.54981,5.457a23.962,23.962,0,0,1,1.43066,4.1582l-1.62793.57227a23.73084,23.73084,0,0,0-1.34277-4.22461Zm12.41015-7.65723c-.374,9.70313-.66015,13.13574-1.584,14.25781a2.35034,2.35034,0,0,1-1.93653,1.0127,21.01406,21.01406,0,0,1-3.38867.02148,4.612,4.612,0,0,0-.68164-2.04589c1.42969.10986,2.75.13183,3.27832.13183a1.05534,1.05534,0,0,0,.94629-.374c.7041-.7041,1.05567-3.96045,1.3418-12.03565h-6.71094a17.05057,17.05057,0,0,1-1.93652,2.94825,15.22709,15.22709,0,0,0-1.80371-1.23194,18.4186,18.4186,0,0,0,3.80664-7.52539l2.08984.48438a29.16965,29.16965,0,0,1-1.21,3.36621h7.78906Zm-6.75488,9.79151a21.64174,21.64174,0,0,0-2.81641-5.061l1.65039-.814a20.7654,20.7654,0,0,1,2.97071,4.95068Z"/><path class="cls-1" d="M148.43555,39.13795V61.14088h-.96778V39.13795Z"/><path class="cls-1" d="M177.87305,58.39088a16.33537,16.33537,0,0,0-4.86328-3.169c0,.44043.02246.81446.02246,1.12207,0,1.65039-1.18848,3.16895-4.02735,3.16895-3.2998,0-5.082-1.21045-5.082-3.41065,0-2.06836,1.958-3.5205,5.21485-3.5205.5498,0,1.07812.04394,1.60546.08789-.04394-.814-.06543-1.69385-.08789-2.48633h-1.1875c-1.38672,0-3.85058-.10986-5.36914-.28613l.02246-2.06788a37.27967,37.27967,0,0,0,5.36817.418h1.12207V45.49683H169.5332a43.74816,43.74816,0,0,1-4.95019-.33007V43.16432a33.07342,33.07342,0,0,0,4.92871.418h1.12207V42.35035a13.79308,13.79308,0,0,0-.08789-1.38623h2.332c-.04395.396-.11035.87988-.13184,1.47412,0,.24219-.02246.63818-.02246,1.07813a52.81834,52.81834,0,0,0,5.43457-.5503l.02246,2.00244c-1.584.1543-3.41015.35206-5.47851.43995v2.77246c2.15625-.10987,4.07031-.30762,5.94043-.57178l.02246,2.06836c-2.02442.2417-3.8291.374-5.91895.46191.02149.99024.08789,2.02442.1543,2.97022a17.34872,17.34872,0,0,1,6.22656,3.3667Zm-7.06348-3.8291a11.38348,11.38348,0,0,0-1.958-.17578c-1.84863,0-2.83886.7041-2.83886,1.60644,0,.92383.81445,1.562,2.68457,1.562,1.23242,0,2.13476-.35205,2.13476-1.76025C170.832,55.48609,170.832,55.06812,170.80957,54.56178Z"/><path class="cls-1" d="M189.09082,52.07545a8.29972,8.29972,0,0,0-.418,2.35449c0,1.51856,1.51758,2.61816,4.86231,2.61816a28.645,28.645,0,0,0,7.52539-.85791l.02148,2.39844a32.06425,32.06425,0,0,1-7.48047.77c-4.6875,0-7.21777-1.562-7.21777-4.42285a13.2586,13.2586,0,0,1,.44043-3.08008Zm-1.32031-8.999a49.26419,49.26419,0,0,0,5.83105.28614c2.13379,0,4.46582-.1543,6.07227-.30811V45.343c-1.4961.10986-4.02637.26367-6.05078.26367-2.22266,0-4.09278-.10987-5.85254-.24219Zm14.3457.61622-1.45215.63769a22.33349,22.33349,0,0,0-1.75976-3.0581L200.334,40.678A31.76526,31.76526,0,0,1,202.11621,43.69264Zm2.55274-.94629-1.43067.63818a20.85837,20.85837,0,0,0-1.82617-3.03662l1.43066-.59375A34.065,34.065,0,0,1,204.669,42.74635Z"/><path class="cls-1" d="M212.6084,51.83375a8.38536,8.38536,0,0,0-.39551,2.37646c0,1.51807,1.51758,2.5962,4.84082,2.5962a29.802,29.802,0,0,0,7.54688-.83643l.02148,2.39844a32.4415,32.4415,0,0,1-7.50293.748c-4.66406,0-7.19531-1.562-7.19531-4.40039a13.26309,13.26309,0,0,1,.44043-3.08056Zm-1.29785-8.97754a55.07764,55.07764,0,0,0,5.83105.26416c2.11231,0,4.44434-.13184,6.07227-.30811v2.28858c-1.4961.10986-4.02637.26367-6.05078.26367-2.24414,0-4.11426-.08789-5.85254-.2417Z"/><path class="cls-1" d="M236.127,42.32838c1.14453,0,5.58887-.11035,6.99707-.19824a6.37794,6.37794,0,0,0,1.36426-.19776l1.23242,1.54a11.65727,11.65727,0,0,0-1.0791.68213c-1.45215,1.1001-3.82812,2.94824-5.45605,4.35645a7.78975,7.78975,0,0,1,2.79394-.48389c3.65235,0,6.27149,2.1123,6.27149,5.14892,0,4.22461-3.93848,6.79883-11.13379,6.22657l-.66016-2.24414c5.7207.7041,9.46094-.83594,9.46094-4.00489,0-1.91406-1.71582-3.25634-4.37793-3.25634-3.87305,0-6.13965,2.28857-8.31738,4.66455L231.59375,52.846c2.88281-2.6626,8.27344-7.17334,10.07813-8.7793-1.27637.04394-4.37891.19775-5.43458.26367-.52832.044-1.14453.11035-1.60644.17627l-.08789-2.26611A14.12371,14.12371,0,0,0,236.127,42.32838Z"/><path class="cls-1" d="M261.47168,45.29859h-8.1416V43.67017h8.1416Zm-.66016,13.73h-4.73144v.92432h-1.75977V52.55982h6.49121Zm-.02246-10.78125H254.3418V46.66285h6.44726Zm-6.44726,1.3418h6.44726v1.60645H254.3418Zm6.40332-7.2168h-6.31446V40.76588h6.31446Zm-4.665,11.83789v3.168h2.9707v-3.168Zm11.99219-14.10449a16.39354,16.39354,0,0,0,5.83105,5.875,12.46848,12.46848,0,0,0-1.12207,1.84863,19.16683,19.16683,0,0,1-5.58887-5.7871,17.833,17.833,0,0,1-5.58886,5.94091,9.93818,9.93818,0,0,0-1.03418-1.71631,15.65008,15.65008,0,0,0,5.5664-6.16113Zm4.95019,12.938c-2.13379,3.45459-5.83008,5.853-10.23144,7.23926a7.90175,7.90175,0,0,0-1.29786-1.73828c4.20313-1.12207,7.833-3.27881,9.68164-6.293ZM269.2168,46.4651a17.764,17.764,0,0,1-5.457,4.42236,7.999,7.999,0,0,0-1.32032-1.25439,14.846,14.846,0,0,0,4.97266-3.89454Zm1.8916,3.19043a18.93163,18.93163,0,0,1-7.26074,5.43457,8.66676,8.66676,0,0,0-1.29786-1.43018,16.42989,16.42989,0,0,0,6.77637-4.75244Z"/><path class="cls-1" d="M296.7832,49.19312h-2.22265V60.21705h-1.958V49.19312h-2.75v.26416c0,3.25635-.39649,7.833-3.2793,10.89161a4.52357,4.52357,0,0,0-1.47363-1.40821,9.12136,9.12136,0,0,0,.83594-1.03418h-6.86524v1.62842h-1.78222V40.80982h1.78222V56.14625H286.794v.22021a17.28667,17.28667,0,0,0,1.12207-6.93115V41.82252l1.32031.418a28.20937,28.20937,0,0,0,5.65429-1.89258L296.541,41.844a34.62563,34.62563,0,0,1-6.68848,1.9585V47.301h6.93066Zm-14.30175,1.78272a12.86624,12.86624,0,0,1-2.53028,3.65234,9.00713,9.00713,0,0,0-.81445-1.67236,14.478,14.478,0,0,0,3.168-4.75244h-2.75v-1.7168h2.92676V40.23805h1.71582v6.24853h2.88281v1.7168h-2.88281v.63769c.66015.52832,2.44238,2.2002,2.88281,2.64063l-1.10059,1.4082c-.35156-.50586-1.09961-1.43017-1.78222-2.20019v4.97265h-1.71582Zm-1.8711-5.19336a14.36032,14.36032,0,0,0-.87988-3.78418l1.29883-.418a13.53912,13.53912,0,0,1,.94531,3.74024Zm6.62305-3.80615c-.50586,1.29834-1.14356,2.86035-1.62793,3.82861l-1.18848-.39648a27.98185,27.98185,0,0,0,1.21094-3.85059Z"/><path class="cls-1" d="M71.58984,72.29859a10.02563,10.02563,0,0,0,1.51856-.13183l1.51855.748c-.0664.374-.11035.83643-.13281,1.12207-.06543,2.22217-.35156,8.51514-1.31934,10.67139a2.45454,2.45454,0,0,1-2.55273,1.49658c-1.18848,0-2.48633-.08838-3.58691-.15429l-.26368-2.31006a25.22016,25.22016,0,0,0,3.19043.26367,1.16229,1.16229,0,0,0,1.25391-.748c.74805-1.54,1.03418-6.51269,1.03418-8.88916H66.61719c-.81348,6.1167-2.99219,9.4834-6.77637,12.146l-2.02441-1.65039a11.75216,11.75216,0,0,0,2.53027-1.84815c2.13379-2.00244,3.47656-4.66455,4.02637-8.64746H61.02832c-.81348,0-1.84766.022-2.68457.08838V72.14478c.83691.08789,1.82715.15381,2.68457.15381h3.543q.06591-.98951.06543-2.1123a14.00928,14.00928,0,0,0-.15332-1.89209h2.57422c-.04395.50586-.08789,1.32031-.11035,1.84814-.02149.748-.06543,1.47412-.10938,2.15625Zm1.5625-.5498a24.94931,24.94931,0,0,0-1.76074-3.0586l1.43067-.59423a31.97754,31.97754,0,0,1,1.78222,3.01464Zm2.15625-4.57666a29.562,29.562,0,0,1,1.82618,2.99219l-1.42969.61621a24.302,24.302,0,0,0-1.80469-3.01465Z"/><path class="cls-1" d="M97.13281,70.69264a7.5782,7.5782,0,0,0-.63867,1.144,30.10344,30.10344,0,0,1-3.6084,6.271,58.43431,58.43431,0,0,1,6.293,6.44678l-1.958,1.71631a47.65491,47.65491,0,0,0-5.80859-6.4248,28.15612,28.15612,0,0,1-8.47168,6.31445L81.1582,84.31275a24.71875,24.71875,0,0,0,9.043-6.44726,18.09868,18.09868,0,0,0,3.499-5.8086H85.625c-.8584,0-2.04688.10987-2.39844.13184V69.7024a23.57239,23.57239,0,0,0,2.39844.15381h8.16309a6.67918,6.67918,0,0,0,1.91406-.21973Z"/><path class="cls-1" d="M111.585,72.29859h-8.4043V70.67017h8.4043Zm-.792,13.73h-4.86231v.92432h-1.76074V79.55982h6.623Zm.02246-11.11132a5.02956,5.02956,0,0,0,2.31055-4.59864V67.7h7.0625v5.1709c0,.50586.04394.59424.35254.59424h.85742c.33008,0,.418-.28614.46289-2.31055a4.59036,4.59036,0,0,0,1.67187.74805c-.13183,2.61816-.63769,3.30078-1.91406,3.30078h-1.4082c-1.51856,0-1.98047-.50635-1.98047-2.31055V69.52662h-3.16895v.814a6.65067,6.65067,0,0,1-2.77246,5.91846,7.6814,7.6814,0,0,0-1.47363-1.29785v.28613h-6.60156V73.66285h6.60156Zm-6.60156,1.67187h6.60156v1.60645h-6.60156Zm6.53515-7.2168h-6.44629V67.76588H110.749Zm-4.81836,11.83789v3.168h3.08008v-3.168Zm16.39258-4.335a14.25061,14.25061,0,0,1-3.56445,6.42481,14.57608,14.57608,0,0,0,4.81836,2.15625,8.00885,8.00885,0,0,0-1.32031,1.76074,14.76883,14.76883,0,0,1-5.03907-2.57471,16.48627,16.48627,0,0,1-5.30273,2.57471,7.34832,7.34832,0,0,0-1.09961-1.80469,15.043,15.043,0,0,0,4.88477-2.15625,15.56265,15.56265,0,0,1-2.86036-4.35644l1.82618-.57227a11.67393,11.67393,0,0,0,2.53027,3.67481,10.84717,10.84717,0,0,0,2.53027-3.69678h-7.877V76.43531h8.7793l.374-.06592Z"/><path class="cls-1" d="M132.28711,67.656a40.37107,40.37107,0,0,1-1.7168,4.33448V87.21705h-1.93652V75.55494a19.53541,19.53541,0,0,1-1.75977,2.4209,15.75873,15.75873,0,0,0-1.01269-2.15674,25.56424,25.56424,0,0,0,4.5332-8.69092Zm14.23535,7.19483h-12.0791v2.94873c0,2.77246-.30859,6.8208-2.09082,9.46143a8.33524,8.33524,0,0,0-1.49609-1.27637c1.5625-2.376,1.71582-5.74268,1.71582-8.207V73.04713h13.95019Zm-10.86914-4.11426h-3.34473v-1.8042h3.34473V67.1941h1.89258v1.73828h3.71777V67.1941h1.93653v1.73828h3.23437v1.8042H143.2002v1.62793h-1.93653V70.73658H137.5459v1.62793h-1.89258Zm10.3418,14.6543c0,.814-.13282,1.27588-.68262,1.562a6.70045,6.70045,0,0,1-2.59668.28613,5.58947,5.58947,0,0,0-.4834-1.5625c.792.022,1.47363.022,1.69434,0,.24121-.022.30762-.08789.30762-.3081V83.71851h-2.75v3.41065h-1.62891V83.71851h-2.5957v3.49854H135.543V76.2151h10.45215Zm-8.73535-7.63526V79.384h2.5957V77.75562Zm2.5957,4.59864V80.74781h-2.5957v1.60645Zm1.62891-4.59864V79.384h2.75V77.75562Zm2.75,4.59864V80.74781h-2.75v1.60645Z"/><path class="cls-1" d="M165.376,77.2273a12.91459,12.91459,0,0,1-3.01465,5.457,41.76135,41.76135,0,0,1,5.875,2.88233L166.63086,87.239a39.93347,39.93347,0,0,0-5.98535-3.10254c-2.332,1.62842-5.36914,2.53028-9.13086,3.12452a8.34916,8.34916,0,0,0-1.18848-1.87012,21.83785,21.83785,0,0,0,8.0752-2.15674c-1.23242-.48389-2.48633-.92383-3.67481-1.31982l-.48437.85791-2.13379-.57178c.81445-1.32031,1.80371-3.125,2.77246-4.97315H149.8418v-1.958h6.05078c.59472-1.18848,1.166-2.3545,1.65039-3.38868l2.13476.46241c-.44043.92382-.9248,1.91406-1.43066,2.92627h10.958v1.958ZM152.46,74.05885h-2.08984V69.19654h7.9873V67.01783h2.17774v2.17871h8.18554v4.86231H166.542V71.08863H152.46Zm4.77539,3.16845c-.55078,1.07813-1.10058,2.11231-1.6289,3.08057,1.49609.43994,3.10253.96826,4.709,1.584A9.754,9.754,0,0,0,163.044,77.2273Z"/><path class="cls-1" d="M183.61328,84.81861h8.33984v1.84815H173.38184V84.81861H181.457V81.62818h-6.293V79.846h6.293V76.80933h-5.25879V75.18092a25.79011,25.79011,0,0,1-2.53027,1.62841,8.04113,8.04113,0,0,0-1.29785-1.6499,25.05,25.05,0,0,0,8.999-8.18554H183.46a26.03627,26.03627,0,0,0,9.417,7.94336,11.95358,11.95358,0,0,0-1.34179,1.80419,27.4223,27.4223,0,0,1-2.4209-1.54052v1.62841h-5.501V79.846h6.40332v1.78222h-6.40332Zm5.23731-9.81347a28.78252,28.78252,0,0,1-6.33692-6.00684,26.66209,26.66209,0,0,1-6.07324,6.00684Z"/><path class="cls-1" d="M195.60254,86.27076a12.65735,12.65735,0,0,0,2.88184-4.335l1.93652.50635a13.88259,13.88259,0,0,1-2.92676,4.731Zm17.53613-5.457H198.30859V73.575h6.20508V67.0398h2.08985v2.15674h8.07519v1.89209h-8.07519V73.575h6.53515Zm-2.09082-5.34668H200.2666v3.45459h10.78125Zm-7.0625,6.9751a26.24308,26.24308,0,0,1,.57227,4.33447l-2.06836.26416a28.84817,28.84817,0,0,0-.46192-4.42236Zm4.37891-.22022a23.48049,23.48049,0,0,1,1.67187,4.24707l-2.002.50586a22.944,22.944,0,0,0-1.51856-4.335Zm4.42187-.43994a26.22683,26.22683,0,0,1,2.88282,4.48877l-1.958.792a24.55587,24.55587,0,0,0-2.751-4.59863Z"/><path class="cls-1" d="M233.8623,81.386a7.8706,7.8706,0,0,0,5.30274,4.2246,4.9202,4.9202,0,0,0-1.18848,1.71631,9.3,9.3,0,0,1-5.5-4.66455c-.8584,1.84815-2.59668,3.54248-6.0957,4.68653a6.86056,6.86056,0,0,0-1.12207-1.54c3.63086-1.14453,5.12695-2.72852,5.7207-4.42285H226.7334V75.5774H231.332V73.83912H228.252V72.78248a14.14768,14.14768,0,0,1-1.80468,1.10059,8.11918,8.11918,0,0,0-.44043-.88038V73.531h-2.2002v1.38624c.59473.77,2.22266,3.16845,2.55274,3.71826L225.25879,80.242c-.28613-.68213-.87988-1.84814-1.45215-2.88232v9.85742h-1.91406V77.95338a20.67881,20.67881,0,0,1-2.376,5.25879,10.75352,10.75352,0,0,0-.99023-1.78223,24.2162,24.2162,0,0,0,3.21191-7.89893h-2.75V71.63892h2.9043V67.0398h1.91406v4.59912h2.2002v.26368a14.48665,14.48665,0,0,0,5.28125-4.84082h1.84863a15.11758,15.11758,0,0,0,6.18262,4.97265,9.9923,9.9923,0,0,0-1.07813,1.80469,18.1677,18.1677,0,0,1-1.82617-1.10059v1.10059h-3.23438V75.5774h4.77442V81.386Zm-2.57421-1.60645a7.13525,7.13525,0,0,0,.04394-.96777V77.18336h-2.81641v2.59619Zm4.26855-7.65674a15.947,15.947,0,0,1-3.27832-3.27881,14.946,14.946,0,0,1-3.125,3.27881Zm-2.376,5.06055v1.67236c0,.30811,0,.61621-.02246.92383h2.94825V77.18336Z"/><path class="cls-1" d="M34.39062,109.03639a11.20632,11.20632,0,0,1-4.123,4.51953,22.98,22.98,0,0,0,6.66211,1.74658,5.08736,5.08736,0,0,0-.81055,1.24267,21.04055,21.04055,0,0,1-7.18359-2.23291,24.21223,24.21223,0,0,1-7.25586,2.23291,5.0694,5.0694,0,0,0-.793-1.18847,24.89216,24.89216,0,0,0,6.77051-1.80078,12.74431,12.74431,0,0,1-3.6377-3.709l.18067-.07226h-.77442v-1.24219h9.8125l.27051-.05371Zm-11.86523-.07178H21.26562v-3.65479h2.86231a12.65089,12.65089,0,0,0-1.18848-2.377l1.15235-.32422a10.59169,10.59169,0,0,1,1.27832,2.35889l-1.0625.34228h7.833a22.24431,22.24431,0,0,0,1.67383-3.061l1.35059.41406c-.48633.88232-1.11621,1.85449-1.65625,2.647h3.0791v3.65479H35.27344v-2.4668h-12.748Zm13.05371-7.79639A94.61031,94.61031,0,0,1,21.751,102.55494a4.062,4.062,0,0,0-.30567-1.13477,94.13158,94.13158,0,0,0,13.19824-1.332Zm-10.13672,8.60645a10.56581,10.56581,0,0,0,3.5293,3.09716,9.80732,9.80732,0,0,0,3.4209-3.09716Zm3.15137-4.57325a10.48129,10.48129,0,0,0-.90039-2.64648l1.20605-.27051a10.7987,10.7987,0,0,1,.95411,2.61133Z"/><path class="cls-1" d="M46.3584,100.68189a28.20971,28.20971,0,0,1-1.9082,3.92578v11.9375h-1.333V106.678a18.75743,18.75743,0,0,1-1.81836,2.17871,10.59161,10.59161,0,0,0-.82813-1.31445,20.01651,20.01651,0,0,0,4.57325-7.27442Zm10.46094,4.79H54.55078v9.29053c0,1.0083-.28808,1.42236-.9541,1.62061a15.5162,15.5162,0,0,1-3.85352.21582,6.01,6.01,0,0,0-.52148-1.31446c1.51172.0542,2.98828.0542,3.4209.03614.39551-.03614.55762-.14405.55762-.55811v-9.29053H45.94434v-1.333H53.2002v-3.78076h1.35058v3.78076h2.26856ZM49.68945,112.386c-.54-1.1167-1.69238-3.043-2.61035-4.4834l1.15235-.54053c.93554,1.38623,2.124,3.25928,2.70019,4.35742Z"/><path class="cls-1" d="M66.05078,113.06959H62.17969v1.459H60.95508V101.33033h5.0957Zm-3.87109-10.53272v3.99707H64.79v-3.99707ZM64.79,111.86353v-4.15918H62.17969v4.15918Zm9.74121-4.91552v2.03466h2.08887v1.18848H74.53125v4.8252c0,.75634-.19824,1.15234-.73828,1.35058a10.29378,10.29378,0,0,1-2.917.21582,4.072,4.072,0,0,0-.43164-1.24218c1.11621.03613,2.10644.03613,2.39453.01806.30566-.01806.39648-.09033.39648-.35986v-4.80762H66.42871v-1.18848h6.80664V106.948H66.33887V105.76H70.8584v-2.28711H67.11328v-1.18848H70.8584v-2.14258h1.31445v2.14258H76.044v1.18848h-3.8711V105.76h4.64551v1.188Zm-5.92383,3.853a12.73851,12.73851,0,0,1,2.34082,3.061l-1.13476.72021a13.88643,13.88643,0,0,0-2.28614-3.16894Z"/><path class="cls-1" d="M82.32129,107.05592v9.543h-1.332V100.91627h6.5v6.13965Zm0-5.09522v1.49463h3.88965V101.9607Zm3.88965,4.06885v-1.584H82.32129v1.584Zm-.05469,8.895v.8999H84.9502v-7.418h6.67968v6.51807Zm0-5.4917v1.67432H90.3877v-1.67432Zm4.23145,4.4292v-1.74658H86.15625v1.74658Zm5.36621.95459c0,.8457-.19825,1.2959-.793,1.53027a10.25607,10.25607,0,0,1-3.02442.23389,4.944,4.944,0,0,0-.46777-1.36816c1.09766.05419,2.19629.03564,2.52051.01806.30566,0,.41406-.1084.41406-.43262V107.074H89.0918v-6.15771h6.66211Zm-5.38379-12.856v1.49463h4.0332V101.9607Zm4.0332,4.0874v-1.60253h-4.0332v1.60253Z"/><path class="cls-1" d="M115.96777,99.97975l.54.54052L100.26758,116.761l-.54-.54Z"/><path class="cls-1" d="M119.707,114.24049c4.1416-3.61914,6.04981-6.248,6.04981-8.5166a2.32008,2.32008,0,0,0-2.43067-2.61084,3.69808,3.69808,0,0,0-2.7373,1.53027l-.9541-.936a5.04793,5.04793,0,0,1,3.88964-1.94482,3.62078,3.62078,0,0,1,3.835,3.90723c0,2.6289-2.07032,5.31152-5.168,8.24658.68457-.0542,1.49511-.126,2.16113-.126h3.65527v1.42237H119.707Z"/><path class="cls-1" d="M140.12109,111.57545H138.375v3.63721h-1.56641v-3.63721h-5.74414v-1.08008l5.49121-8.48047H138.375v8.2461h1.74609Zm-3.3125-1.31445v-4.05127c0-.64795.07129-1.71045.10743-2.39454h-.07227c-.32324.64795-.68359,1.29639-1.06152,1.94483l-3.00684,4.501Z"/><path class="cls-1" d="M149.03027,113.06959h-3.87109v1.459h-1.22461V101.33033h5.0957Zm-3.87109-10.53272v3.99707h2.61035v-3.99707Zm2.61035,9.32666v-4.15918h-2.61035v4.15918Zm9.74121-4.91552v2.03466h2.08887v1.18848h-2.08887v4.8252c0,.75634-.19824,1.15234-.73828,1.35058a10.29378,10.29378,0,0,1-2.917.21582,4.072,4.072,0,0,0-.43164-1.24218c1.11621.03613,2.10644.03613,2.39453.01806.30566-.01806.39648-.09033.39648-.35986v-4.80762H149.4082v-1.18848h6.80664V106.948h-6.89648V105.76h4.51953v-2.28711h-3.74512v-1.18848h3.74512v-2.14258h1.31445v2.14258h3.8711v1.18848h-3.8711V105.76h4.64551v1.188Zm-5.92383,3.853a12.73851,12.73851,0,0,1,2.34082,3.061l-1.13476.72021a13.88636,13.88636,0,0,0-2.28613-3.16894Z"/><path class="cls-1" d="M165.30078,107.05592v9.543h-1.332V100.91627h6.5v6.13965Zm0-5.09522v1.49463h3.88965V101.9607Zm3.88965,4.06885v-1.584h-3.88965v1.584Zm-.05469,8.895v.8999h-1.20605v-7.418h6.67969v6.51807Zm0-5.4917v1.67432h4.23145v-1.67432Zm4.23145,4.4292v-1.74658h-4.23145v1.74658Zm5.36621.95459c0,.8457-.19824,1.2959-.793,1.53027a10.256,10.256,0,0,1-3.02441.23389,4.94435,4.94435,0,0,0-.46778-1.36816c1.09766.05419,2.19629.03564,2.52051.01806.30566,0,.41406-.1084.41406-.43262V107.074h-5.31152v-6.15771h6.66211Zm-5.38379-12.856v1.49463h4.0332V101.9607Zm4.0332,4.0874v-1.60253h-4.0332v1.60253Z"/><path class="cls-1" d="M182.61621,113.64576l.8291-1.08008a4.36037,4.36037,0,0,0,3.27637,1.5127,2.43026,2.43026,0,0,0,2.68262-2.44922c0-1.584-1.06153-2.64649-4.1045-2.64649v-1.26025c2.71875,0,3.6543-1.09814,3.6543-2.521a2.062,2.062,0,0,0-2.23242-2.12451,4.11724,4.11724,0,0,0-2.73633,1.31446l-.88281-1.04444a5.28622,5.28622,0,0,1,3.69141-1.58447c2.21484,0,3.835,1.18848,3.835,3.313a3.28969,3.28969,0,0,1-2.3584,3.187v.07178a3.394,3.394,0,0,1,2.80859,3.34912c0,2.35889-1.89062,3.76318-4.23144,3.76318A5.464,5.464,0,0,1,182.61621,113.64576Z"/><path class="cls-1" d="M201.9502,104.13892a2.79009,2.79009,0,0,0-2.124-1.00781c-1.80078,0-3.33105,1.38623-3.40332,5.49121a4.10682,4.10682,0,0,1,3.00684-1.60254c2.23242,0,3.65527,1.38672,3.65527,4.14161,0,2.55664-1.72851,4.28515-3.78125,4.28515-2.53906,0-4.41113-2.17871-4.41113-6.53613,0-5.167,2.32226-7.14795,4.8789-7.14795a4.05239,4.05239,0,0,1,3.07911,1.35059Zm-.41407,7.02247c0-1.78272-.77441-2.917-2.377-2.917a3.44013,3.44013,0,0,0-2.7002,1.69239c.19825,2.7373,1.18848,4.23144,2.84473,4.23144C200.56445,114.16822,201.53613,112.96217,201.53613,111.16139Z"/><path class="cls-1" d="M206.17773,113.7l.81055-1.08008a4.3395,4.3395,0,0,0,3.24024,1.4585,2.85312,2.85312,0,0,0,2.80957-3.11524c0-1.89062-1.08106-3.00683-2.73731-3.00683a3.58905,3.58905,0,0,0-2.19629.77441l-.88281-.54.41406-6.17578h6.42871v1.4043h-4.98828l-.32324,3.81689a3.79123,3.79123,0,0,1,1.96191-.522c2.19727,0,3.9795,1.29639,3.9795,4.19531a4.28631,4.28631,0,0,1-4.32129,4.53711A5.606,5.606,0,0,1,206.17773,113.7Z"/><path class="cls-1" d="M232.38965,101.38453V116.3108h-1.4043v-1.09814h-8.93066v1.17041H220.7041V101.38453Zm-10.335,1.314v4.86181h8.93066V102.6985Zm8.93066,11.1997v-5.02344h-8.93066v5.02344Z"/><path class="cls-1" d="M245.07812,104.94947a25.49219,25.49219,0,0,1-1.53124,5.59961,21.77879,21.77879,0,0,1,1.999,3.0791l-1.08008.918a21.43457,21.43457,0,0,0-1.56641-2.6289,12.30043,12.30043,0,0,1-4.06933,4.51953,6.144,6.144,0,0,0-.93653-1.02637,10.70884,10.70884,0,0,0,4.17774-4.66309,45.60308,45.60308,0,0,0-3.1875-3.835l.93652-.75683c.93653.97265,1.92676,2.10693,2.82715,3.22314a23.33121,23.33121,0,0,0,1.13379-4.60937Zm1.56641-.59424h-8.31836v-1.24218h3.4209V100.178h1.27832v2.93506h3.61914Zm7.81445,1.38623h-2.14355v9.021c0,.8999-.21582,1.29639-.75586,1.54834a9.46033,9.46033,0,0,1-2.98926.25195,5.53686,5.53686,0,0,0-.43164-1.38623c1.13477.03614,2.125.03614,2.43067.01807s.43261-.1084.43261-.43213v-9.021h-4.916v-1.27832h4.916v-4.32129h1.31348v4.32129H254.459Zm-6.21191,6.41016a15.732,15.732,0,0,0-1.94531-4.0332l1.09863-.50391a14.00826,14.00826,0,0,1,1.98047,3.96094Z"/><path class="cls-1" d="M260.61035,103.74342v3.3667c0,2.73681-.25195,6.77-1.78223,9.48877a4.99524,4.99524,0,0,0-1.13378-.75586c1.458-2.5752,1.60156-6.17627,1.60156-8.73291v-4.64551h6.6084v-2.30469h1.36816v2.30469h6.86035v1.27881Zm.01856,10.58691a13.5257,13.5257,0,0,0,1.584-5.45557l1.22461.27a15.10061,15.10061,0,0,1-1.62012,5.72559Zm8.55273.68408c.73828,0,.8457-.45019.90039-3.07861a4.26426,4.26426,0,0,0,1.20606.54c-.14454,2.9707-.48633,3.76269-2.01661,3.76269h-2.6289c-1.56641,0-1.98047-.4497-1.98047-1.94433V107.344h1.31445v6.9502c0,.6123.14356.72021.82813.72021Zm-.1084-7.04a21.45434,21.45434,0,0,0-4.1416-2.77295l.91895-.86425a21.97521,21.97521,0,0,1,4.17675,2.647Zm2.75488.5044a19.4065,19.4065,0,0,1,2.62891,5.85156l-1.27832.55811a20.36389,20.36389,0,0,0-2.53906-5.92383Z"/><path class="cls-1" d="M120.88379,8.0984l-.39844-1.0127q-.26514-.6643-.415-.99609a7.16827,7.16827,0,0,0-1.36133-.61426q-.91259-.36547-1.31152-.54785-.39843-.18237-.39844-.332a.71106.71106,0,0,1,.04981-.166c.0332-.08838.05566-.144.0664-.166h10.65821c.01074.0332.03027.08838.05859.166a.58747.58747,0,0,1,.041.166.47808.47808,0,0,1-.35645.498,5.48562,5.48562,0,0,1-1.12109.18262,5.10831,5.10831,0,0,0-1.27832.22412.63064.63064,0,0,0-.43164.65576q0,.34864,1.86816,6.22559,1.86768,5.877,2.46484,7.60352l.46485-1.41114q3.88476-11.60448,3.88476-12.40136a.73149.73149,0,0,0-.498-.72217,6.18268,6.18268,0,0,0-1.46094-.34033q-.39844-.04982-.78027-.13282a2.31914,2.31914,0,0,1-.59766-.19922l-.09961-.18261.09961-.332h8.583a.34852.34852,0,0,1,.166.0581.32733.32733,0,0,1,.13282.12451q0,.249-.38184.39014a10.02336,10.02336,0,0,1-1.22852.32373,11.40944,11.40944,0,0,0-1.97558.57275,1.62966,1.62966,0,0,0-.96289.938q-.18311.51489-.38184,1.187-.19921.67238-.28222.95459-.09961.39845-.166.59766l-4.96387,16.45215q-.0996.33179-.69726.332a1.254,1.254,0,0,1-.43946-.06641.51263.51263,0,0,1-.27441-.26562,9.43239,9.43239,0,0,1-.63086-1.80957l-.29883-.94629L121.51465,9.37672l-4.29981,12.36816q-.14941.41529-.415,1.34473-.31494,1.04589-.53125,1.64355a10.47,10.47,0,0,1-.48144,1.12891.5549.5549,0,0,1-.26563.29053,1.06057,1.06057,0,0,1-.43164.0747q-.498,0-.84668-.69726a12.71308,12.71308,0,0,1-.69726-1.793l-.166-.53125-2.27441-6.09277q-1.84278-5.01344-3.73535-9.96094a2.10734,2.10734,0,0,0-.77149-1.021,6.61356,6.61356,0,0,0-1.35351-.65576,10.07808,10.07808,0,0,1-.96289-.39844,2.3846,2.3846,0,0,1-.61426-.44824l.11621-.36523H114.459c.01075.0332.02735.08545.04981.15771a.6149.6149,0,0,1,.0332.17432.45537.45537,0,0,1-.32324.45654,4.457,4.457,0,0,1-.97168.20752,4.43327,4.43327,0,0,0-1.21973.29053.70468.70468,0,0,0-.42382.70556q0,.23218,1.78515,5.2793,1.78417,5.04713,3.0293,8.4834Z"/><path class="cls-1" d="M159.80469,26.02808a2.87633,2.87633,0,0,1-.53125.04981,6.6732,6.6732,0,0,1-.94629-.09961,6.69237,6.69237,0,0,0-.96289-.09961H140.33105l-.0332-.81348a4.63408,4.63408,0,0,1,.95508-.40673,8.1871,8.1871,0,0,1,.9707-.20752,3.02773,3.02773,0,0,0,.97168-.29883,1.26111,1.26111,0,0,0,.47266-.78858,7.97215,7.97215,0,0,0,.166-1.91748V8.87867a6.4611,6.4611,0,0,0-.207-1.90918,1.5119,1.5119,0,0,0-.60644-.855,6.34368,6.34368,0,0,0-1.32813-.52295q-.14942-.0498-.57226-.18262-.42334-.13256-.82227-.29882l.0332-.84668h16.9336a4.26475,4.26475,0,0,0,.50683-.03321q.27393-.033.38965-.0498a5.52394,5.52394,0,0,1,.89649-.083,2.53637,2.53637,0,0,1,.61426.06641V9.32691l-.86329.03321a2.57956,2.57956,0,0,1-.46484-.63086q-.18311-.34865-.415-.91309a6.648,6.648,0,0,0-.65527-1.29492,1.84776,1.84776,0,0,0-.95508-.68067,9.51735,9.51735,0,0,0-2.30762-.38183q-1.37841-.08277-3.1875-.083a29.28575,29.28575,0,0,0-3.35351.14942q-.06592.74706-.06641,1.71v6.74023h4.78125a7.14856,7.14856,0,0,0,1.959-.19922,1.99179,1.99179,0,0,0,1.00489-.64746,12.7128,12.7128,0,0,0,.9873-1.59375l.249-.44824h.94628v7.12207l-.94628.0498a5.92977,5.92977,0,0,0-1.35254-2.22461,3.026,3.026,0,0,0-2.2002-.79687h-5.42871V20.8318a6.13752,6.13752,0,0,0,.40723,2.57324,1.94014,1.94014,0,0,0,1.17871,1.0708,7.77117,7.77117,0,0,0,2.19922.24072h1.62695a12.21259,12.21259,0,0,0,3.61133-.47314,3.641,3.641,0,0,0,2.249-1.93409l.23242-.51464q.29883-.64746.48145-.97119a3.19652,3.19652,0,0,1,.46484-.62256h1.0459Z"/><path class="cls-1" d="M168.39453,6.96119a1.51731,1.51731,0,0,0-.58105-.86328,4.86209,4.86209,0,0,0-1.24512-.47315c-.07813-.022-.27441-.08056-.58984-.17431s-.63868-.20752-.97071-.34033l.03321-.84668h9.42968a32.28763,32.28763,0,0,1,4.73926.30713A7.501,7.501,0,0,1,182.78809,6.073a4.314,4.314,0,0,1,1.52734,3.61914q0,4.06713-5.99316,5.08008a11.64682,11.64682,0,0,1,3.34472.65576,6.46191,6.46191,0,0,1,2.68164,1.74316,4.174,4.174,0,0,1,1.0625,2.91358,4.623,4.623,0,0,1-1.27832,3.37841,7.18953,7.18953,0,0,1-3.1875,1.85938,14.04674,14.04674,0,0,1-3.95117.55615H165.041l-.03321-.86328.59766-.166A11.02228,11.02228,0,0,0,167.166,24.343a2.64848,2.64848,0,0,0,1.01269-.76368,2.09841,2.09841,0,0,0,.415-1.36962V8.89527A6.86217,6.86217,0,0,0,168.39453,6.96119Zm4.38281,7.15527a2.06986,2.06986,0,0,0,.71387.14112h2.208q5.31152,0,5.3125-4.03418a3.97086,3.97086,0,0,0-1.2041-3.1792,5.53846,5.53846,0,0,0-2.84668-1.28662,27.5393,27.5393,0,0,0-4.03418-.249h-.76367v8.251A1.79952,1.79952,0,0,0,172.77734,14.11646Zm-.61425,7.21338a5.46161,5.46161,0,0,0,.40625,2.1333,1.43625,1.43625,0,0,0,1.41992.97119h2.68945a5.36218,5.36218,0,0,0,2.31543-.48974,3.86931,3.86931,0,0,0,2.2666-3.644,3.983,3.983,0,0,0-1.32812-3.29541,6.28187,6.28187,0,0,0-3.09668-1.32813,30.06614,30.06614,0,0,0-4.25782-.25732,1.03552,1.03552,0,0,0-.34863.58935,4.63345,4.63345,0,0,0-.0664.87158Z"/><path class="cls-1" d="M215.30078,12.4192a38.76934,38.76934,0,0,1-4.75976,7l-2.18457-1.31641a27.57743,27.57743,0,0,0,2.74414-3.94775h-6.97168v9.74414c0,1.456-.36426,2.18408-1.48438,2.54785a18.13082,18.13082,0,0,1-5.23633.41992,12.65678,12.65678,0,0,0-.97949-2.52c1.82031.084,3.78027.05615,4.31152.05615.53223-.02783.67188-.14013.67188-.56005V14.155H190.15625v-2.4917h13.69238c-2.26758-1.06445-5.04-2.2959-7.22363-3.16406l1.34375-1.96c1.39941.55957,3.08008,1.2041,4.73145,1.9038a29.32692,29.32692,0,0,0,4.53613-3.3042H192.78906V2.73121h16.99512l.56055-.14014,1.90332,1.45606a43.83519,43.83519,0,0,1-6.915,5.48828c1.06347.47559,2.01562.89551,2.74316,1.25976l-.53125.86817h5.15137l.47656-.168Z"/><path class="cls-1" d="M222.6084,17.62721a25.9274,25.9274,0,0,1-1.876,7.13964,10.94683,10.94683,0,0,0-1.98828-.97949,21.15019,21.15019,0,0,0,1.65234-6.55224Zm5.17969-7.47608a23.6279,23.6279,0,0,1,2.68847,5.73975l-1.98828.95215a14.04717,14.04717,0,0,0-.5039-1.56787l-2.07227.14013V26.95094h-2.32324v-11.396c-1.59668.084-3.08008.168-4.36817.25195l-.22461-2.29589,1.96-.05567c.53223-.67236,1.06446-1.40039,1.624-2.18408a30.13075,30.13075,0,0,0-3.52735-3.92041L220.3125,5.615l.75586.67236a32.26,32.26,0,0,0,2.2959-5.06836l2.35254.84033c-1.00782,1.90381-2.18457,4.11573-3.19239,5.62793a16.27821,16.27821,0,0,1,1.37207,1.624,52.36231,52.36231,0,0,0,2.82813-4.87207l2.21191.95166a87.75366,87.75366,0,0,1-5.57226,7.95215l3.72461-.13965a24.17676,24.17676,0,0,0-1.17676-2.24024Zm.70019,6.94385a30.61253,30.61253,0,0,1,1.82031,5.292l-2.07226.728a30.21472,30.21472,0,0,0-1.708-5.376Zm15.792-9.74414c-.47558,12.34814-.83984,16.71631-2.01562,18.14453a2.98951,2.98951,0,0,1-2.46387,1.2876,26.76025,26.76025,0,0,1-4.3125.02783,5.85842,5.85842,0,0,0-.86816-2.60352c1.82031.13965,3.5.168,4.17187.168a1.34192,1.34192,0,0,0,1.2041-.47607c.89649-.896,1.34473-5.04,1.708-15.31592h-8.54a21.76166,21.76166,0,0,1-2.46386,3.752,19.443,19.443,0,0,0-2.2959-1.56836,23.41876,23.41876,0,0,0,4.84375-9.57568l2.66015.61572a37.08219,37.08219,0,0,1-1.54,4.28418h9.91211Zm-8.5957,12.46a27.54258,27.54258,0,0,0-3.584-6.43945l2.09961-1.03614a26.39969,26.39969,0,0,1,3.78027,6.29981Z"/><path class="cls-1" d="M85.62,0H52.61613V20.27417H85.62ZM82.37731,17.03014H55.86016V3.244H82.37731Z"/><path class="cls-1" d="M85.08048,22.70813H53.157L48.31573,27.256v2.61679H89.92044V27.256ZM64.98914,26.83455l.79358-1.26967h6.67089l.7948,1.26967Z"/></g></g></svg>