<svg xmlns="http://www.w3.org/2000/svg" viewBox="0 0 218.2207 63.54593"><defs><style>.cls-1{fill:#fff;}</style></defs><g id="レイヤー_2" data-name="レイヤー 2"><g id="top"><path class="cls-1" d="M84.76416,6.10342l-.32812-.834q-.21827-.54676-.3418-.82032a5.92121,5.92121,0,0,0-1.1211-.50586q-.75145-.30066-1.08007-.45117-.32812-.15033-.32813-.27344a.58719.58719,0,0,1,.041-.13671c.02734-.07288.0459-.11841.05468-.13672H90.438c.00879.02734.02539.073.04785.13672a.49016.49016,0,0,1,.03418.13671.39287.39287,0,0,1-.29395.41016,4.50618,4.50618,0,0,1-.92285.15039,4.21711,4.21711,0,0,0-1.05273.18457.51914.51914,0,0,0-.35547.54q0,.28712,1.53809,5.127t2.03027,6.26172l.38281-1.16211Q95.0454,5.17374,95.04541,4.51748a.60243.60243,0,0,0-.41016-.59472,5.118,5.118,0,0,0-1.20312-.28028q-.32812-.041-.64258-.10937a1.91605,1.91605,0,0,1-.49219-.16406l-.082-.1504.082-.27343h7.06836a.29063.29063,0,0,1,.13672.04785.27008.27008,0,0,1,.10938.10254q0,.20508-.31446.32129a8.2189,8.2189,0,0,1-1.01172.2666,9.41554,9.41554,0,0,0-1.62695.47168,1.34133,1.34133,0,0,0-.793.77246q-.15087.42389-.31445.97754-.16407.55371-.23242.78613-.082.32813-.13672.49219L91.09424,20.73233q-.082.27337-.57422.27343a1.03128,1.03128,0,0,1-.36231-.05468.42121.42121,0,0,1-.22558-.21875,7.76241,7.76241,0,0,1-.51953-1.49024l-.2461-.77929L85.28369,7.15615l-3.541,10.18555q-.12306.34187-.3418,1.10742-.25928.86133-.4375,1.35352a8.63347,8.63347,0,0,1-.39649.92969.45644.45644,0,0,1-.21875.23925.87325.87325,0,0,1-.35546.06153q-.41016,0-.69727-.57422a10.46927,10.46927,0,0,1-.57422-1.47656l-.13672-.4375-1.873-5.01758q-1.51758-4.12884-3.07618-8.20313a1.73158,1.73158,0,0,0-.63574-.84082,5.42915,5.42915,0,0,0-1.11426-.54,8.36715,8.36715,0,0,1-.793-.32812,1.95662,1.95662,0,0,1-.50586-.36914l.0957-.30078h8.791q.01319.041.041.12988a.50469.50469,0,0,1,.02734.14355.37518.37518,0,0,1-.2666.376,3.671,3.671,0,0,1-.7998.1709,3.6477,3.6477,0,0,0-1.00489.23926.58048.58048,0,0,0-.34863.58105q0,.19154,1.46973,4.34766,1.46924,4.15631,2.49512,6.98633Z"/><path class="cls-1" d="M116.81592,20.86905a2.36954,2.36954,0,0,1-.4375.041,5.49723,5.49723,0,0,1-.7793-.082,5.51137,5.51137,0,0,0-.793-.082H100.77881l-.02735-.66992a3.82732,3.82732,0,0,1,.78614-.335,6.7882,6.7882,0,0,1,.7998-.1709,2.48031,2.48031,0,0,0,.79981-.2461,1.03567,1.03567,0,0,0,.38965-.64941,6.56714,6.56714,0,0,0,.13671-1.5791V6.746a5.289,5.289,0,0,0-.17089-1.57227,1.24672,1.24672,0,0,0-.499-.7041A5.22461,5.22461,0,0,0,101.8999,4.039q-.123-.041-.47168-.15039t-.67676-.2461l.02735-.69726h13.94531a3.46164,3.46164,0,0,0,.417-.02735c.15039-.01818.25782-.03186.32129-.041a4.5393,4.5393,0,0,1,.73828-.06836,2.09926,2.09926,0,0,1,.50586.05469v4.252l-.71093.02734a2.12569,2.12569,0,0,1-.38282-.51953c-.10058-.1914-.21386-.442-.34179-.75195a5.47118,5.47118,0,0,0-.54-1.06641,1.52107,1.52107,0,0,0-.78614-.56054,7.848,7.848,0,0,0-1.90039-.31446q-1.13525-.0683-2.625-.06836a24.1184,24.1184,0,0,0-2.76172.12305q-.0542.61524-.05468,1.4082v5.55078h3.9375a5.88713,5.88713,0,0,0,1.61328-.16406,1.63938,1.63938,0,0,0,.82715-.5332,10.364,10.364,0,0,0,.81347-1.3125l.20508-.36914h.7793v5.86523l-.7793.041a4.88347,4.88347,0,0,0-1.11426-1.832,2.49087,2.49087,0,0,0-1.81152-.65625H106.603v4.60742a5.055,5.055,0,0,0,.335,2.11914,1.59989,1.59989,0,0,0,.9707.88184,6.3915,6.3915,0,0,0,1.81152.19824h1.33985a10.05469,10.05469,0,0,0,2.97363-.38965,2.99963,2.99963,0,0,0,1.85254-1.59277l.19141-.42383q.24609-.53321.39648-.79981a2.63275,2.63275,0,0,1,.38281-.51269h.86133Z"/><path class="cls-1" d="M123.89014,5.1669a1.25114,1.25114,0,0,0-.47852-.71094,4.0069,4.0069,0,0,0-1.02539-.38965c-.06445-.01819-.22559-.066-.48535-.14355q-.38966-.1161-.79981-.28028l.02735-.69726H128.894a26.63887,26.63887,0,0,1,3.90332.25293,6.17815,6.17815,0,0,1,2.94629,1.2373,3.55289,3.55289,0,0,1,1.25781,2.98047q0,3.34972-4.93554,4.18359a9.60287,9.60287,0,0,1,2.75488.54,5.321,5.321,0,0,1,2.208,1.43555,3.43764,3.43764,0,0,1,.875,2.39941,3.80677,3.80677,0,0,1-1.05274,2.78223,5.92011,5.92011,0,0,1-2.625,1.53125,11.57514,11.57514,0,0,1-3.2539.458h-9.84375l-.02735-.71094.49219-.13672a9.10382,9.10382,0,0,0,1.28516-.417,2.18076,2.18076,0,0,0,.834-.62891,1.728,1.728,0,0,0,.3418-1.12793V6.75967A5.65231,5.65231,0,0,0,123.89014,5.1669Zm3.60937,5.89258a1.69678,1.69678,0,0,0,.58789.11621h1.81836q4.374,0,4.375-3.32227a3.27335,3.27335,0,0,0-.99121-2.61816,4.561,4.561,0,0,0-2.34473-1.05957,22.67963,22.67963,0,0,0-3.32226-.20508h-.62891v6.79492A1.48505,1.48505,0,0,0,127.49951,11.05948Zm-.50586,5.94042a4.49736,4.49736,0,0,0,.335,1.75684,1.18145,1.18145,0,0,0,1.16895.79981h2.21484a4.4165,4.4165,0,0,0,1.90723-.40332,3.187,3.187,0,0,0,1.86621-3.001,3.28031,3.28031,0,0,0-1.09375-2.71387,5.17046,5.17046,0,0,0-2.5498-1.09375,24.81284,24.81284,0,0,0-3.50684-.21191.85154.85154,0,0,0-.28711.48535,3.80743,3.80743,0,0,0-.05469.71777Z"/><path class="cls-1" d="M160.55029,9.60843a29.00845,29.00845,0,0,1-3.56933,5.249l-1.6377-.98682a20.67069,20.67069,0,0,0,2.05762-2.96045h-5.22754v7.30664c0,1.0918-.27344,1.6377-1.11328,1.91065a13.59233,13.59233,0,0,1-3.92578.31494,9.47566,9.47566,0,0,0-.73535-1.88965c1.36523.063,2.835.042,3.23339.042.39942-.021.50391-.105.50391-.41992V10.91018H141.6958V9.04153h10.26758c-1.70117-.79785-3.7793-1.72168-5.417-2.37256l1.00781-1.46972c1.0498.41992,2.30957.90283,3.54785,1.42773a21.97763,21.97763,0,0,0,3.40137-2.47754h-10.834V2.34378h12.74512l.41992-.105,1.42774,1.09179a32.862,32.862,0,0,1-5.18653,4.11524c.79786.35693,1.51172.67187,2.05762.94482l-.39844.65088h3.86328l.35645-.126Z"/><path class="cls-1" d="M166.03467,13.5137a19.4397,19.4397,0,0,1-1.40723,5.354,8.2016,8.2016,0,0,0-1.49023-.73486,15.86818,15.86818,0,0,0,1.23828-4.91309Zm3.88379-5.606a17.72391,17.72391,0,0,1,2.01562,4.3042l-1.49023.71387a10.57725,10.57725,0,0,0-.37793-1.17578l-1.55371.105V20.5054H166.769V11.96c-1.19629.063-2.30957.126-3.27539.189l-.168-1.72168,1.46973-.042c.39941-.50391.79785-1.0498,1.21777-1.63769a22.55992,22.55992,0,0,0-2.6455-2.93946l.94531-1.30176c.18847.168.37793.33594.5664.50391A24.16586,24.16586,0,0,0,166.60107,1.21l1.76368.62988c-.75586,1.42774-1.6377,3.08643-2.39356,4.22022a12.241,12.241,0,0,1,1.0293,1.21777,39.226,39.226,0,0,0,2.12012-3.65332l1.65918.71387a65.91058,65.91058,0,0,1-4.17872,5.96289l2.793-.105a18.29631,18.29631,0,0,0-.88183-1.67969Zm.52539,5.207a22.89335,22.89335,0,0,1,1.36426,3.96826l-1.55372.5459a22.668,22.668,0,0,0-1.28027-4.03125Zm11.84179-7.30664c-.35742,9.25928-.62988,12.53467-1.51171,13.60547a2.24277,2.24277,0,0,1-1.84766.96582,20.06993,20.06993,0,0,1-3.2334.021,4.39824,4.39824,0,0,0-.65137-1.95264c1.36524.105,2.625.126,3.12891.126a1.00573,1.00573,0,0,0,.90234-.35694c.67188-.67187,1.00782-3.77929,1.28125-11.48486h-6.40429a16.26405,16.26405,0,0,1-1.84766,2.81348,14.595,14.595,0,0,0-1.72168-1.17578A17.57447,17.57447,0,0,0,174.01318,1.189l1.99414.46192a27.79712,27.79712,0,0,1-1.15429,3.2124h7.43261Zm-6.44628,9.34326a20.6118,20.6118,0,0,0-2.6875-4.8291l1.57519-.77685a19.80472,19.80472,0,0,1,2.834,4.72412Z"/><path class="cls-1" d="M.62988,28.54654V43.54593H0V28.54654Z"/><path class="cls-1" d="M21.67529,30.93142a23.53992,23.53992,0,0,1-4.02,3.25489V40.606a11.3,11.3,0,0,0,.09034,1.605H16.27539a13.936,13.936,0,0,0,.08984-1.605V34.93631a30.0058,30.0058,0,0,1-5.63964,2.33984l-.68995-1.16992a23.6738,23.6738,0,0,0,6.70459-2.75989,16.54007,16.54007,0,0,0,3.94483-3.31482Z"/><path class="cls-1" d="M26.04053,36.81118c.72021-.735,2.0249-2.3999,2.96972-3.50988.79541-.94495,1.41016-1.04993,2.49024-.14991a37.80614,37.80614,0,0,1,3.105,3.10486c1.00488,1.08,2.53467,2.71485,3.62939,4.00476L37.26025,41.326c-1.05029-1.34985-2.415-2.89477-3.375-3.98974a40.44051,40.44051,0,0,0-2.9248-3.04492c-.62988-.52491-.83984-.51-1.3501.12-.71973.87-1.98,2.5199-2.65478,3.34485-.315.39-.645.855-.87012,1.155l-1.09473-1.11C25.36572,37.47122,25.65039,37.2012,26.04053,36.81118Zm9.91455-2.86486-.86963.405a15.71031,15.71031,0,0,0-1.395-2.39991l.855-.375A22.95359,22.95359,0,0,1,35.95508,33.94632Zm1.98-.79493-.87012.41993A15.52856,15.52856,0,0,0,35.625,31.20144l.84033-.39A22.51761,22.51761,0,0,1,37.93506,33.15139Z"/><path class="cls-1" d="M48.07568,38.61111a14.1296,14.1296,0,0,0,5.00977-5.51977l.71973,1.2749a14.95943,14.95943,0,0,1-5.03956,5.32483,16.17247,16.17247,0,0,1-5.895,2.34l-.79493-1.23A15.48692,15.48692,0,0,0,48.07568,38.61111Zm-.88525-4.75476-.94482.94495a31.158,31.158,0,0,0-3.73487-3.13489l.855-.91492A32.83225,32.83225,0,0,1,47.19043,33.85635Z"/><path class="cls-1" d="M65.57959,37.89114a39.31068,39.31068,0,0,0-5.89453-2.41492L59.7002,40.426A17.68736,17.68736,0,0,0,59.79,42.196H58.3501a16.41,16.41,0,0,0,.08984-1.7699V31.69644a9.42982,9.42982,0,0,0-.12012-1.55994H59.79c-.04492.465-.105,1.10986-.105,1.55994v2.44482a48.72839,48.72839,0,0,1,6.40478,2.475Z"/><path class="cls-1" d="M82.91992,35.10122a20.8494,20.8494,0,0,1-2.68506,3.6449l-.8999-.56995a16.36445,16.36445,0,0,0,1.75488-2.34H76.83008V41.491c0,.69-.18018,1.005-.70508,1.16993a10.80363,10.80363,0,0,1-2.69971.18005,6.4345,6.4345,0,0,0-.41992-1.08c1.03467.04493,2.03955.03,2.33984.015.27-.015.35987-.07508.35987-.3V35.83621H69.52539V34.77127h7.76953c-1.2749-.645-2.98486-1.42493-4.31982-1.99488l.57031-.82495c.82471.33,1.7998.73487,2.71484,1.1399a17.401,17.401,0,0,0,2.84961-2.05494H70.93555V30.00149h9.25439l.25488-.06006.81006.615a23.19137,23.19137,0,0,1-3.8999,3.04493c.61523.27,1.2002.55493,1.62012.7799l-.25489.39h3.08985l.22461-.09Z"/><path class="cls-1" d="M87.54053,37.87613a13.21052,13.21052,0,0,1-1.06494,3.80993,3.904,3.904,0,0,0-.87012-.42,10.7769,10.7769,0,0,0,.9751-3.56983Zm2.74463-3.88477A12.271,12.271,0,0,1,91.77,37.03616l-.88477.42a5.1566,5.1566,0,0,0-.28515-.855l-1.29.075v6.23975H88.29053V36.73623l-2.44532.12-.08984-1.005c.29981,0,.645-.015.98975-.03.33008-.38989.67529-.85485,1.00537-1.33483a13.01033,13.01033,0,0,0-1.96533-2.15992l.57031-.72c.1499.11988.2998.25489.44971.38989a20.45185,20.45185,0,0,0,1.335-2.78979l.99023.37488a27.05163,27.05163,0,0,1-1.71,3.01489,10.59944,10.59944,0,0,1,.915,1.035c.61475-.94506,1.18457-1.91992,1.605-2.73l.96.42a48.54926,48.54926,0,0,1-3.105,4.46985c.75-.03,1.57471-.07508,2.3999-.105a14.04969,14.04969,0,0,0-.73486-1.335Zm.39013,3.64478A13.005,13.005,0,0,1,91.68018,40.516l-.88477.30005a14.96823,14.96823,0,0,0-.96-2.90992ZM99.21,32.46133c-.27,6.71973-.48,9.04468-1.09521,9.77966a1.54247,1.54247,0,0,1-1.24463.6,17.53092,17.53092,0,0,1-2.31006-.03,2.5563,2.5563,0,0,0-.35986-1.095c1.00488.09,1.91992.09,2.29492.09a.73589.73589,0,0,0,.645-.225c.49463-.50989.75-2.7898.97461-8.63965H93.19531a11.91238,11.91238,0,0,1-1.395,2.1,7.90353,7.90353,0,0,0-.97509-.66,13.1919,13.1919,0,0,0,2.66992-5.18969l1.125.255a19.05858,19.05858,0,0,1-.915,2.44482H99.21Zm-4.335,6.59973a16.0762,16.0762,0,0,0-2.0249-3.49487l.8999-.43494a15.186,15.186,0,0,1,2.1001,3.41992Z"/><path class="cls-1" d="M109.48486,28.54654V43.54593H108.855V28.54654Z"/><path class="cls-1" d="M130.00488,41.56594a11.02588,11.02588,0,0,0-3.585-2.23486c.01514.375.03028.705.03028.92993,0,1.02-.68995,2.085-2.625,2.085-2.12989,0-3.31495-.765-3.31495-2.205,0-1.34986,1.30518-2.26489,3.4502-2.26489a8.391,8.391,0,0,1,1.24463.09c-.02979-.65991-.06006-1.36487-.07471-1.97986h-.82519c-1.02,0-2.66993-.09-3.73487-.21v-1.14a26.41511,26.41511,0,0,0,3.73487.285h.79492V32.79141h-.73487c-1.03515,0-2.60986-.12-3.49462-.225v-1.11a23.68839,23.68839,0,0,0,3.47949.28491h.76513v-.975a8.36819,8.36819,0,0,0-.04492-.88488h1.2749a7.67852,7.67852,0,0,0-.07519.99c-.01465.17993-.01465.465-.01465.82495a33.04725,33.04725,0,0,0,3.80957-.36l.01514,1.095c-1.16992.12-2.44483.24-3.83985.31494v2.12989a40.06779,40.06779,0,0,0,4.12452-.38989l.01513,1.12487c-1.395.18006-2.71484.285-4.12451.345.02979.765.07471,1.54493.105,2.24988a12.199,12.199,0,0,1,4.31983,2.30994ZM125.25,39.00113a7.56171,7.56171,0,0,0-1.43994-.135c-1.40967,0-2.17481.53991-2.17481,1.215,0,.68994.585,1.2,2.05518,1.2.855,0,1.57471-.255,1.57471-1.2749C125.26514,39.75113,125.25,39.406,125.25,39.00113Z"/><path class="cls-1" d="M136.62061,37.39615a5.66842,5.66842,0,0,0-.29981,1.67993c0,1.125,1.13965,1.9049,3.50977,1.9049A19.30433,19.30433,0,0,0,144.915,40.411l.01514,1.275a20.91147,20.91147,0,0,1-5.06983.5249c-3.01465,0-4.76953-1.00488-4.76953-2.86486a8.32235,8.32235,0,0,1,.31494-2.06995Zm-.61524-5.99976a33.157,33.157,0,0,0,3.93018.19507c1.4248,0,2.93994-.1051,4.00488-.21009v1.23c-1.00537.075-2.625.18005-4.00488.18005-1.48487,0-2.74512-.06006-3.93018-.165Zm9.62988.375-.81005.375a15.64806,15.64806,0,0,0-1.23-2.1l.81006-.33A21.24992,21.24992,0,0,1,145.63525,31.77139Zm1.69483-.615-.82471.36a13.80575,13.80575,0,0,0-1.24512-2.06982l.79493-.34509A21.8802,21.8802,0,0,1,147.33008,31.1564Z"/><path class="cls-1" d="M151.33594,37.23123a5.84965,5.84965,0,0,0-.3003,1.69482c0,1.11,1.14014,1.89,3.51026,1.89a19.30421,19.30421,0,0,0,5.08447-.57l.01514,1.28992a21.85252,21.85252,0,0,1-5.06983.50989c-3.01464,0-4.76953-.98987-4.76953-2.84986a9.4017,9.4017,0,0,1,.29981-2.08484Zm-.61524-5.99976a33.15391,33.15391,0,0,0,3.93018.19495c1.4248,0,2.93994-.105,4.00488-.21v1.22986c-1.00537.07507-2.64014.18005-4.00488.18005-1.48535,0-2.74512-.05994-3.93018-.165Z"/><path class="cls-1" d="M166.62061,30.85647c.78027,0,3.88525-.07507,4.83007-.135a3.64566,3.64566,0,0,0,.82471-.135l.70508.885a5.32606,5.32606,0,0,0-.645.41992c-1.10986.855-2.89453,2.27991-3.98975,3.23987a5.792,5.792,0,0,1,2.23487-.41992c2.3999,0,4.15478,1.3949,4.15478,3.43482,0,2.89489-2.87988,4.48486-7.43945,4.12487l-.36035-1.215c3.82519.465,6.55517-.66,6.55517-2.92493,0-1.40991-1.23-2.3999-3.13525-2.3999-2.69971,0-4.21485,1.5-5.78955,3.16492l-.87012-.93006c2.06982-1.93481,5.81982-5.0697,7.09473-6.20972-.915.045-3.375.15-4.10987.19507-.33007.02991-.71972.05994-1.02.105l-.04492-1.245A9.27434,9.27434,0,0,0,166.62061,30.85647Z"/><path class="cls-1" d="M183.55615,32.59634h-5.52v-.91492h5.52Zm-.46533,9.43469H179.686V42.721h-.97461V37.69619h4.37939Zm-.01465-7.43969h-4.3501v-.885h4.3501Zm-4.3501,1.095h4.3501v.8999h-4.3501Zm4.31983-5.06983h-4.25977v-.9h4.25977ZM179.686,38.61111V41.131h2.44482v-2.5199Zm8.25-9.38965a11.64456,11.64456,0,0,0,4.06445,4.12488,7.32133,7.32133,0,0,0-.61475.99,13.69726,13.69726,0,0,1-3.92969-4.06482,12.44729,12.44729,0,0,1-3.88525,4.1698,5.76977,5.76977,0,0,0-.56982-.91492,10.9541,10.9541,0,0,0,3.87011-4.30493Zm3.43457,8.66968a11.84853,11.84853,0,0,1-7.06446,5.02478,5.55324,5.55324,0,0,0-.68994-.92993,10.96645,10.96645,0,0,0,6.76465-4.52979ZM188.731,33.42129a11.84958,11.84958,0,0,1-3.77979,3.04492,4.704,4.704,0,0,0-.75-.67492,10.70713,10.70713,0,0,0,3.55469-2.74488Zm1.25976,2.22a12.7994,12.7994,0,0,1-4.96484,3.71985,6.93,6.93,0,0,0-.71973-.78,11.1641,11.1641,0,0,0,4.69483-3.35986Z"/><path class="cls-1" d="M208.38086,35.25125h-1.68018V42.886h-1.0498V35.25125H203.416v.45c0,2.20495-.25538,5.23486-2.22022,7.3197a2.28411,2.28411,0,0,0-.79492-.76489,6.32783,6.32783,0,0,0,.79492-1.035h-5.03955v1.125H195.166V29.73147h.99023V40.23111h5.44482V40.426a11.85726,11.85726,0,0,0,.76465-4.73974V30.46646l.79492.255a21.63344,21.63344,0,0,0,4.08008-1.2749l.8999.79492a22.81941,22.81941,0,0,1-4.7246,1.37988v2.58h4.96484Zm-9.67481.885a10.011,10.011,0,0,1-1.93505,2.9248,7.4424,7.4424,0,0,0-.48-.8999,10.35574,10.35574,0,0,0,2.26513-3.50989H196.561v-.96h2.145V29.31155h.93018v4.37976H201.751v.96h-2.11475v.57c.44971.375,1.73975,1.55993,2.05469,1.86l-.645.77991c-.25488-.36-.88477-1.08-1.40967-1.6499V39.886h-.93018Zm-1.31982-3.05994a9.59942,9.59942,0,0,0-.645-2.60986l.73486-.24a9.59494,9.59494,0,0,1,.69,2.58Zm4.36475-2.60986c-.35987.885-.79493,1.965-1.15479,2.63989l-.67529-.255a17.96691,17.96691,0,0,0,.93017-2.65491Z"/><path class="cls-1" d="M218.2207,28.54654V43.54593h-.62988V28.54654Z"/><path class="cls-1" d="M36.27,48.54654V63.54593h-.62988V48.54654Z"/><path class="cls-1" d="M55.62012,52.88137a5.41369,5.41369,0,0,0,.96-.07495l.83984.41993a4.69827,4.69827,0,0,0-.07471.735c-.06005,1.43994-.24023,5.80481-.915,7.24475a1.53782,1.53782,0,0,1-1.605.91492c-.76514,0-1.63526-.04505-2.415-.105l-.14991-1.245a18.25472,18.25472,0,0,0,2.23487.165.82086.82086,0,0,0,.87011-.48c.56983-1.155.76465-4.84485.76465-6.44971h-4.1997c-.54,4.31983-2.1001,6.58472-4.605,8.30957l-1.07959-.88488a7.73872,7.73872,0,0,0,1.52978-1.11,9.608,9.608,0,0,0,2.96973-6.3147H48.22559a15.88288,15.88288,0,0,0-1.7251.05994V52.80642c.5249.04493,1.14013.07495,1.71.07495H50.8501c.03027-.48.06006-.99.06006-1.51489a8.70555,8.70555,0,0,0-.105-1.245h1.41015c-.04492.32995-.07519.855-.09033,1.215-.01465.53992-.04492,1.04993-.07471,1.54492Zm.56982-2.89489a23.221,23.221,0,0,1,1.23,2.05493l-.81006.36A18.10577,18.10577,0,0,0,55.395,50.33145Zm1.6499-.6A18.581,18.581,0,0,1,59.085,51.42642l-.79492.36a15.60084,15.60084,0,0,0-1.24512-2.05493Z"/><path class="cls-1" d="M72.02979,51.71145a4.30247,4.30247,0,0,0-.375.65991,18.97552,18.97552,0,0,1-2.52,4.39478A43.01138,43.01138,0,0,1,73.51465,61.236l-1.04981.915a34.63391,34.63391,0,0,0-4.125-4.45484A19.01678,19.01678,0,0,1,62.49023,62.076l-.96-1.00488A17.15254,17.15254,0,0,0,67.71,56.61624a13.36467,13.36467,0,0,0,2.48975-4.16992H64.3501c-.5249,0-1.3501.06-1.51514.07507v-1.365c.21.03,1.06494.105,1.51514.105h5.78955a3.99633,3.99633,0,0,0,1.125-.13489Z"/><path class="cls-1" d="M82.05029,52.59634H76.39551v-.91492h5.65478Zm-.5249,9.43469h-3.48V62.721H77.0708V57.69619h4.45459Zm-4.4248-8.3247h4.43994v.885H77.10059Zm0,1.98h4.43994v.8999H77.10059Zm4.395-5.06983H77.17578v-.9h4.31983Zm-3.4502,7.99463V61.131h2.50488v-2.5199Zm6.23975-7.12475a4.39617,4.39617,0,0,1-1.91993,3.91491,5.42982,5.42982,0,0,0-.81005-.735,3.45932,3.45932,0,0,0,1.665-3.19483V49.67154H87.8999v3.65979c0,.32995.04541.39.28516.39h.75c.27,0,.33008-.19495.35986-1.63489a2.47555,2.47555,0,0,0,.93018.40491c-.08985,1.755-.35987,2.18994-1.15479,2.18994H88.03516c-.915,0-1.18506-.285-1.18506-1.35V50.6614H84.28516Zm5.04,4.39489A9.73525,9.73525,0,0,1,86.79,60.30606a9.525,9.525,0,0,0,3.45019,1.62,4.764,4.764,0,0,0-.72021.945,10.22553,10.22553,0,0,1-3.56982-1.845,11.48023,11.48023,0,0,1-3.76465,1.86,3.88651,3.88651,0,0,0-.6001-.975,10.20892,10.20892,0,0,0,3.54-1.65,10.1118,10.1118,0,0,1-2.1001-3.26977l.98975-.3a8.39735,8.39735,0,0,0,1.93506,2.8949A7.98446,7.98446,0,0,0,87.915,56.66116H82.24561v-1.0199h6.16455l.19482-.045Z"/><path class="cls-1" d="M96.82471,49.56643a25.72677,25.72677,0,0,1-1.16992,2.92493V62.886h-1.065V54.48636a15.24191,15.24191,0,0,1-1.40966,2.00988,8.09448,8.09448,0,0,0-.585-1.125A18.017,18.017,0,0,0,95.79,49.28152Zm9.81006,4.73987H98.18994v2.23486c0,1.86-.19482,4.5448-1.37988,6.34485A4.02542,4.02542,0,0,0,96,62.196a10.85624,10.85624,0,0,0,1.18506-5.6698V53.31631h9.44971Zm-7.29-2.72986H96.915v-.975h2.42969v-1.275h1.02v1.275h2.80517v-1.275h1.04981v1.275h2.355v.975h-2.355v1.23h-1.04981v-1.23h-2.80517v1.23h-1.02Zm6.915,10.2295c0,.495-.09034.765-.43506.915a4.71823,4.71823,0,0,1-1.81494.165,4.19278,4.19278,0,0,0-.28516-.87c.645.015,1.16992.015,1.3501,0,.17968-.015.21-.045.21-.21008V60.42605h-2.20508v2.36988h-.8999V60.42605h-2.11475v2.46h-.96V55.40127h7.15479Zm-6.19483-5.54969v1.30493h2.11475V56.25625Zm2.11475,3.37488v-1.29h-2.11475v1.29Zm.8999-3.37488v1.30493h2.20508V56.25625Zm2.20508,3.37488v-1.29h-2.20508v1.29Z"/><path class="cls-1" d="M120.16455,55.9562a8.62275,8.62275,0,0,1-2.21973,3.95984,29.101,29.101,0,0,1,4.21485,2.06995l-.81006.92993A26.8728,26.8728,0,0,0,117,60.69607a14.7034,14.7034,0,0,1-6.31494,2.21985,4.55052,4.55052,0,0,0-.67481-1.00488,14.78186,14.78186,0,0,0,5.78955-1.69495c-.98974-.39-1.99462-.75-2.93994-1.035-.13476.225-.25488.43506-.375.63l-1.125-.29992c.57032-.94495,1.27491-2.235,1.96485-3.55494H109.665V54.90628h4.21484c.41992-.855.83985-1.67993,1.18506-2.41492l1.13965.255c-.31494.67493-.68994,1.40992-1.06494,2.15992h7.73974V55.9562Zm-8.93945-1.97985h-1.125V50.7814h5.5498V49.19156h1.15479V50.7814h5.6997v3.19495h-1.15478V51.81643H111.2251Zm3.375,1.97985c-.42041.80994-.855,1.62-1.26026,2.34,1.10987.33,2.29493.735,3.46485,1.16992a6.87511,6.87511,0,0,0,2.085-3.50989Z"/><path class="cls-1" d="M133.19971,49.17654a19.05578,19.05578,0,0,0,6.50976,5.53479,4.97442,4.97442,0,0,0-.73486.98987,22.26466,22.26466,0,0,1-6.27-5.42969,20.01613,20.01613,0,0,1-6.13428,5.50476,4.576,4.576,0,0,0-.69043-.885,17.88875,17.88875,0,0,0,6.21-5.71472ZM133.29,61.461h5.84961v1.02H126.46533v-1.02h5.68457V59.01614h-4.46972v-.99h4.46972V55.68631H128.355v-1.005h8.90967v1.005H133.29v2.33984h4.54443v.99H133.29Z"/><path class="cls-1" d="M142.43994,62.391a8.70383,8.70383,0,0,0,2.04-2.985l1.04981.27a10.28725,10.28725,0,0,1-2.06983,3.21Zm11.81983-3.88489h-9.97461V53.73636h4.30468v-4.5448h1.10987v1.60485h5.66992v1.05h-5.66992v1.8899h4.56006Zm-1.125-3.71985H145.3501V57.4562h7.78467Zm-5.19,4.93482a18.97518,18.97518,0,0,1,.375,2.89489L147.21,62.7659a17.27625,17.27625,0,0,0-.33008-2.95484Zm3.01514-.12a14.97376,14.97376,0,0,1,1.12451,2.86487l-1.07959.255a14.28772,14.28772,0,0,0-1.05029-2.89489Zm3.01465-.285a16.34933,16.34933,0,0,1,1.99512,3.0299l-1.0503.41993a16.06475,16.06475,0,0,0-1.91992-3.07483Z"/><path class="cls-1" d="M169.00488,58.89615a5.64883,5.64883,0,0,0,3.77979,3.11987,2.87,2.87,0,0,0-.645.94494,6.369,6.369,0,0,1-3.915-3.43481c-.54,1.34985-1.72461,2.57983-4.28955,3.43481a2.98382,2.98382,0,0,0-.6001-.84c2.60986-.84,3.645-1.98,4.03467-3.22485H164.355V55.04129h3.23975v-1.38h-2.27979v-.70495a10.98389,10.98389,0,0,1-1.26025.78,3.10591,3.10591,0,0,0-.19483-.39v.09h-1.62011v1.125c.42041.53991,1.56005,2.17492,1.80029,2.56494l-.61524.88489a22.77446,22.77446,0,0,0-1.18505-2.15992V62.871h-1.04981V55.94119a15.65977,15.65977,0,0,1-1.83008,4.12488,7.93188,7.93188,0,0,0-.585-.975,16.89314,16.89314,0,0,0,2.3252-5.65478h-2.00977V52.40139h2.09961V49.19156h1.04981v3.20983h1.62011v.255a9.85551,9.85551,0,0,0,3.71973-3.43494h1.00488a11.13429,11.13429,0,0,0,4.30518,3.50989,5.86274,5.86274,0,0,0-.6001.975,13.70151,13.70151,0,0,1-1.29-.79493v.74988h-2.3999v1.38h3.35986v3.85486Zm-1.43994-.915c.01465-.255.02979-.52491.02979-.77991v-1.26h-2.25v2.03992Zm3.1499-5.26477a12.08086,12.08086,0,0,1-2.58007-2.50489,11.1176,11.1176,0,0,1-2.4751,2.50489Zm-2.11523,3.22485v1.29c0,.25488-.01514.49487-.02979.74988h2.36963V55.94119Z"/><path class="cls-1" d="M182.57959,48.54654V63.54593h-.62988V48.54654Z"/><path class="cls-1" d="M56.2811,0H30.153V16.05038H56.2811ZM53.71394,13.48219H32.72119V2.56813H53.71394Z"/><path class="cls-1" d="M55.854,17.97727H30.58118L26.74852,21.5777v2.07163H59.68558V21.5777ZM39.9483,21.244l.62825-1.00516h5.28113l.62921,1.00516Z"/></g></g></svg>