<svg xmlns="http://www.w3.org/2000/svg" viewBox="0 0 61.44 61.44"><defs><style>.cls-1{fill:#fff;}.cls-2{fill:#1b1b1a;}</style></defs><g id="レイヤー_2" data-name="レイヤー 2"><g id="top"><rect class="cls-1" width="61.44" height="61.44"/><rect class="cls-2" x="5.12" y="5.12" width="51.2" height="51.2"/><path class="cls-1" d="M30.074,35.61377a3.96364,3.96364,0,0,1-1.25927.19189,3.31832,3.31832,0,0,1-3.22657-2.08679c-1.91894-.26392-3.21386-1.967-3.21386-4.54553,0-2.81849,1.54687-4.53357,3.7539-4.53357,2.20655,0,3.75391,1.71508,3.75391,4.53357,0,2.53064-1.24756,4.20959-3.10645,4.53344a2.287,2.287,0,0,0,2.1587,1.17542,3.02813,3.02813,0,0,0,.92382-.132Zm-3.9458-2.77051c1.5708,0,2.61426-1.42713,2.61426-3.66992,0-2.20679-1.04346-3.56214-2.61426-3.56214-1.58349,0-2.61474,1.35535-2.61474,3.56214C23.51346,31.41613,24.54471,32.84326,26.1282,32.84326Z"/><path class="cls-1" d="M37.81521,33.59887l-2.13476-3.73h-1.583v3.73H32.98172V24.80774h2.75879c1.78662,0,3.07031.63562,3.07031,2.47058a2.38472,2.38472,0,0,1-1.99121,2.4707l2.25488,3.84985Zm-3.71777-4.62951h1.4751c1.37891,0,2.13476-.55164,2.13476-1.691,0-1.16333-.75585-1.57117-2.13476-1.57117h-1.4751Z"/></g></g></svg>