<svg xmlns="http://www.w3.org/2000/svg" viewBox="0 0 63.70155 60.69593"><defs><style>.cls-1{fill:#fff;}.cls-2{fill:#17af05;}</style></defs><g id="レイヤー_2" data-name="レイヤー 2"><g id="MV"><path class="cls-1" d="M63.70155,25.8472C63.70155,11.595,49.41358,0,31.85052,0,14.28947,0,0,11.595,0,25.8472,0,38.62426,11.33111,49.32482,26.6372,51.348c1.03724.22373,2.449.68377,2.806,1.57067a6.542,6.542,0,0,1,.10306,2.8799s-.37357,2.24741-.45451,2.72656c-.13876.80494-.64,3.14938,2.75875,1.717C35.25031,58.80969,50.19339,49.44147,56.87581,41.75h-.0015c4.616-5.062,6.82724-10.19881,6.82724-15.90281"/><path class="cls-2" d="M25.37921,18.96007H23.14486a.62024.62024,0,0,0-.62043.61944V33.45763a.6198.6198,0,0,0,.62043.61891h2.23435a.61979.61979,0,0,0,.62042-.61891V19.57951a.62023.62023,0,0,0-.62042-.61944"/><path class="cls-2" d="M40.75673,18.96007H38.52288a.61991.61991,0,0,0-.62042.61944v8.245L31.5423,19.2356a.65127.65127,0,0,0-.04826-.06285l-.004-.004c-.01207-.01358-.02464-.02615-.03721-.03821L31.44125,19.12c-.01056-.00956-.02162-.01911-.03319-.02767l-.01608-.01256-.03218-.02213-.01861-.01105c-.01106-.00653-.02213-.01307-.03317-.01861l-.01961-.00954c-.01157-.005-.02314-.01057-.03571-.01508l-.02011-.007c-.01206-.00452-.02414-.00854-.0367-.01207l-.02162-.00553-.03569-.008-.02615-.00352c-.01055-.002-.02162-.003-.03268-.004l-.03218-.002-.02161-.001H28.7921a.62023.62023,0,0,0-.62042.61944V33.45763a.61979.61979,0,0,0,.62042.61891H31.026a.6199.6199,0,0,0,.62092-.61891V25.21511l6.36769,8.6a.61364.61364,0,0,0,.15737.15284l.00654.005c.01256.008.02514.01609.03822.02312l.01758.00956.02967.01458.03017.01256.0186.007c.01459.005.02815.00956.04224.01358l.00905.002a.60869.60869,0,0,0,.15887.02112h2.23385a.61947.61947,0,0,0,.62042-.61891V19.57951a.61991.61991,0,0,0-.62042-.61944"/><path class="cls-2" d="M19.9938,30.60165H13.92324V19.5798a.61991.61991,0,0,0-.61992-.61993H11.069a.62034.62034,0,0,0-.62043.61993V33.45743a.6155.6155,0,0,0,.17346.42836l.00854.00956.00905.00854a.616.616,0,0,0,.42837.173H19.9938a.61991.61991,0,0,0,.61942-.62043V31.22208a.61991.61991,0,0,0-.61942-.62043"/><path class="cls-2" d="M53.09437,22.43516a.61957.61957,0,0,0,.61942-.62041V19.58092a.62.62,0,0,0-.61942-.62094H44.16853a.61728.61728,0,0,0-.43037.175l-.007.00654-.01.01106a.61715.61715,0,0,0-.172.42736V33.45752a.61547.61547,0,0,0,.17346.42837l.00855.00955.00905.008a.61559.61559,0,0,0,.42836.17346h8.92584a.61991.61991,0,0,0,.61942-.62043V31.22218a.6199.6199,0,0,0-.61942-.62042H47.02431V28.25581h6.07006a.61958.61958,0,0,0,.61942-.62043V25.40155a.62.62,0,0,0-.61942-.62094H47.02431V22.43516Z"/></g></g></svg>