<svg xmlns="http://www.w3.org/2000/svg" viewBox="0 0 222.42522 64.23462"><defs><style>.cls-1{fill:#fff;}</style></defs><g id="レイヤー_2" data-name="レイヤー 2"><g id="top"><path class="cls-1" d="M48.56,21.62109a7.34948,7.34948,0,0,1-3.60352-.86132,6.10294,6.10294,0,0,1-2.42578-2.39063,6.93228,6.93228,0,0,1-.86133-3.46289,9.50779,9.50779,0,0,1,1.125-4.456,9.3043,9.3043,0,0,1,3.12891-3.48926A7.96036,7.96036,0,0,1,50.44085,5.625a7.42894,7.42894,0,0,1,3.73535.90527,6.20357,6.20357,0,0,1,2.43457,2.45215,7.07619,7.07619,0,0,1,.84375,3.44531,9.04155,9.04155,0,0,1-1.19531,4.50879,9.43385,9.43385,0,0,1-3.23438,3.40137A8.221,8.221,0,0,1,48.56,21.62109Zm-3.95508-6.76757a6.63982,6.63982,0,0,0,.47461,2.52246,4.41273,4.41273,0,0,0,1.37988,1.87207,3.40377,3.40377,0,0,0,2.15332.70312,4.31281,4.31281,0,0,0,2.90039-1.15137,8.01625,8.01625,0,0,0,2.0918-2.99707,9.86343,9.86343,0,0,0,.77344-3.84961,5.4671,5.4671,0,0,0-.50977-2.4082,3.91242,3.91242,0,0,0-1.4414-1.64355,3.96561,3.96561,0,0,0-2.16211-.58887,4.2814,4.2814,0,0,0-2.84766,1.11621A7.75036,7.75036,0,0,0,45.36077,11.294,8.8968,8.8968,0,0,0,44.60491,14.85352Z"/><path class="cls-1" d="M66.38421,5.625h.91406L64.67913,17.89453a2.51984,2.51984,0,0,0-.05274.49219q0,1.56481,2.30274,1.66992l-.22852,1.23047H58.73772l.334-1.19531a3.97813,3.97813,0,0,0,1.98633-.4834,2.6985,2.6985,0,0,0,1.08984-1.88965l1.8457-8.68359a3.79246,3.79246,0,0,0,.07031-.49219.458.458,0,0,0-.20214-.41309,1.54868,1.54868,0,0,0-.69434-.167q-.49218-.035-1.582-.03516l.26367-1.248Z"/><path class="cls-1" d="M83.892,17.01562a.56823.56823,0,0,1-.08789.22852c-.05957.10547-.14063.2522-.24609.43945q-1.14405,1.91621-2.75977,4.9043h-.791a.08447.08447,0,0,1-.0791-.05273.50612.50612,0,0,1-.03515-.17578c-.00684-.08216-.00879-.13489-.00879-.15821a2.17562,2.17562,0,0,0-.14063-.67676.446.446,0,0,0-.457-.2373H70.23382a1.7231,1.7231,0,0,1-.75586-.10547c-.11719-.07031-.17578-.13452-.17578-.19336a1.19069,1.19069,0,0,1,.334-.59766,6.60252,6.60252,0,0,1,.80859-.80859l6.22266-4.623.4043-.3164a18.81422,18.81422,0,0,0,2.62793-2.25A3.641,3.641,0,0,0,80.851,9.84375a2.06247,2.06247,0,0,0-.74707-1.749,2.77454,2.77454,0,0,0-1.73144-.57129,5.96258,5.96258,0,0,0-2.69824.75586A10.3616,10.3616,0,0,0,73.20452,10.002a.89884.89884,0,0,1-.61523.31641.48926.48926,0,0,1-.42188-.22852.9635.9635,0,0,1-.1582-.5625A1.28347,1.28347,0,0,1,72.519,8.47266a15.31065,15.31065,0,0,1,3.27832-2.06543,8.25035,8.25035,0,0,1,3.48926-.79981,5.76626,5.76626,0,0,1,3.42774.93164,3.3449,3.3449,0,0,1,1.30078,2.918,4.3886,4.3886,0,0,1-.77344,2.47852,9.25319,9.25319,0,0,1-1.86328,2.04785q-1.09131.88788-2.8125,2.06543-.84375.5451-1.582,1.10742l-3.58594,2.03906H80.06a1.888,1.888,0,0,0,1.2832-.41308,5.92935,5.92935,0,0,0,.9668-1.13379c.15137-.22241.26953-.38367.35156-.4834a.34353.34353,0,0,1,.26367-.14942Z"/><path class="cls-1" d="M94.98382,21.62109a7.34945,7.34945,0,0,1-3.60352-.86132,6.10294,6.10294,0,0,1-2.42578-2.39063,6.93228,6.93228,0,0,1-.86133-3.46289,9.50779,9.50779,0,0,1,1.125-4.456A9.3043,9.3043,0,0,1,92.3471,6.96094,7.96036,7.96036,0,0,1,96.86468,5.625,7.429,7.429,0,0,1,100.6,6.53027a6.20363,6.20363,0,0,1,2.43457,2.45215,7.07619,7.07619,0,0,1,.84375,3.44531,9.04165,9.04165,0,0,1-1.19531,4.50879,9.43393,9.43393,0,0,1-3.23438,3.40137A8.221,8.221,0,0,1,94.98382,21.62109Zm-3.95508-6.76757a6.63982,6.63982,0,0,0,.47461,2.52246,4.41257,4.41257,0,0,0,1.37988,1.87207,3.40377,3.40377,0,0,0,2.15332.70312,4.31281,4.31281,0,0,0,2.90039-1.15137,8.01625,8.01625,0,0,0,2.0918-2.99707,9.86361,9.86361,0,0,0,.77344-3.84961,5.46724,5.46724,0,0,0-.50977-2.4082A3.91237,3.91237,0,0,0,98.851,7.90137a3.96559,3.96559,0,0,0-2.16211-.58887,4.28138,4.28138,0,0,0-2.84765,1.11621A7.75013,7.75013,0,0,0,91.7846,11.294,8.8968,8.8968,0,0,0,91.02874,14.85352Z"/><path class="cls-1" d="M114.68889,14.959h-7.418q.123-.68554.30761-1.35351.18457-.66779.30762-.668h7.45313Q114.93353,14.95917,114.68889,14.959Z"/><path class="cls-1" d="M121.72014,15.39844l-.19335.03515a1.06287,1.06287,0,0,0-.15821.00879.61425.61425,0,0,1-.10547.00879,1.86058,1.86058,0,0,1-.60644-.07031.31462.31462,0,0,1-.18457-.334,1.50323,1.50323,0,0,1,.05273-.35157l2.42578-8.543a.82138.82138,0,0,1,.23731-.43945,1.138,1.138,0,0,1,.55371-.08789q.334,0,1.125.08789a37.39717,37.39717,0,0,0,4.20117.24609,1.5154,1.5154,0,0,0,.89649-.27246,2.76579,2.76579,0,0,0,.624-.58886,1.85928,1.85928,0,0,0,.2373-.35157h.91407l-.668,2.77735a1.38435,1.38435,0,0,1-.4043.76465,1.37173,1.37173,0,0,1-.74707.29,14.763,14.763,0,0,1-1.48535.05274h-4.57031q-.36915,0-.52735.54492-.05272.22871-.43945,1.51172l-.49219,1.74023-.10547.4043h.87891a8.0048,8.0048,0,0,1,3.4541.65918,4.495,4.495,0,0,1,2.02148,1.75781,4.80636,4.80636,0,0,1,.64161,2.46973,5.87636,5.87636,0,0,1-1.14258,3.31348,8.95531,8.95531,0,0,1-3.12012,2.77734,8.77545,8.77545,0,0,1-4.333,1.09863,4.344,4.344,0,0,1-1.87207-.34277,2.30494,2.30494,0,0,1-1.01074-.835,1.93884,1.93884,0,0,1-.29883-1.01953,1.30728,1.30728,0,0,1,1.35352-1.33594,2.32139,2.32139,0,0,1,1.23047.39551,7.79334,7.79334,0,0,1,1.56445,1.46777q0,.05274.22852.05274a5.51512,5.51512,0,0,0,2.65429-.61524,4.53106,4.53106,0,0,0,1.749-1.59082,3.76357,3.76357,0,0,0,.60644-2.01269,3.64824,3.64824,0,0,0-.4834-1.84571,3.47842,3.47842,0,0,0-1.47656-1.35351,5.28848,5.28848,0,0,0-2.43457-.50977Q122.24749,15.36328,121.72014,15.39844Z"/><path class="cls-1" d="M147.894,19.8457h-4.18359l-1.23047,5.80078H139.5971l1.30078-5.80078-7.45313.01758a1.69616,1.69616,0,0,1-.93164-.19336.57763.57763,0,0,1-.28125-.49219,1.828,1.828,0,0,1,.59766-1.125l10.33594-11.0039.29883-.31641a5.43193,5.43193,0,0,1,.52734-.52734.98753.98753,0,0,1,.39551-.19336,3.0462,3.0462,0,0,1,.65918-.05274h1.86328l-2.84766,12.0586H148.351Zm-4.2539-11.5664-9.2461,9.75586h6.90821Z"/><path class="cls-1" d="M153.87054,15.39844l-.19336.03515a1.06287,1.06287,0,0,0-.15821.00879.61425.61425,0,0,1-.10547.00879,1.86063,1.86063,0,0,1-.60644-.07031.31462.31462,0,0,1-.18457-.334,1.50323,1.50323,0,0,1,.05273-.35157l2.42578-8.543a.82138.82138,0,0,1,.23731-.43945A1.138,1.138,0,0,1,155.892,5.625q.334,0,1.125.08789a37.3973,37.3973,0,0,0,4.20117.24609,1.51538,1.51538,0,0,0,.89649-.27246,2.76579,2.76579,0,0,0,.624-.58886,1.85928,1.85928,0,0,0,.2373-.35157h.91407l-.668,2.77735a1.38435,1.38435,0,0,1-.4043.76465,1.37173,1.37173,0,0,1-.74707.29,14.763,14.763,0,0,1-1.48535.05274h-4.57031q-.36915,0-.52735.54492-.05272.22871-.43945,1.51172l-.49219,1.74023-.10547.4043h.87891a8.00477,8.00477,0,0,1,3.4541.65918,4.495,4.495,0,0,1,2.02149,1.75781,4.80646,4.80646,0,0,1,.6416,2.46973,5.87636,5.87636,0,0,1-1.14258,3.31348,8.95531,8.95531,0,0,1-3.12012,2.77734,8.77545,8.77545,0,0,1-4.333,1.09863,4.344,4.344,0,0,1-1.87207-.34277,2.30494,2.30494,0,0,1-1.01074-.835,1.93884,1.93884,0,0,1-.29883-1.01953,1.30728,1.30728,0,0,1,1.35352-1.33594,2.32139,2.32139,0,0,1,1.23047.39551,7.79334,7.79334,0,0,1,1.56445,1.46777q0,.05274.22852.05274a5.51512,5.51512,0,0,0,2.65429-.61524,4.53106,4.53106,0,0,0,1.749-1.59082,3.76357,3.76357,0,0,0,.60644-2.01269,3.64824,3.64824,0,0,0-.4834-1.84571,3.47842,3.47842,0,0,0-1.47656-1.35351,5.28848,5.28848,0,0,0-2.43457-.50977Q154.39788,15.36328,153.87054,15.39844Z"/><path class="cls-1" d="M174.08538,14.959h-7.418q.123-.68554.30762-1.35351.18456-.66779.30761-.668h7.45313Q174.33,14.95917,174.08538,14.959Z"/><path class="cls-1" d="M192.08538.63281a.75506.75506,0,0,1-.457.68555,20.77038,20.77038,0,0,0-5.25586,3.832,18.03679,18.03679,0,0,0-3.46289,5.25586,7.55612,7.55612,0,0,1,2.43457-2.23242A5.59066,5.59066,0,0,1,188.06,7.43555a3.94284,3.94284,0,0,1,2.13574.65039,4.901,4.901,0,0,1,1.66992,1.81054,5.32055,5.32055,0,0,1,.6416,2.61914,9.61935,9.61935,0,0,1-1.05468,4.333,9.59962,9.59962,0,0,1-2.8125,3.44532,6.08328,6.08328,0,0,1-3.72657,1.32714,6.42033,6.42033,0,0,1-3.43652-.835,4.91313,4.91313,0,0,1-1.96-2.23242,7.66194,7.66194,0,0,1-.61523-3.12012,13.835,13.835,0,0,1,1.70507-6.40722,19.5169,19.5169,0,0,1,4.50879-5.73047A14.52992,14.52992,0,0,1,191.04827.03516,1.51314,1.51314,0,0,1,191.32952,0a.79022.79022,0,0,1,.55371.18457A.588.588,0,0,1,192.08538.63281ZM181.644,16.68164a3.913,3.913,0,0,0,.72071,2.46094,2.60328,2.60328,0,0,0,2.19726.93164,3.39722,3.39722,0,0,0,2.43457-1.17774,8.72917,8.72917,0,0,0,1.8457-2.94433,9.20209,9.20209,0,0,0,.69434-3.36621,3.995,3.995,0,0,0-.65918-2.39063,2.31685,2.31685,0,0,0-2.01269-.91406,3.66961,3.66961,0,0,0-2.5752,1.16016,8.456,8.456,0,0,0-1.9248,2.90039A8.71966,8.71966,0,0,0,181.644,16.68164Z"/><path class="cls-1" d="M192.894,22.48242a2.28617,2.28617,0,0,1,.791.123,2.75458,2.75458,0,0,1,.791.51855,13.84556,13.84556,0,0,1,1.17774,1.2041,5.56814,5.56814,0,0,0,.84375.05274,4.45772,4.45772,0,0,0,2.45215-.668,4.51528,4.51528,0,0,0,1.6084-1.75781,4.91638,4.91638,0,0,0,.5625-2.28516,4.68709,4.68709,0,0,0-.87891-2.75976,4.75328,4.75328,0,0,0-2.584-1.77539,14.63834,14.63834,0,0,0,3.50684-2.39063,4.22291,4.22291,0,0,0,1.59082-3.11133,2.28678,2.28678,0,0,0-.60644-1.7666A2.26749,2.26749,0,0,0,200.558,7.3125a5.57657,5.57657,0,0,0-2.25879.53613,6.2376,6.2376,0,0,0-1.88965,1.22168.92571.92571,0,0,1-.65039.31641.45212.45212,0,0,1-.47461-.47461,1.108,1.108,0,0,1,.3164-.70313,7.19153,7.19153,0,0,1,2.55762-1.96,7.82881,7.82881,0,0,1,3.19043-.624,5.77854,5.77854,0,0,1,2.25.41309A3.56318,3.56318,0,0,1,205.13714,7.207a2.89531,2.89531,0,0,1,.55371,1.75781,4.37426,4.37426,0,0,1-1.32715,2.918,14.274,14.274,0,0,1-3.876,2.8125,7.08473,7.08473,0,0,1,2.751,2.00391,3.961,3.961,0,0,1,.87012,2.44336,5.2276,5.2276,0,0,1-1.11621,3.14648,8.059,8.059,0,0,1-3.041,2.44336,9.45676,9.45676,0,0,1-4.1748.93164,8.70043,8.70043,0,0,1-2.47852-.29,3.146,3.146,0,0,1-1.35352-.71191,1.23633,1.23633,0,0,1-.40429-.84375,1.30728,1.30728,0,0,1,1.35351-1.33594Z"/><path class="cls-1" d="M209.22405,26.61328a.75506.75506,0,0,1,.457-.68555,20.94878,20.94878,0,0,0,5.26465-3.832,17.74231,17.74231,0,0,0,3.4541-5.23828,7.662,7.662,0,0,1-2.44336,2.22363,5.59181,5.59181,0,0,1-2.707.7295,3.897,3.897,0,0,1-2.12695-.65039,4.91774,4.91774,0,0,1-1.66113-1.81055,5.31956,5.31956,0,0,1-.64161-2.61914,9.62054,9.62054,0,0,1,1.05469-4.333,9.59567,9.59567,0,0,1,2.8125-3.44531A6.08133,6.08133,0,0,1,216.4135,5.625,6.4227,6.4227,0,0,1,219.85,6.46a4.92058,4.92058,0,0,1,1.96,2.23242,7.66335,7.66335,0,0,1,.61523,3.12012,13.84459,13.84459,0,0,1-1.70508,6.40723,19.37964,19.37964,0,0,1-4.52636,5.73047,14.66436,14.66436,0,0,1-5.9502,3.26074,1.49272,1.49272,0,0,1-.26367.03515.7902.7902,0,0,1-.55371-.18457A.58465.58465,0,0,1,209.22405,26.61328Zm10.459-16.04883a3.91367,3.91367,0,0,0-.72071-2.46093,2.6272,2.6272,0,0,0-2.21484-.93164,3.39526,3.39526,0,0,0-2.43457,1.17773A8.59685,8.59685,0,0,0,212.476,11.294a9.30583,9.30583,0,0,0-.68554,3.36621,4.0339,4.0339,0,0,0,.65039,2.39062,2.29141,2.29141,0,0,0,2.0039.91406,3.70072,3.70072,0,0,0,2.584-1.16015,8.40567,8.40567,0,0,0,1.93359-2.90039A8.71832,8.71832,0,0,0,219.683,10.56445Z"/><path class="cls-1" d="M17.7885,31.08765V46.087h-.62988V31.08765Z"/><path class="cls-1" d="M38.53362,39.14233a9.3441,9.3441,0,0,1-3.43506,3.76477,19.13719,19.13719,0,0,0,5.54981,1.455,4.2374,4.2374,0,0,0-.67481,1.035,17.52081,17.52081,0,0,1-5.98486-1.86,20.1615,20.1615,0,0,1-6.04492,1.86,4.20483,4.20483,0,0,0-.65967-.99,20.7344,20.7344,0,0,0,5.63965-1.5A10.6097,10.6097,0,0,1,29.894,39.81726l.14991-.05994h-.645v-1.035h8.1748l.2251-.04492Zm-9.88476-.06005H27.59905v-3.0448h2.38477a10.58354,10.58354,0,0,0-.98975-1.98l.96-.27a8.842,8.842,0,0,1,1.06494,1.965l-.88525.285h6.5249a18.55082,18.55082,0,0,0,1.395-2.54993l1.125.345c-.40527.735-.93018,1.54492-1.37988,2.205H40.3637v3.0448H39.26848V37.02747H28.64886Zm10.87451-6.49476a78.82507,78.82507,0,0,1-11.51953,1.155,3.37755,3.37755,0,0,0-.25489-.94494,78.43719,78.43719,0,0,0,10.99463-1.11ZM31.079,39.75732A8.803,8.803,0,0,0,34.019,42.33716a8.16946,8.16946,0,0,0,2.84961-2.57984Zm2.62451-3.80993a8.703,8.703,0,0,0-.75-2.20484l1.00537-.225a9.01562,9.01562,0,0,1,.79493,2.17492Z"/><path class="cls-1" d="M48.50872,32.18262a23.51126,23.51126,0,0,1-1.58984,3.26989v9.94458H45.809V37.17737a15.60477,15.60477,0,0,1-1.51513,1.81494,8.78325,8.78325,0,0,0-.69-1.095A16.67484,16.67484,0,0,0,47.414,31.83765Zm8.71484,3.98987H55.33343v7.73962c0,.84-.23975,1.18494-.79493,1.35a12.91754,12.91754,0,0,1-3.21.17994,5.06493,5.06493,0,0,0-.43457-1.095c1.25977.045,2.48975.045,2.84961.03.33008-.03.46485-.12.46485-.465V36.17249H48.164v-1.11h6.04444V31.9126h1.125v3.1499h1.89013Zm-5.93994,5.75976c-.44971-.93005-1.40967-2.53491-2.1748-3.73486l.96-.45c.77978,1.1549,1.77,2.71484,2.25,3.62976Z"/><path class="cls-1" d="M64.91888,42.5022h-3.2251v1.215H60.67425V32.72253h4.24463Zm-3.2251-8.77466v3.32983h2.17529V33.72754Zm2.17529,7.76965V38.03235H61.69378v3.46484Zm8.11426-4.09485v1.69495h1.74023v.99H71.98333v4.01978c0,.63-.16455.96-.61475,1.125a8.57775,8.57775,0,0,1-2.42969.18005,3.41655,3.41655,0,0,0-.36035-1.035c.93018.03,1.75489.03,1.99512.015.25488-.015.33008-.075.33008-.29993V40.08728H65.23382v-.99h5.66992V37.40234H65.15862v-.98986h3.76514v-1.905H65.80364v-.98987h3.12012V31.73267h1.09472v1.78491h3.2251v.98987h-3.2251v1.905H73.8886v.98986Zm-4.93457,3.21a10.5898,10.5898,0,0,1,1.9497,2.54981l-.94482.6a11.57461,11.57461,0,0,0-1.90478-2.63989Z"/><path class="cls-1" d="M78.47893,37.49243V45.442H77.36907V32.37756h5.41455v5.11487Zm0-4.24487v1.245h3.23975v-1.245Zm3.23975,3.38989V35.3175H78.47893v1.31995Zm-.04492,7.40967v.75H80.66888V38.61731h5.56494v5.42981Zm0-4.57483v1.395h3.5249v-1.395Zm3.5249,3.68982v-1.455h-3.5249v1.455Zm4.46973.795c0,.705-.165,1.08-.65967,1.27491a8.535,8.535,0,0,1-2.52.19506,4.10355,4.10355,0,0,0-.39014-1.14c.915.045,1.83008.03,2.1001.015.25488,0,.34473-.09.34473-.36V37.50745H84.11858V32.37756h5.54981ZM85.18352,33.24756v1.245h3.35987v-1.245Zm3.35987,3.40491v-1.335H85.18352v1.335Z"/><path class="cls-1" d="M106.5136,31.59766l.44971.44995L93.434,45.577l-.45019-.45Z"/><path class="cls-1" d="M110.59417,42.5022a2.48024,2.48024,0,0,0,1.84472.84c1.42481,0,2.65479-1.16992,2.75977-4.58984a3.38905,3.38905,0,0,1-2.53467,1.365c-1.83008,0-3.02978-1.18494-3.02978-3.46484a3.30137,3.30137,0,0,1,3.1499-3.56995c2.11475,0,3.68945,1.74,3.68945,5.23486,0,4.45484-1.91992,6.16468-3.98974,6.16468a3.49734,3.49734,0,0,1-2.63965-1.12488Zm4.58984-4.87488c-.15039-2.26489-.99023-3.46484-2.3999-3.46484-1.05029,0-1.86035.99-1.86035,2.49,0,1.48486.66015,2.44482,1.96533,2.44482A2.90625,2.90625,0,0,0,115.184,37.62732Z"/><path class="cls-1" d="M119.89348,37.40234a.991.991,0,1,1,.99024,1.035A1.00823,1.00823,0,0,1,119.89348,37.40234Zm0,6.0448a.99263.99263,0,1,1,1.98,0,.991.991,0,1,1-1.98,0Z"/><path class="cls-1" d="M125.20354,38.75232c0-3.82483,1.335-5.6698,3.43506-5.6698,2.085,0,3.41992,1.86,3.41992,5.6698,0,3.82483-1.335,5.72974-3.41992,5.72974C126.5385,44.48206,125.20354,42.57715,125.20354,38.75232Zm5.52,0c0-3.20984-.84033-4.55982-2.085-4.55982-1.26025,0-2.1001,1.35-2.1001,4.55982,0,3.23987.83985,4.63476,2.1001,4.63476C129.88323,43.38708,130.72356,41.99219,130.72356,38.75232Z"/><path class="cls-1" d="M135.02825,38.75232c0-3.82483,1.335-5.6698,3.43506-5.6698,2.085,0,3.41992,1.86,3.41992,5.6698,0,3.82483-1.335,5.72974-3.41992,5.72974C136.36321,44.48206,135.02825,42.57715,135.02825,38.75232Zm5.52,0c0-3.20984-.84033-4.55982-2.085-4.55982-1.26026,0-2.1001,1.35-2.1001,4.55982,0,3.23987.83984,4.63476,2.1001,4.63476C139.70794,43.38708,140.54827,41.99219,140.54827,38.75232Z"/><path class="cls-1" d="M144.808,39.56226h3.83984v1.05H144.808Z"/><path class="cls-1" d="M152.14251,43.14709h2.44482V34.9425h-1.9497v-.87a6.96453,6.96453,0,0,0,2.27978-.77991h1.05029v9.85449h2.20459v1.14h-6.02978Z"/><path class="cls-1" d="M166.707,34.46252h-5.32471V33.2926H168.267v.825c-2.58008,3.31482-3.05957,5.86475-3.22461,10.16956h-1.42529C163.79729,40.11731,164.56243,37.4624,166.707,34.46252Z"/><path class="cls-1" d="M171.56634,37.40234a.991.991,0,1,1,.99023,1.035A1.00822,1.00822,0,0,1,171.56634,37.40234Zm0,6.0448a.99263.99263,0,1,1,1.98,0,.991.991,0,1,1-1.98,0Z"/><path class="cls-1" d="M176.57659,42.98218l.68994-.9a3.63473,3.63473,0,0,0,2.73,1.26,2.02457,2.02457,0,0,0,2.23487-2.03991c0-1.31995-.88526-2.205-3.41993-2.205V38.04736c2.26465,0,3.04493-.91491,3.04493-2.1a1.718,1.718,0,0,0-1.85987-1.7699,3.43164,3.43164,0,0,0-2.28027,1.095l-.73486-.87a4.40339,4.40339,0,0,1,3.07519-1.31995c1.84473,0,3.19482.99,3.19482,2.75989a2.74062,2.74062,0,0,1-1.96484,2.6549v.06006a2.82723,2.82723,0,0,1,2.33984,2.78992c0,1.96484-1.57519,3.13477-3.5249,3.13477A4.55122,4.55122,0,0,1,176.57659,42.98218Z"/><path class="cls-1" d="M186.7011,38.75232c0-3.82483,1.335-5.6698,3.43506-5.6698,2.085,0,3.41992,1.86,3.41992,5.6698,0,3.82483-1.335,5.72974-3.41992,5.72974C188.03606,44.48206,186.7011,42.57715,186.7011,38.75232Zm5.52,0c0-3.20984-.84033-4.55982-2.085-4.55982-1.26025,0-2.1001,1.35-2.1001,4.55982,0,3.23987.83985,4.63476,2.1001,4.63476C191.38079,43.38708,192.22112,41.99219,192.22112,38.75232Z"/><path class="cls-1" d="M203.6054,31.08765V46.087h-.62988V31.08765Z"/><path class="cls-1" d="M78.516,61.46411H74.17473v2.74646h-.89941V61.46411h-5.541v-.86352h1.9668V57.38635h3.57422v-1.823H70.36077A11.06747,11.06747,0,0,1,68.53753,57.926a5.50825,5.50825,0,0,0-.76758-.5636,10.15229,10.15229,0,0,0,2.69873-4.13782l.89941.21594c-.168.41968-.35986.85156-.55175,1.25928h7.148v.86352H74.17473v1.823h3.51416v.8396H74.17473v2.37464H78.516Zm-5.24072-.86352V58.226H70.5888v2.37464Z"/><path class="cls-1" d="M87.32659,59.1134a12.25766,12.25766,0,0,0,4.53369,3.62207,4.21479,4.21479,0,0,0-.65967.77954,13.77474,13.77474,0,0,1-4.4375-3.86193v4.54553h-.92334V59.713a13.18258,13.18258,0,0,1-4.38964,3.814,5.511,5.511,0,0,0-.64795-.75562,11.70139,11.70139,0,0,0,4.50976-3.658H81.726v-.87548h4.11377V56.151H81.11419v-.87549h4.72558V53.24866h.92334v2.02685h4.80957V56.151H86.76311v2.08692h4.19776v.87548Z"/><path class="cls-1" d="M104.916,61.46411h-4.34131v2.74646h-.89942V61.46411h-5.541v-.86352H96.101V57.38635h3.57422v-1.823H96.76067A11.06747,11.06747,0,0,1,94.93743,57.926a5.47934,5.47934,0,0,0-.76758-.5636,10.14725,10.14725,0,0,0,2.69873-4.13782l.89942.21594c-.168.41968-.35987.85156-.55176,1.25928h7.14844v.86352h-3.79v1.823h3.51416v.8396h-3.51416v2.37464H104.916Zm-5.24073-.86352V58.226H96.9887v2.37464Z"/><path class="cls-1" d="M111.72405,55.80322a15.8222,15.8222,0,0,1-1.11572,5.21717,8.77314,8.77314,0,0,1,1.39111,1.29528l-.53955.70765a9.14869,9.14869,0,0,0-1.23535-1.21143,6.529,6.529,0,0,1-2.31445,2.42273,3.97538,3.97538,0,0,0-.55176-.71961,5.2741,5.2741,0,0,0,2.1709-2.25476c-.396-.29992-.82764-.59973-1.23535-.85156l-.14405.51575-.74365-.39575c.2998-1.01953.65967-2.49463,1.00732-3.98194h-1.12744v-.82751h1.30762c.19189-.87549.35986-1.727.50342-2.47058l.85156.09594c-.14355.73157-.32373,1.54712-.51562,2.37464h1.59521l.15576-.02393Zm-2.4707.74353c-.252,1.06751-.51563,2.12293-.75586,3.05835.45605.26392.94775.56372,1.40332.88758a13.961,13.961,0,0,0,.91162-3.94593Zm2.53027.8396.94776-.048a30.42058,30.42058,0,0,0,1.37939-4.08972l.97119.20385c-.41992,1.22339-.97119,2.72254-1.4751,3.8379.9834-.05994,2.09864-.132,3.21436-.20386a14.35335,14.35335,0,0,0-1.0918-1.63111l.71973-.35986a13.60831,13.60831,0,0,1,1.91894,3.19031l-.76757.43176a6.56143,6.56143,0,0,0-.35987-.85156c-1.94287.14392-3.9458.2998-5.36084.38379Zm.81592,1.991h5.085V64.1626h-.88721v-.4917H113.4511v.53967h-.85156Zm.85156.81543v2.67456h3.34619V60.19275Z"/><path class="cls-1" d="M125.955,61.668c.03564-.45569.04785-1.22327.04785-1.84693-1.10352.59961-1.87109,1.21131-1.87109,1.99085,0,.93555.92334,1.06738,2.147,1.06738a20.90891,20.90891,0,0,0,3.23828-.28784l-.02393.97156a30.59717,30.59717,0,0,1-3.25048.19189c-1.70313,0-3.07032-.35986-3.07032-1.811,0-1.4032,1.41553-2.29077,2.79444-3.01038a1.00423,1.00423,0,0,0-1.06739-.73157,3.16192,3.16192,0,0,0-2.05078.87549c-.33593.32386-.67138.76758-1.07959,1.24732l-.81543-.6117a12.55725,12.55725,0,0,0,2.73438-3.62195h-.4917c-.50342,0-1.30713-.024-1.95459-.07189v-.89954c.63525.0719,1.46289.11987,2.00293.11987.25146,0,.50342,0,.7793-.012a6.42935,6.42935,0,0,0,.2998-1.47522l.9834.084c-.084.33582-.1919.82752-.35986,1.36719a31.87045,31.87045,0,0,0,3.63427-.35974l-.0122.88757a36.67632,36.67632,0,0,1-3.9336.3357,8.53789,8.53789,0,0,1-1.06738,1.823,3.36894,3.36894,0,0,1,1.64307-.44372,1.49329,1.49329,0,0,1,1.57128,1.07947c.81543-.38379,1.53516-.67163,2.1587-.95948.35986-.156.64746-.2998.98339-.46777l.38379.89954c-.2998.08386-.73144.25183-1.04345.3717-.67188.26392-1.52344.6117-2.42286,1.0315.01221.68359.02393,1.691.03614,2.26672Z"/><path class="cls-1" d="M136.61175,54.07617c-.35987.98352-.79151,2.20679-1.1875,3.1543a3.7076,3.7076,0,0,1,1.06738,2.56653,1.63846,1.63846,0,0,1-.46777,1.36731,1.289,1.289,0,0,1-.62354.21582,5.809,5.809,0,0,1-.80322.024,1.80761,1.80761,0,0,0-.228-.79162,3.45229,3.45229,0,0,0,.69531.01208.72513.72513,0,0,0,.38379-.09594,1.05655,1.05655,0,0,0,.24024-.81568,3.38289,3.38289,0,0,0-1.06739-2.37463c.34766-.87549.69532-1.943.94727-2.75842H133.997v9.61865h-.7915V53.76428H135.892l.144-.03589Zm1.835,6.50037a8.81448,8.81448,0,0,1-1.73926,2.87842,5.586,5.586,0,0,0-.64746-.52759,6.81142,6.81142,0,0,0,1.59521-2.53064Zm1.835-7.292a10.994,10.994,0,0,0,3.52637,3.3103,4.00379,4.00379,0,0,0-.49219.74353,12.19819,12.19819,0,0,1-3.39405-3.25025,11.14545,11.14545,0,0,1-3.31,3.31019,3.44027,3.44027,0,0,0-.4795-.69556,9.71374,9.71374,0,0,0,3.35791-3.41821Zm.07226,6.46447v3.44214c0,.46778-.084.71961-.396.85156a4.18816,4.18816,0,0,1-1.54737.15589,3.264,3.264,0,0,0-.2998-.82752c.564.02393,1.05566.012,1.21143.012s.2041-.048.2041-.1919V59.749h-2.65088v-.76757h2.65088V57.49426h-1.84717v-.76758h4.60547v.76758h-1.93067v1.48719h2.86621V59.749Zm1.5708.62366a14.65009,14.65009,0,0,1,1.667,2.62659l-.73145.39575a15.13514,15.13514,0,0,0-1.61914-2.71045Z"/><path class="cls-1" d="M152.17376,54.47192c-.26367.1919-.62354.50379-.81543.67163-.82764.70765-2.53076,2.07483-3.40625,2.79456-.71924.62354-.71924.80347.04834,1.43921,1.0791.86352,3.27392,2.68652,4.4375,3.83789l-.86377.77954c-.23975-.28784-.56348-.58765-.81543-.86352-.64746-.69568-2.62647-2.38672-3.7417-3.29822-1.11572-.93543-.99561-1.47522.084-2.37464.88721-.75561,2.68653-2.17089,3.48975-2.98645a5.51735,5.51735,0,0,0,.68359-.7915Z"/><path class="cls-1" d="M0,4.19579V7.38031A18.35418,18.35418,0,0,1,6.6959,8.63182q.55286.21842,1.07227.46834a16.96851,16.96851,0,0,1,2.53427-.9711,18.63379,18.63379,0,0,1,5.26224-.74875,18.36189,18.36189,0,0,1,6.72478,1.25151q.55286.21842,1.072.46834a16.98119,16.98119,0,0,1,2.53451-.9711,18.643,18.643,0,0,1,5.23366-.74875V4.19579Z"/><path class="cls-1" d="M19.49187,16.27189A3.87014,3.87014,0,0,0,25.52433,19.481a3.86206,3.86206,0,0,0,1.7069-3.20908,3.30177,3.30177,0,0,0-.24861-1.21667,5.36266,5.36266,0,0,0-.77-1.31249,9.784,9.784,0,0,0-2.85145-2.37661,10.52011,10.52011,0,0,0-2.34129,1.79013,5.81445,5.81445,0,0,0-1.33243,2.03991A3.23083,3.23083,0,0,0,19.49187,16.27189Z"/><path class="cls-1" d="M27.14933,11.76515a7.80594,7.80594,0,0,1,1.77852,2.76354,5.23931,5.23931,0,0,1,.30978,1.74319,5.87617,5.87617,0,1,1-11.75234,0,5.57312,5.57312,0,0,1,.67391-2.57615,8.7619,8.7619,0,0,1,1.77481-2.2873,12.21292,12.21292,0,0,1,1.27218-1.04089c-.30716-.11254-.62253-.21809-.94647-.314a16.64567,16.64567,0,0,0-4.6951-.66685,16.41579,16.41579,0,0,0-5.64218.98034,11.76939,11.76939,0,0,1,1.63358,1.3981,7.81112,7.81112,0,0,1,1.77827,2.76354,5.23326,5.23326,0,0,1,.31,1.74319,5.87617,5.87617,0,1,1-11.75233,0,5.57557,5.57557,0,0,1,.67342-2.57615,8.76387,8.76387,0,0,1,1.7753-2.2873,12.17915,12.17915,0,0,1,1.272-1.04089c-.30747-.11254-.62235-.21809-.94648-.314A16.653,16.653,0,0,0,0,9.38671v15.234H31.1296V9.38671a16.42,16.42,0,0,0-5.6136.98034A11.764,11.764,0,0,1,27.14933,11.76515Z"/><path class="cls-1" d="M3.89837,16.27189A3.87014,3.87014,0,0,0,9.93083,19.481,3.86341,3.86341,0,0,0,11.63791,16.272a3.31155,3.31155,0,0,0-.24861-1.21667,5.37985,5.37985,0,0,0-.76991-1.31249,9.79259,9.79259,0,0,0-2.8517-2.37661,10.51123,10.51123,0,0,0-2.341,1.79013,5.81445,5.81445,0,0,0-1.33243,2.03991A3.22711,3.22711,0,0,0,3.89837,16.27189Z"/></g></g></svg>