<svg xmlns="http://www.w3.org/2000/svg" viewBox="0 0 275.2564 115.63184"><defs><style>.cls-1{fill:#fff;}</style></defs><g id="レイヤー_2" data-name="レイヤー 2"><g id="MV"><path class="cls-1" d="M63.87457,47.33838a11.3014,11.3014,0,0,0-.61622,1.36377,23.5672,23.5672,0,0,1-3.124,6.31543c.81445.52783,1.5625,1.01172,2.11231,1.4082l-1.54,2.02393c-.52832-.43994-1.25391-.96826-2.09082-1.54A20.86445,20.86445,0,0,1,50.233,62.6084l-2.002-1.76026a18.75422,18.75422,0,0,0,8.4707-5.21484c-1.62793-1.05615-3.32226-2.09033-4.51074-2.75049l1.45215-1.6499c1.23242.63818,2.92676,1.606,4.5332,2.57422A18.26424,18.26424,0,0,0,60.772,48.46045h-6.9961a24.25066,24.25066,0,0,1-5.78711,5.7207L46.09625,52.751a19.80883,19.80883,0,0,0,7.041-7.50293,7.752,7.752,0,0,0,.83594-1.98047l2.50879.792c-.418.66016-.90235,1.49658-1.12207,1.93652l-.26465.48389H60.442a5.12925,5.12925,0,0,0,1.65039-.2417Z"/><path class="cls-1" d="M75.2691,54.70947l-2.08985.77a44.86363,44.86363,0,0,0-2.00293-5.0166l2.06836-.748C73.75152,50.72656,74.85113,53.521,75.2691,54.70947Zm11.13379-4.73095a12.15414,12.15414,0,0,0-.418,1.32031,17.70129,17.70129,0,0,1-3.08008,6.623,17.24024,17.24024,0,0,1-7.23926,5.3247L73.83941,61.376a14.99123,14.99123,0,0,0,7.2168-4.64258A15.27247,15.27247,0,0,0,83.983,49.2085Zm-6.27051,3.36669-2.06836.748a40.3867,40.3867,0,0,0-1.76074-4.84082l2.06836-.68213C78.76812,49.49463,79.84625,52.377,80.13238,53.34521Z"/><path class="cls-1" d="M106.29058,46.106a6.98416,6.98416,0,0,0,.92383-.044,2.73177,2.73177,0,0,1-.06543-.59424,2.541,2.541,0,1,1,2.53027,2.53028,2.40076,2.40076,0,0,1-.57226-.06543l-.11035.418a22.018,22.018,0,0,1-3.29981,8.07519,17.11938,17.11938,0,0,1-8.73535,5.96289L95.0689,60.32031a14.62688,14.62688,0,0,0,8.60352-5.23681,15.4088,15.4088,0,0,0,2.75-6.75538H95.61871c-.94629,0-1.82618.04444-2.376.06641V45.95215a19.93541,19.93541,0,0,0,2.376.15381Zm4.77442-.63819a1.375,1.375,0,0,0-2.75,0,1.375,1.375,0,0,0,2.75,0Z"/><path class="cls-1" d="M117.48687,46.58984c1.584-.1538,5.47852-.52783,9.4834-.85791,2.30957-.19775,4.50976-.33007,5.98437-.374l.02246,2.22217a20.91692,20.91692,0,0,0-4.24707.3081,7.2036,7.2036,0,0,0-4.79687,6.53516c0,3.98242,3.69629,5.28076,7.2832,5.45654l-.792,2.33252c-4.26855-.22021-8.73535-2.5083-8.73535-7.30517a8.63107,8.63107,0,0,1,3.6748-7.063c-1.89257.19824-7.23925.72607-9.68164,1.25439l-.21972-2.39843C116.29839,46.67822,117.04644,46.63428,117.48687,46.58984Zm14.21387,6.4253-1.36426.61572a20.83384,20.83384,0,0,0-1.76074-3.08008l1.32031-.57226A30.67064,30.67064,0,0,1,131.70074,53.01514Zm2.50781-1.01221-1.3418.66016a20.6815,20.6815,0,0,0-1.84863-3.03663l1.32031-.59423A34.24618,34.24618,0,0,1,134.20855,52.00293Z"/><path class="cls-1" d="M146.7691,47.91016h-6.49024v2.90429h-1.82617V46.502h8.31641V45.37988h-6.97461v-1.562H155.813v1.562h-7.06347V46.502h8.47168v4.3125h-1.89258V47.91016h-6.5791V52.729H146.7691Zm8.05371,13.51025c1.09961,0,1.32031-.374,1.45215-2.42041a4.27541,4.27541,0,0,0,1.73828.66016c-.26465,2.66211-.8584,3.34423-3.08106,3.34423h-4.81836c-2.70605,0-3.4541-.50585-3.4541-2.48632v-.418h-4.3125v1.05615h-1.959V53.38916h14.918V60.1001h-6.68848v.418c0,.77.26367.90234,1.62793.90234Zm-13.9502-10.31982h4.92871v1.18847h-4.92871Zm4.90625-2.2002v1.18848H141.313V48.90039Zm-3.43164,5.91895v1.29834h4.3125V54.81934Zm4.3125,3.82861v-1.2544h-4.3125V58.648Zm6.64453-3.82861h-4.68652v1.29834h4.68652Zm0,3.82861v-1.2544h-4.68652V58.648Zm.96875-9.74756v1.18848h-4.51074V48.90039Zm-4.51074,2.2002h5.06055v1.18847h-5.06055Z"/><path class="cls-1" d="M160.80425,46.65625h8.207v1.62793h-8.207Zm7.56934,15.53418h-4.81934v.94629h-1.75976V55.74316h6.5791Zm-.08789-10.8916h-6.44727v-1.584h6.44727Zm-6.44727,1.4082h6.44727v1.584h-6.44727Zm6.42481-7.415h-6.293V43.68555h6.293Zm-4.709,12.10156V60.562h3.0586V57.39355Zm12.62989-6.18261v3.34424h3.96093v8.49365h-2.02441v-.96875h-5.78711v1.07861h-1.958V54.55518h3.71875V51.21094h-4.92871V49.27441h4.92871V46.17188c-1.32031.15429-2.64062.3081-3.89453.39648a6.26,6.26,0,0,0-.59473-1.73828,51.18,51.18,0,0,0,9.374-1.5625l1.42969,1.67236a39.72247,39.72247,0,0,1-4.22461.92432v3.41015h4.95117v1.93653Zm1.93652,5.19238h-5.78711v3.8291h5.78711Z"/><path class="cls-1" d="M197.70074,52.4873v2.9043h4.97265v1.89209h-4.97265v3.01416c0,.74854.10937.8584.81347.8584H200.649c.6377,0,.74805-.43994.83594-2.61816a5.62749,5.62749,0,0,0,1.82617.792c-.17578,2.83838-.74805,3.65234-2.46387,3.65234h-2.68457c-2.06836,0-2.57422-.59375-2.57422-2.68457V57.28369h-3.499c-.418,2.33252-1.80371,4.53272-5.96289,5.96289a6.92442,6.92442,0,0,0-1.29785-1.606c3.38867-1.12255,4.68652-2.70654,5.14843-4.35693h-4.665V55.3916h4.90722V52.4873h-2.13476v-.79248a17.35707,17.35707,0,0,1-3.124,1.84815,6.89235,6.89235,0,0,0-1.23242-1.54,15.08749,15.08749,0,0,0,4.09277-2.59668,23.19917,23.19917,0,0,0-2.41992-2.1123l1.27539-1.07813a19.31166,19.31166,0,0,1,2.4209,1.91455,13.927,13.927,0,0,0,1.75977-2.5083h-5.0166V43.83984h6.00683l.374-.0664,1.34277.63867a15.17529,15.17529,0,0,1-4.09277,6.13867H198.69a19.77632,19.77632,0,0,1-4.46582-7.019l1.80371-.52783a16.79109,16.79109,0,0,0,1.27636,2.59619,21.55417,21.55417,0,0,0,2.3545-2.35449l1.54,1.07812a34.76094,34.76094,0,0,1-3.01464,2.57471c.374.50586.792.98974,1.21,1.45215a23.71749,23.71749,0,0,0,2.83886-2.61866l1.51856,1.05616a32.46993,32.46993,0,0,1-3.21289,2.64062,13.78911,13.78911,0,0,0,3.80664,2.31006,7.86118,7.86118,0,0,0-1.4082,1.76025,13.9484,13.9484,0,0,1-2.94825-1.8042v.79248Zm-2.11231,0h-3.34472v2.9043h3.34472Z"/><path class="cls-1" d="M213.97906,43.61963a35.00208,35.00208,0,0,1-2.15625,4.37842V63.09277h-1.93555v-12.146A25.77946,25.77946,0,0,1,207.731,53.499a19.50386,19.50386,0,0,0-1.12305-2.06836,23.678,23.678,0,0,0,5.457-8.42675Zm13.29,3.34473V48.6582H213.16558V46.96436Zm-12.60742,9.21923h11.24316v6.88672h-2.0459v-.87988h-7.23926v.94629h-1.958Zm11.001-4.48877h-10.7373v-1.6499h10.7373ZM214.92535,53.125h10.67187v1.62842H214.92535Zm10.34179-7.56885h-10.0332V43.90576h10.0332ZM216.61968,57.79v2.75h7.23926V57.79Z"/><path class="cls-1" d="M0,3.03329V7.05584A23.18435,23.18435,0,0,1,8.458,8.6367q.69836.2759,1.35445.59159a21.43312,21.43312,0,0,1,3.20118-1.22665,23.5369,23.5369,0,0,1,6.647-.9458A23.19376,23.19376,0,0,1,28.15511,8.6367q.69834.2759,1.35414.59159a21.44991,21.44991,0,0,1,3.20148-1.22665,23.54872,23.54872,0,0,1,6.61094-.9458V3.03329Z"/><path class="cls-1" d="M24.62131,18.28731A4.8886,4.8886,0,0,0,32.24126,22.341a4.87843,4.87843,0,0,0,2.15608-4.05358,4.17029,4.17029,0,0,0-.314-1.53685,6.77374,6.77374,0,0,0-.97259-1.65788,12.35872,12.35872,0,0,0-3.60184-3.002,13.28845,13.28845,0,0,0-2.95742,2.26122,7.34462,7.34462,0,0,0-1.68307,2.57672A4.08118,4.08118,0,0,0,24.62131,18.28731Z"/><path class="cls-1" d="M34.29389,12.59458a9.86034,9.86034,0,0,1,2.24655,3.49079,6.61811,6.61811,0,0,1,.3913,2.20194,7.42253,7.42253,0,1,1-14.84506,0,7.03986,7.03986,0,0,1,.85125-3.2541A11.068,11.068,0,0,1,25.1798,12.144a15.42809,15.42809,0,0,1,1.607-1.31482c-.388-.14216-.78636-.27548-1.19555-.39659a21.0257,21.0257,0,0,0-5.93065-.84235,20.7355,20.7355,0,0,0-7.127,1.23833,14.86663,14.86663,0,0,1,2.06346,1.766,9.86689,9.86689,0,0,1,2.24625,3.49079,6.61061,6.61061,0,0,1,.3916,2.20194,7.42253,7.42253,0,1,1-14.845,0,7.04289,7.04289,0,0,1,.85063-3.2541A11.07073,11.07073,0,0,1,5.483,12.144a15.38514,15.38514,0,0,1,1.60673-1.31482c-.38838-.14216-.78612-.27548-1.19555-.39659A21.035,21.035,0,0,0,0,9.59024V28.83318H39.3216V9.59024a20.741,20.741,0,0,0-7.09087,1.23833A14.86037,14.86037,0,0,1,34.29389,12.59458Z"/><path class="cls-1" d="M4.92426,18.28731A4.8886,4.8886,0,0,0,12.5442,22.341a4.88009,4.88009,0,0,0,2.15632-4.05358,4.18291,4.18291,0,0,0-.314-1.53685,6.7954,6.7954,0,0,0-.97252-1.65788,12.36935,12.36935,0,0,0-3.60215-3.002,13.27738,13.27738,0,0,0-2.9571,2.26122,7.34466,7.34466,0,0,0-1.68308,2.57672A4.07633,4.07633,0,0,0,4.92426,18.28731Z"/><path class="cls-1" d="M62.75445,26.42578a8.9844,8.9844,0,0,1-4.4043-1.05273,7.46411,7.46411,0,0,1-2.96484-2.92188,8.46977,8.46977,0,0,1-1.05274-4.23242,11.615,11.615,0,0,1,1.375-5.44629,11.37156,11.37156,0,0,1,3.82422-4.26465A9.73177,9.73177,0,0,1,65.05328,6.875a9.07338,9.07338,0,0,1,4.56543,1.10645,7.58247,7.58247,0,0,1,2.97558,2.99707,8.64779,8.64779,0,0,1,1.03125,4.21093A11.04353,11.04353,0,0,1,72.1646,20.7002a11.52259,11.52259,0,0,1-3.95312,4.15722A10.04684,10.04684,0,0,1,62.75445,26.42578Zm-4.834-8.27148a8.117,8.117,0,0,0,.58008,3.083,5.3975,5.3975,0,0,0,1.68653,2.28809,4.16435,4.16435,0,0,0,2.63183.85938,5.27273,5.27273,0,0,0,3.54492-1.40723,9.78163,9.78163,0,0,0,2.55664-3.66309,12.06114,12.06114,0,0,0,.94532-4.70507,6.68565,6.68565,0,0,0-.62305-2.94336A4.77292,4.77292,0,0,0,67.481,9.65723a4.837,4.837,0,0,0-2.64258-.71973A5.23,5.23,0,0,0,61.358,10.30176a9.4897,9.4897,0,0,0-2.51367,3.502A10.86748,10.86748,0,0,0,57.92046,18.1543Z"/><path class="cls-1" d="M84.5396,6.875h1.11719L82.45562,21.87109a3.079,3.079,0,0,0-.06445.60157q0,1.91235,2.81445,2.041l-.2793,1.50391H75.1939l.4082-1.46094a4.8677,4.8677,0,0,0,2.42774-.59082,3.29731,3.29731,0,0,0,1.332-2.30957L81.61773,11.043a4.57875,4.57875,0,0,0,.08594-.60156.55894.55894,0,0,0-.24707-.50489,1.89107,1.89107,0,0,0-.84864-.2041q-.602-.04321-1.93359-.043l.32227-1.52539Z"/><path class="cls-1" d="M105.938,20.79688a.70116.70116,0,0,1-.10742.27929q-.10693.19336-.30078.53711-1.396,2.34156-3.373,5.99414H101.19a.10322.10322,0,0,1-.09668-.06445.61.61,0,0,1-.043-.21485c-.00684-.10058-.01075-.165-.01075-.19335a2.61434,2.61434,0,0,0-.17187-.82715.54537.54537,0,0,0-.55859-.29H89.24468a2.107,2.107,0,0,1-.92383-.12891c-.14257-.08594-.21484-.16455-.21484-.23633a1.45893,1.45893,0,0,1,.4082-.73046,8.06008,8.06008,0,0,1,.98829-.98829L97.108,18.2832l.49414-.38672a23.02119,23.02119,0,0,0,3.21192-2.75,4.44458,4.44458,0,0,0,1.40723-3.11523,2.52114,2.52114,0,0,0-.91309-2.1377A3.38794,3.38794,0,0,0,99.192,9.19531a7.29,7.29,0,0,0-3.29785.92383,12.64454,12.64454,0,0,0-3.01856,2.10547,1.0992,1.0992,0,0,1-.752.38672.59871.59871,0,0,1-.51563-.2793,1.17864,1.17864,0,0,1-.19336-.6875,1.56924,1.56924,0,0,1,.62305-1.28906,18.70784,18.70784,0,0,1,4.00684-2.52442,10.08309,10.08309,0,0,1,4.26465-.97753,7.039,7.039,0,0,1,4.18945,1.13867,4.08844,4.08844,0,0,1,1.58984,3.5664,5.36629,5.36629,0,0,1-.94531,3.0293,11.28329,11.28329,0,0,1-2.27734,2.50293q-1.33155,1.08471-3.4375,2.52441-1.03125.66578-1.9336,1.35352l-4.38281,2.49219h8.14258a2.30639,2.30639,0,0,0,1.56836-.50489,7.26667,7.26667,0,0,0,1.18164-1.38574c.18652-.272.3291-.46924.42969-.59082a.42407.42407,0,0,1,.32226-.18261Z"/><path class="cls-1" d="M119.49468,26.42578a8.98433,8.98433,0,0,1-4.40429-1.05273,7.46407,7.46407,0,0,1-2.96485-2.92188,8.46976,8.46976,0,0,1-1.05273-4.23242,11.615,11.615,0,0,1,1.375-5.44629A11.37139,11.37139,0,0,1,116.272,8.50781,9.73174,9.73174,0,0,1,121.79351,6.875a9.07338,9.07338,0,0,1,4.56543,1.10645,7.58243,7.58243,0,0,1,2.97559,2.99707,8.64779,8.64779,0,0,1,1.03125,4.21093,11.04364,11.04364,0,0,1-1.46094,5.51075,11.52253,11.52253,0,0,1-3.95313,4.15722A10.04682,10.04682,0,0,1,119.49468,26.42578Zm-4.834-8.27148a8.117,8.117,0,0,0,.58008,3.083,5.39757,5.39757,0,0,0,1.68652,2.28809,4.16436,4.16436,0,0,0,2.63184.85938,5.27273,5.27273,0,0,0,3.54492-1.40723,9.78163,9.78163,0,0,0,2.55664-3.66309,12.06131,12.06131,0,0,0,.94531-4.70507,6.68565,6.68565,0,0,0-.623-2.94336,4.7729,4.7729,0,0,0-1.76171-2.00879,4.837,4.837,0,0,0-2.64258-.71973,5.23,5.23,0,0,0-3.48047,1.36426,9.4897,9.4897,0,0,0-2.51367,3.502A10.86748,10.86748,0,0,0,114.6607,18.1543Z"/><path class="cls-1" d="M143.57867,18.2832h-9.06641q.15089-.83789.376-1.65429.22559-.81666.376-.81641h9.10938Q143.87994,18.283,143.57867,18.2832Z"/><path class="cls-1" d="M152.17242,18.82031l-.23633.043a1.25685,1.25685,0,0,0-.19336.01074.765.765,0,0,1-.12891.01075,2.28292,2.28292,0,0,1-.74121-.08594.38466.38466,0,0,1-.22558-.40821,1.83442,1.83442,0,0,1,.06445-.42968l2.96484-10.44141a1.002,1.002,0,0,1,.29-.53711,1.387,1.387,0,0,1,.67676-.10742q.40869,0,1.375.10742a45.75558,45.75558,0,0,0,5.13477.30078,1.85454,1.85454,0,0,0,1.0957-.333,3.35492,3.35492,0,0,0,.76269-.71973,2.27759,2.27759,0,0,0,.29-.42969h1.11719l-.81641,3.39453a1.6844,1.6844,0,0,1-.49414.93457,1.67285,1.67285,0,0,1-.91308.3545,18.03219,18.03219,0,0,1-1.81543.06445h-5.58594q-.45117,0-.64453.666-.06446.27906-.53711,1.84766l-.60156,2.127-.12891.49414h1.07422a9.77419,9.77419,0,0,1,4.22168.80567,5.48676,5.48676,0,0,1,2.4707,2.14844,5.87679,5.87679,0,0,1,.78418,3.01855,7.185,7.185,0,0,1-1.39648,4.0498,10.9323,10.9323,0,0,1-3.81348,3.39454,10.725,10.725,0,0,1-5.2959,1.34277,5.30929,5.30929,0,0,1-2.28808-.41895,2.81424,2.81424,0,0,1-1.23535-1.0205,2.37308,2.37308,0,0,1-.36524-1.2461A1.5978,1.5978,0,0,1,148.692,26.125a2.83629,2.83629,0,0,1,1.5039.4834,9.51061,9.51061,0,0,1,1.91211,1.79394c0,.043.09278.06446.2793.06446a6.74275,6.74275,0,0,0,3.24414-.752,5.53912,5.53912,0,0,0,2.1377-1.94433,4.60023,4.60023,0,0,0,.74121-2.46,4.46231,4.46231,0,0,0-.59082-2.25586,4.23314,4.23314,0,0,0-1.80469-1.6543,6.45967,6.45967,0,0,0-2.97559-.62305Q152.817,18.77734,152.17242,18.82031Z"/><path class="cls-1" d="M184.16265,24.25586h-5.11328l-1.50391,7.08984H174.022l1.58984-7.08984-9.10937.02148a2.07438,2.07438,0,0,1-1.13868-.23632.70584.70584,0,0,1-.34375-.60157,2.23177,2.23177,0,0,1,.73047-1.375L178.38335,8.61523l.36524-.38671a6.53562,6.53562,0,0,1,.64453-.64454,1.22247,1.22247,0,0,1,.4834-.23632,3.71922,3.71922,0,0,1,.80566-.06446h2.27735l-3.48047,14.73828h5.24219Zm-5.19922-14.13672L167.66265,22.043H176.106Z"/><path class="cls-1" d="M191.46734,18.82031l-.23633.043a1.25685,1.25685,0,0,0-.19336.01074.76492.76492,0,0,1-.1289.01075,2.283,2.283,0,0,1-.74122-.08594.38466.38466,0,0,1-.22558-.40821,1.83442,1.83442,0,0,1,.06445-.42968l2.96485-10.44141a1.00193,1.00193,0,0,1,.29-.53711A1.387,1.387,0,0,1,193.938,6.875q.40869,0,1.375.10742a45.75558,45.75558,0,0,0,5.13477.30078,1.85454,1.85454,0,0,0,1.0957-.333,3.35518,3.35518,0,0,0,.7627-.71973,2.27759,2.27759,0,0,0,.29-.42969h1.11718l-.8164,3.39453a1.68453,1.68453,0,0,1-.49414.93457,1.67292,1.67292,0,0,1-.91309.3545,18.03205,18.03205,0,0,1-1.81543.06445h-5.58594q-.45117,0-.64453.666-.06446.27906-.53711,1.84766l-.60156,2.127-.12891.49414h1.07422a9.77419,9.77419,0,0,1,4.22168.80567,5.48679,5.48679,0,0,1,2.47071,2.14844,5.87678,5.87678,0,0,1,.78417,3.01855,7.185,7.185,0,0,1-1.39648,4.0498,10.93221,10.93221,0,0,1-3.81348,3.39454,10.725,10.725,0,0,1-5.29589,1.34277,5.30931,5.30931,0,0,1-2.28809-.41895,2.81424,2.81424,0,0,1-1.23535-1.0205,2.37308,2.37308,0,0,1-.36524-1.2461,1.5978,1.5978,0,0,1,1.6543-1.63281,2.83633,2.83633,0,0,1,1.50391.4834,9.51115,9.51115,0,0,1,1.91211,1.79394c0,.043.09277.06446.27929.06446a6.74275,6.74275,0,0,0,3.24414-.752,5.53912,5.53912,0,0,0,2.1377-1.94433,4.60023,4.60023,0,0,0,.74121-2.46,4.46231,4.46231,0,0,0-.59082-2.25586,4.23314,4.23314,0,0,0-1.80469-1.6543,6.45966,6.45966,0,0,0-2.97558-.62305Q192.11187,18.77734,191.46734,18.82031Z"/><path class="cls-1" d="M216.17437,18.2832H207.108q.15089-.83789.376-1.65429.22559-.81666.376-.81641h9.10937Q216.47564,18.283,216.17437,18.2832Z"/><path class="cls-1" d="M238.17437.77344a.924.924,0,0,1-.55859.83789A25.39982,25.39982,0,0,0,231.192,6.29492a22.067,22.067,0,0,0-4.23242,6.42383,9.23052,9.23052,0,0,1,2.97558-2.72852,6.83312,6.83312,0,0,1,3.31934-.90234,4.81793,4.81793,0,0,1,2.61035.79492,5.97541,5.97541,0,0,1,2.041,2.21289,6.50567,6.50567,0,0,1,.78418,3.20118,11.75785,11.75785,0,0,1-1.28907,5.29589,11.72062,11.72062,0,0,1-3.4375,4.21094,7.43339,7.43339,0,0,1-4.55468,1.62207,7.84948,7.84948,0,0,1-4.2002-1.02051,6.00374,6.00374,0,0,1-2.39551-2.72851,9.37064,9.37064,0,0,1-.75195-3.81348,16.90478,16.90478,0,0,1,2.084-7.831,23.86085,23.86085,0,0,1,5.51075-7.00391A17.75116,17.75116,0,0,1,236.90679.043,1.83769,1.83769,0,0,1,237.25054,0a.96692.96692,0,0,1,.67676.22559A.71349.71349,0,0,1,238.17437.77344ZM225.41265,20.38867a4.78516,4.78516,0,0,0,.88086,3.00781,3.18177,3.18177,0,0,0,2.68555,1.13868,4.15125,4.15125,0,0,0,2.97558-1.43946,10.62347,10.62347,0,0,0,2.25586-3.59863,11.25516,11.25516,0,0,0,.84864-4.11426,4.88211,4.88211,0,0,0-.80567-2.92187,2.83177,2.83177,0,0,0-2.46-1.11719,4.48777,4.48777,0,0,0-3.14746,1.418,10.32606,10.32606,0,0,0-2.35254,3.54492A10.663,10.663,0,0,0,225.41265,20.38867Z"/><path class="cls-1" d="M239.16265,27.47852a2.78471,2.78471,0,0,1,.9668.15039,3.36063,3.36063,0,0,1,.9668.63379,16.895,16.895,0,0,1,1.43945,1.47168,6.81352,6.81352,0,0,0,1.03125.06445,5.40885,5.40885,0,0,0,4.96289-2.96485,6.01413,6.01413,0,0,0,.6875-2.793,5.73,5.73,0,0,0-1.07422-3.373,5.80551,5.80551,0,0,0-3.1582-2.16992,17.86776,17.86776,0,0,0,4.28613-2.92188,5.1635,5.1635,0,0,0,1.94434-3.80273,2.79493,2.79493,0,0,0-.74121-2.15918,2.772,2.772,0,0,0-1.94434-.67676,6.81191,6.81191,0,0,0-2.76074.65527,7.617,7.617,0,0,0-2.30957,1.49317,1.13086,1.13086,0,0,1-.79493.38672.55261.55261,0,0,1-.58007-.58008,1.35389,1.35389,0,0,1,.38672-.85938,8.77871,8.77871,0,0,1,3.126-2.3955,9.57234,9.57234,0,0,1,3.89942-.7627,7.055,7.055,0,0,1,2.75.50488,4.3536,4.3536,0,0,1,1.87988,1.42871,3.53807,3.53807,0,0,1,.67676,2.14844,5.34871,5.34871,0,0,1-1.62207,3.56641,17.40775,17.40775,0,0,1-4.73731,3.4375,8.65539,8.65539,0,0,1,3.36231,2.44922,4.8403,4.8403,0,0,1,1.06347,2.98632,6.39213,6.39213,0,0,1-1.36425,3.84571,9.83846,9.83846,0,0,1-3.7168,2.98633,11.56183,11.56183,0,0,1-5.10254,1.13867,10.63427,10.63427,0,0,1-3.0293-.35449,3.84887,3.84887,0,0,1-1.65429-.87012,1.51246,1.51246,0,0,1-.49415-1.03125,1.59779,1.59779,0,0,1,1.6543-1.63281Z"/><path class="cls-1" d="M259.12164,32.52734a.923.923,0,0,1,.55859-.83789,25.60293,25.60293,0,0,0,6.43457-4.68359,21.69112,21.69112,0,0,0,4.22168-6.40234,9.35434,9.35434,0,0,1-2.98633,2.71777,6.83878,6.83878,0,0,1-3.30859.8916A4.76632,4.76632,0,0,1,261.442,23.418a6.00625,6.00625,0,0,1-2.03027-2.21289,6.50552,6.50552,0,0,1-.78418-3.20117,11.75784,11.75784,0,0,1,1.28906-5.2959,11.72062,11.72062,0,0,1,3.4375-4.21094A7.43342,7.43342,0,0,1,267.90875,6.875a7.84947,7.84947,0,0,1,4.20019,1.02051,6.00374,6.00374,0,0,1,2.39551,2.72851,9.37051,9.37051,0,0,1,.75195,3.81348,16.90465,16.90465,0,0,1-2.084,7.83105,23.69336,23.69336,0,0,1-5.53223,7.00391,17.923,17.923,0,0,1-7.27246,3.98535,1.84858,1.84858,0,0,1-.32227.043.96691.96691,0,0,1-.67675-.22558A.71353.71353,0,0,1,259.12164,32.52734Zm12.7832-19.61523A4.78518,4.78518,0,0,0,271.024,9.9043a3.20637,3.20637,0,0,0-2.707-1.13868,4.15132,4.15132,0,0,0-2.97559,1.43946,10.49928,10.49928,0,0,0-2.24511,3.59863,11.37319,11.37319,0,0,0-.8379,4.11426,4.92831,4.92831,0,0,0,.79493,2.92187A2.80358,2.80358,0,0,0,265.5025,21.957a4.523,4.523,0,0,0,3.1582-1.418,10.25223,10.25223,0,0,0,2.36328-3.54492A10.663,10.663,0,0,0,271.90484,12.91211Z"/><path class="cls-1" d="M50.42144,86.0332a11.2155,11.2155,0,0,1-4.124,4.51953,22.98,22.98,0,0,0,6.66211,1.74659A5.05522,5.05522,0,0,0,52.15,93.542a21.03972,21.03972,0,0,1-7.18457-2.23291A24.21252,24.21252,0,0,1,37.70953,93.542a5.06919,5.06919,0,0,0-.793-1.18847,24.89216,24.89216,0,0,0,6.77051-1.80079,12.72854,12.72854,0,0,1-3.63672-3.709l.17968-.07227h-.77441V85.5293H49.2691l.26953-.05371Zm-11.86621-.07177H37.29546V82.30664h2.86231a12.65059,12.65059,0,0,0-1.18848-2.377l1.15235-.32422A10.59169,10.59169,0,0,1,41.4,81.96436l-1.06153.34228h7.832a22.36042,22.36042,0,0,0,1.67481-3.061l1.34961.41406c-.48535.88232-1.11621,1.85449-1.65625,2.647h3.0791v3.65479H51.30328v-2.4668h-12.748ZM51.60894,78.165a94.61045,94.61045,0,0,1-13.82812,1.38672,4.06178,4.06178,0,0,0-.30567-1.13477,94.13158,94.13158,0,0,0,13.19824-1.332ZM41.47222,86.77148a10.56563,10.56563,0,0,0,3.5293,3.09717,9.80744,9.80744,0,0,0,3.4209-3.09717Zm3.15137-4.57324a10.481,10.481,0,0,0-.90039-2.64648l1.20605-.27051a10.79806,10.79806,0,0,1,.9541,2.61133Z"/><path class="cls-1" d="M62.38824,77.67871A28.20864,28.20864,0,0,1,60.48,81.60449V93.542H59.147V83.6748a18.75856,18.75856,0,0,1-1.81836,2.17872,10.591,10.591,0,0,0-.82813-1.31446,20.01631,20.01631,0,0,0,4.57324-7.27441Zm10.46094,4.79H70.58062v9.29053c0,1.0083-.28809,1.42236-.9541,1.6206a15.51569,15.51569,0,0,1-3.85352.21582,6.01057,6.01057,0,0,0-.52148-1.31445c1.51269.0542,2.98828.0542,3.4209.03613.39648-.03613.55761-.144.55761-.5581V82.46875H61.97418v-1.333H69.23V77.355h1.35059v3.78076h2.26856Zm-7.12989,6.91406c-.54-1.1167-1.69238-3.043-2.61035-4.4834l1.15234-.54052c.93555,1.38623,2.124,3.25927,2.7002,4.35742Z"/><path class="cls-1" d="M82.08062,90.06641H78.20953v1.459H76.98492V78.32715h5.0957ZM78.20953,79.53369v3.99707h2.61035V79.53369Zm2.61035,9.32666V84.70117H78.20953v4.15918Zm9.74121-4.91553v2.03467H92.65V87.168H90.56109v4.82519c0,.75635-.19824,1.15235-.73828,1.35059a10.29378,10.29378,0,0,1-2.917.21582,4.07244,4.07244,0,0,0-.43164-1.24219c1.11621.03614,2.10644.03614,2.39453.01807.30566-.01807.39648-.09033.39648-.35986V87.168H82.45855V85.97949h6.80664V83.94482H82.36871v-1.188h4.51953V80.46973H83.14312V79.28125h3.74512V77.13867h1.31445v2.14258h3.87109v1.18848H88.20269v2.28711H92.8482v1.188Zm-5.92383,3.853a12.713,12.713,0,0,1,2.34082,3.061l-1.13379.72021a13.92288,13.92288,0,0,0-2.28711-3.16894Z"/><path class="cls-1" d="M98.35113,84.05273v9.543h-1.332V77.91309h6.5v6.13964Zm0-5.09521v1.49463h3.88965V78.95752Zm3.88965,4.06885v-1.584H98.35113v1.584Zm-.05371,8.895v.8999H100.98v-7.418h6.68067v6.51807Zm0-5.4917V88.104h4.23046V86.42969Zm4.23046,4.4292V89.1123h-4.23046v1.74659Zm5.36622.95459c0,.8457-.19825,1.2959-.793,1.53027a10.25611,10.25611,0,0,1-3.02442.23389,4.9445,4.9445,0,0,0-.46777-1.36817c1.09766.0542,2.19629.03565,2.52051.01807.30566,0,.41406-.1084.41406-.43262V84.0708h-5.31152V77.91309h6.66211ZM106.4,78.95752v1.49463h4.0332V78.95752Zm4.0332,4.0874V81.44238H106.4v1.60254Z"/><path class="cls-1" d="M131.99761,76.97656l.54.54053L116.29742,93.75781l-.54-.54Z"/><path class="cls-1" d="M136.88921,90.06641a2.97871,2.97871,0,0,0,2.21485,1.00879c1.71,0,3.18652-1.4043,3.3125-5.50977a4.06742,4.06742,0,0,1-3.043,1.63867c-2.19629,0-3.63672-1.42285-3.63672-4.15918,0-2.55713,1.72852-4.28564,3.78125-4.28564,2.53906,0,4.42969,2.08838,4.42969,6.28369,0,5.34765-2.30469,7.40039-4.79,7.40039a4.19975,4.19975,0,0,1-3.16895-1.35059Zm5.50977-5.85157c-.17969-2.71875-1.18848-4.15918-2.88086-4.15918-1.26074,0-2.23242,1.18848-2.23242,2.98926,0,1.78223.792,2.93457,2.3584,2.93457A3.48875,3.48875,0,0,0,142.399,84.21484Z"/><path class="cls-1" d="M148.04839,83.94482a1.18966,1.18966,0,1,1,1.18848,1.24268A1.20984,1.20984,0,0,1,148.04839,83.94482Zm0,7.25635a1.19164,1.19164,0,1,1,2.377,0,1.18964,1.18964,0,1,1-2.377,0Z"/><path class="cls-1" d="M154.42046,85.56543c0-4.59131,1.60254-6.80615,4.12305-6.80615,2.50293,0,4.10547,2.23291,4.10547,6.80615,0,4.59131-1.60254,6.87793-4.10547,6.87793C156.023,92.44336,154.42046,90.15674,154.42046,85.56543Zm6.626,0c0-3.85352-1.00781-5.47363-2.50293-5.47363-1.51172,0-2.52051,1.62011-2.52051,5.47363,0,3.88916,1.00879,5.56348,2.52051,5.56348C160.03863,91.12891,161.04644,89.45459,161.04644,85.56543Z"/><path class="cls-1" d="M166.2105,85.56543c0-4.59131,1.60254-6.80615,4.12305-6.80615,2.50293,0,4.10547,2.23291,4.10547,6.80615,0,4.59131-1.60254,6.87793-4.10547,6.87793C167.813,92.44336,166.2105,90.15674,166.2105,85.56543Zm6.626,0c0-3.85352-1.00879-5.47363-2.50293-5.47363-1.5127,0-2.52051,1.62011-2.52051,5.47363,0,3.88916,1.00781,5.56348,2.52051,5.56348C171.82769,91.12891,172.83648,89.45459,172.83648,85.56543Z"/><path class="cls-1" d="M177.94585,86.5376h4.60938v1.26025h-4.60938Z"/><path class="cls-1" d="M186.74761,90.84082h2.93555V80.99219h-2.34082V79.94775a8.36614,8.36614,0,0,0,2.73633-.936h1.26074v11.8291h2.64648v1.36865h-7.23828Z"/><path class="cls-1" d="M204.2271,80.416h-6.3916v-1.4043h8.26465v.99023c-3.09765,3.979-3.67383,7.04-3.87207,12.20752h-1.71C200.73394,87.2041,201.65191,84.0166,204.2271,80.416Z"/><path class="cls-1" d="M210.05718,83.94482a1.18966,1.18966,0,1,1,1.18848,1.24268A1.20984,1.20984,0,0,1,210.05718,83.94482Zm0,7.25635a1.19164,1.19164,0,1,1,2.377,0,1.18964,1.18964,0,1,1-2.377,0Z"/><path class="cls-1" d="M216.0689,90.64258l.82813-1.08008a4.36252,4.36252,0,0,0,3.27734,1.5127A2.43026,2.43026,0,0,0,222.857,88.626c0-1.584-1.0625-2.64649-4.10547-2.64649V84.71924c2.71875,0,3.65527-1.09815,3.65527-2.521a2.062,2.062,0,0,0-2.23242-2.12451,4.11951,4.11951,0,0,0-2.7373,1.31445l-.88184-1.04443a5.2839,5.2839,0,0,1,3.69043-1.58447c2.21484,0,3.83594,1.18847,3.83594,3.313a3.29056,3.29056,0,0,1-2.35938,3.187v.07177a3.3949,3.3949,0,0,1,2.80957,3.34913c0,2.35888-1.89062,3.76318-4.23144,3.76318A5.46239,5.46239,0,0,1,216.0689,90.64258Z"/><path class="cls-1" d="M228.21929,85.56543c0-4.59131,1.60254-6.80615,4.12305-6.80615,2.50293,0,4.10547,2.23291,4.10547,6.80615,0,4.59131-1.60254,6.87793-4.10547,6.87793C229.82183,92.44336,228.21929,90.15674,228.21929,85.56543Zm6.626,0c0-3.85352-1.00879-5.47363-2.50293-5.47363-1.5127,0-2.52051,1.62011-2.52051,5.47363,0,3.88916,1.00781,5.56348,2.52051,5.56348C233.83648,91.12891,234.84527,89.45459,234.84527,85.56543Z"/><path class="cls-1" d="M88.85113,111.47266H82.33355v4.123H80.983v-4.123H72.6646v-1.29639h2.95215v-4.82568H80.983v-2.73682H76.607a16.61382,16.61382,0,0,1-2.73633,3.54736,8.29019,8.29019,0,0,0-1.15234-.84668,15.2273,15.2273,0,0,0,4.05078-6.21191l1.35058.32422c-.252.63037-.54,1.27832-.82812,1.89062H88.023v1.29639H82.33355v2.73682h5.27539v1.26074H82.33355v3.56494h6.51758ZM80.983,110.17627v-3.56494h-4.0332v3.56494Z"/><path class="cls-1" d="M102.06109,107.94336a18.39215,18.39215,0,0,0,6.80566,5.4375,6.33679,6.33679,0,0,0-.99023,1.1709,20.69438,20.69438,0,0,1-6.66211-5.79785v6.82373H99.82867v-6.73389a19.792,19.792,0,0,1-6.59082,5.72559,8.26619,8.26619,0,0,0-.97168-1.13428,17.56933,17.56933,0,0,0,6.76953-5.4917H93.65191v-1.31445h6.17676v-3.13282H92.73394v-1.31445h7.09473v-3.043h1.38574v3.043h7.2207v1.31445h-7.2207v3.13282h6.30176v1.31445Z"/><path class="cls-1" d="M128.45074,111.47266h-6.51758v4.123h-1.35059v-4.123h-8.31836v-1.29639h2.95313v-4.82568h5.36523v-2.73682h-4.375a16.64765,16.64765,0,0,1-2.7373,3.54736,8.23219,8.23219,0,0,0-1.15234-.84668,15.229,15.229,0,0,0,4.05175-6.21191l1.35059.32422c-.25195.63037-.54,1.27832-.82813,1.89062h10.73047v1.29639h-5.68945v2.73682h5.27539v1.26074h-5.27539v3.56494h6.51758Zm-7.86817-1.29639v-3.56494h-4.0332v3.56494Z"/><path class="cls-1" d="M138.65386,102.97412a23.74894,23.74894,0,0,1-1.67383,7.83252,13.17565,13.17565,0,0,1,2.0879,1.94434l-.80958,1.0625a13.76349,13.76349,0,0,0-1.85449-1.81885,9.81335,9.81335,0,0,1-3.47558,3.63721,5.924,5.924,0,0,0-.82813-1.08008,7.913,7.913,0,0,0,3.25879-3.38526c-.59375-.45019-1.24219-.90039-1.85449-1.27832l-.21582.77393-1.11621-.59375c.45019-1.53076.99023-3.74512,1.51172-5.978h-1.69239v-1.24267h1.96289c.28809-1.314.54-2.59278.75586-3.709l1.27832.14453c-.21582,1.09815-.48535,2.32227-.77343,3.56446h2.39453l.23437-.03565Zm-3.709,1.11621c-.37793,1.60254-.77442,3.187-1.13379,4.59131.68359.39648,1.42187.84619,2.10644,1.33252a20.98816,20.98816,0,0,0,1.36817-5.92383Zm3.79883,1.26026,1.42285-.07178a45.57732,45.57732,0,0,0,2.07031-6.14014l1.459.30615c-.63085,1.83643-1.459,4.08741-2.21484,5.76172,1.47656-.08984,3.15039-.19775,4.8252-.30615a21.45891,21.45891,0,0,0-1.63868-2.44824l1.08106-.54053a20.49679,20.49679,0,0,1,2.88086,4.78955l-1.15235.64844a9.88049,9.88049,0,0,0-.541-1.27881c-2.916.21631-5.92285.4502-8.04785.57617Zm1.22461,2.98925h7.63476v7.1836h-1.333v-.7378h-5.02343v.81006h-1.27832Zm1.27832,1.22412v4.01514h5.02343V109.564Z"/><path class="cls-1" d="M160.00347,111.77832c.05371-.68359.07129-1.83594.07129-2.77246-1.65625.90039-2.80859,1.81836-2.80859,2.98877,0,1.40478,1.38672,1.60254,3.22265,1.60254a31.4158,31.4158,0,0,0,4.86231-.43213l-.03613,1.4585a45.90433,45.90433,0,0,1-4.87989.28808c-2.55664,0-4.60937-.54053-4.60937-2.71875,0-2.10693,2.125-3.439,4.19531-4.51953a1.50737,1.50737,0,0,0-1.60254-1.09814,4.74683,4.74683,0,0,0-3.0791,1.31445c-.50391.48584-1.00781,1.15234-1.62012,1.87207l-1.22461-.918a18.87009,18.87009,0,0,0,4.10547-5.4375h-.73828c-.75586,0-1.96289-.03613-2.93457-.1084v-1.3501c.9541.10791,2.19629.18018,3.00684.18018.37793,0,.75586,0,1.16992-.01807a9.67813,9.67813,0,0,0,.45019-2.21484l1.47657.126c-.126.50439-.28809,1.24267-.54,2.05273a47.907,47.907,0,0,0,5.45507-.54l-.01757,1.33252a55.28927,55.28927,0,0,1-5.90625.50391,12.79938,12.79938,0,0,1-1.60157,2.73681,5.05349,5.05349,0,0,1,2.46582-.6665,2.24262,2.24262,0,0,1,2.35938,1.62109c1.22461-.57617,2.30469-1.00879,3.24121-1.44043.54-.23437.97168-.45019,1.47559-.70263l.57617,1.35058c-.4502.126-1.09766.37793-1.56641.55811-1.00781.396-2.28613.918-3.63672,1.54834.01758,1.02637.03614,2.53857.05371,3.40283Z"/><path class="cls-1" d="M175.98589,100.38135c-.54,1.47607-1.18847,3.313-1.78222,4.73535a5.5706,5.5706,0,0,1,1.60254,3.853,2.46162,2.46162,0,0,1-.70215,2.05273,1.94208,1.94208,0,0,1-.93653.32422,8.77765,8.77765,0,0,1-1.20605.03613,2.70841,2.70841,0,0,0-.34277-1.18847,5.16982,5.16982,0,0,0,1.04492.01757,1.09258,1.09258,0,0,0,.57617-.14355,1.59,1.59,0,0,0,.36035-1.22461,5.07911,5.07911,0,0,0-1.60254-3.56494c.52149-1.31445,1.04395-2.917,1.42188-4.14111h-2.3584v14.43994h-1.18848V99.91309h4.03321l.21582-.05371Zm2.75489,9.75879a13.25585,13.25585,0,0,1-2.61035,4.32129,8.3982,8.3982,0,0,0-.97266-.79248,10.21622,10.21622,0,0,0,2.39453-3.79883Zm2.75488-10.94727a16.508,16.508,0,0,0,5.29394,4.96924,5.9839,5.9839,0,0,0-.73828,1.1167,18.293,18.293,0,0,1-5.0957-4.8794,16.73583,16.73583,0,0,1-4.96973,4.96924,5.16729,5.16729,0,0,0-.71972-1.04443,14.57391,14.57391,0,0,0,5.041-5.13135Zm.1084,9.70459v5.168c0,.70215-.126,1.08008-.59473,1.27832a6.288,6.288,0,0,1-2.32226.23389,4.9326,4.9326,0,0,0-.4502-1.24219c.84668.03564,1.584.01807,1.81836.01807s.30664-.07227.30664-.28809v-5.168h-3.97949v-1.15234h3.97949V105.5127h-2.77344v-1.15235h6.91407v1.15235h-2.89844v2.23242h4.30273v1.15234Zm2.3584.93652a22.01592,22.01592,0,0,1,2.50293,3.94336l-1.09864.59375a22.74261,22.74261,0,0,0-2.43066-4.06884Z"/><path class="cls-1" d="M199.33355,100.97559c-.39551.28808-.93555.75586-1.22363,1.00781-1.24317,1.0625-3.79981,3.11523-5.11426,4.19531-1.08008.93652-1.08008,1.20654.07227,2.16113,1.62011,1.2959,4.916,4.03321,6.6621,5.76172l-1.29687,1.16992c-.35938-.43164-.8457-.88183-1.22363-1.29589-.97266-1.04493-3.94336-3.5835-5.61817-4.95166-1.67383-1.40479-1.49414-2.21485.126-3.56495,1.333-1.13476,4.0332-3.25927,5.24023-4.48339a8.34389,8.34389,0,0,0,1.02637-1.18848Z"/></g></g></svg>