<svg xmlns="http://www.w3.org/2000/svg" viewBox="0 0 138.41 97.26"><defs><style>.cls-1{fill:#fff;}</style></defs><g id="レイヤー_2" data-name="レイヤー 2"><g id="main-visual"><path class="cls-1" d="M94.64,22c-3.71,0-7.34,3.73-7.34,7.53V42.12c0,6,3.57,8.15,6.63,8.15h23.46V41.78H95.8V30.44h21.59V22Z"/><path class="cls-1" d="M51.11,30.44V22H28.37C24.66,22,21,25.69,21,29.49V42.12c0,6,3.58,8.15,6.64,8.15H51.11V33.91H33.23v6.36H43v1.51H29.52V30.44Z"/><path class="cls-1" d="M61.05,22.12c-4.31,0-6.64,4.67-6.64,9.05,0,2.43,1.19,9.37,6.41,9.37h15a7.53,7.53,0,0,1,.27,1.39,6.38,6.38,0,0,1-.29,1.26H55.53v8.49H77.84c5.48,0,6.71-8.23,6.71-9.73,0-.1-.48-9.91-6.52-9.91H63a4.3,4.3,0,0,1-.11-.87,2.58,2.58,0,0,1,.07-.54H83.84V22.12Z"/><path class="cls-1" d="M95.49,9.41A7.47,7.47,0,0,1,98,15a17.53,17.53,0,0,1-.6,5h8.67a23.13,23.13,0,0,0,.41-5.46A15.85,15.85,0,0,0,101.05,3C88.68-7.72,60.9,13.24,52.59,20H66.52c12-8.31,25-14,29-10.59"/><path class="cls-1" d="M44,66.37c-2.5-.07-3.27-1-3.53-1.29-2-2.46-2.11-6.6-.82-11.37H30.94c-1.3,6.44-.64,12.42,3,16.81,1.58,1.89,4.56,4.18,9.78,4.35,12,.34,29.94-11,41.06-21.16H71.43C61.83,60.81,50.64,66.56,44,66.37"/><path class="cls-1" d="M0,95.2c2.59-.92,3.9-2.16,4.52-4.71H.17v-2H4.73V85.86H6.79v2.63h4.73v2H7.06c.82,2.7,2.18,3.85,4.7,4.78l-1.09,2a7.78,7.78,0,0,1-4.77-4.7A8.63,8.63,0,0,1,1,97.24Z"/><path class="cls-1" d="M15.6,92.84a16.34,16.34,0,0,1-1.86,4.4l-1.38-1.62a9.31,9.31,0,0,0,1.69-3.72Zm-2.14-4.08a9.17,9.17,0,0,1,2,1.31l-1.14,1.6a8,8,0,0,0-1.88-1.39Zm.25-2.94a15.27,15.27,0,0,1,2,1.18l-1.11,1.6a8.92,8.92,0,0,0-2-1.28Zm4.61,7.86h-2.7V92.2h2.7v-.45H15.86V90.37h2.46v-.44h-3V88.55h3v-.46H15.86V86.6h2.46v-.73h2v.73h3.09v1.85h.51V90h-.51v1.73H20.3v.45h3.28v1.48H20.3v.39h3.6V95.7H20.3v1.54h-2V95.7H15.24V94.07h3.08Zm2-5.59v.46h1.19v-.46Zm0,1.84v.44h1.19v-.44Z"/><path class="cls-1" d="M34.83,88.28v1.94a23.08,23.08,0,0,1-.52,5.19,2.18,2.18,0,0,1-2.24,1.42,18.66,18.66,0,0,1-2.27-.18l-.14-2.11a10.73,10.73,0,0,0,1.82.2c.74,0,.89-.17,1-.79.06-.31.23-3,.23-3.11v-.58H30.37a9.53,9.53,0,0,1-2.49,5.16,8.43,8.43,0,0,1-1.82,1.48l-1.45-1.61a6.55,6.55,0,0,0,3.61-5h-3v-2h3.27c.06-1,.06-1.59.06-2l2.2,0c0,.62-.06,1.2-.13,2ZM33,88a15.07,15.07,0,0,0-.41-1.91l1.08-.13a11.69,11.69,0,0,1,.46,1.86Zm1.73-.19a12.14,12.14,0,0,0-.46-1.8l1.09-.13a10,10,0,0,1,.46,1.76Z"/><path class="cls-1" d="M36.41,95.14a11.37,11.37,0,0,0,6.42-6.36H37.14v-2h8.49a12.17,12.17,0,0,1-2.1,5.2,27,27,0,0,1,3.86,3.28L45.6,97a40.58,40.58,0,0,0-3.37-3.45,12.78,12.78,0,0,1-4.64,3.35Z"/><path class="cls-1" d="M54.2,86.3h2.18v2H58.2v2H56.38v1.15c0,2.6-.87,4.66-6,5.48l-.79-2a7.64,7.64,0,0,0,3.72-1.17,2.66,2.66,0,0,0,.88-2.37V90.31h-3V93.1H49.16V90.31H47.44v-2h1.72v-2h2.09v2h3Z"/><path class="cls-1" d="M70,90.48v2.18H59.42V90.48Z"/><path class="cls-1" d="M73.94,86.6v3.11a20.22,20.22,0,0,0,4.73-1.83,4.75,4.75,0,0,0,.18.57l.72-.19.88,1.24a31.32,31.32,0,0,1-6.51,2.28v2c0,.52.08.62.74.62H78c.08,0,1.22-.07,1.75-.13.27,0,.6-.11,1-.16l.12,2.19a15.59,15.59,0,0,1-2.33.18H74.24c-1.72,0-2.47-.62-2.47-2V86.6Zm5.15,1.49a13.66,13.66,0,0,0-.6-1.88L79.55,86a10,10,0,0,1,.63,1.82Zm1.72-.2A10.29,10.29,0,0,0,80.19,86l1-.22a7.6,7.6,0,0,1,.65,1.84Z"/><path class="cls-1" d="M82.36,95.14a11.4,11.4,0,0,0,6.42-6.36H83.09v-2h8.49a12.17,12.17,0,0,1-2.1,5.2,27,27,0,0,1,3.86,3.28L91.55,97a40.58,40.58,0,0,0-3.37-3.45,12.86,12.86,0,0,1-4.65,3.35Z"/><path class="cls-1" d="M103.84,88.12a6.18,6.18,0,0,1-3.64,5.78l-1.26-1.6a4,4,0,0,0,2.29-2l-3.38.35v3.27c0,.63.08.69.92.69h2.89a13.51,13.51,0,0,0,1.79-.15v2.08c-.42,0-1.29.1-1.74.1H98.29c-2.59,0-2.59-1.72-2.59-2.48V90.9l-2.22.23-.16-2.08,2.38-.2V86.29h2.15v2.37Z"/><path class="cls-1" d="M108.77,90.46a16.34,16.34,0,0,0-3.83-1.89l.92-1.79a17.41,17.41,0,0,1,4,1.76Zm-3.67,4.05c4.64-.39,7.09-2,8.43-6.92l2,1c-1.9,6.68-6.08,7.62-9.68,8.19Z"/><path class="cls-1" d="M120.88,90.37a11.18,11.18,0,0,1,2.39,1.27,7.4,7.4,0,0,0,1-2.23h-3.24a10.87,10.87,0,0,1-3.25,2.81l-1.33-1.51a8.19,8.19,0,0,0,4.08-4.65l2.25.27a7.6,7.6,0,0,1-.48,1.17h4.56c-.48,3.1-1.66,7.82-8.58,9.46l-1.09-1.9a10.32,10.32,0,0,0,4.53-1.87,13.05,13.05,0,0,0-2.26-1.4Z"/><path class="cls-1" d="M138.41,90.48v2.18H127.83V90.48Z"/></g></g></svg>