<?xml version="1.0" encoding="utf-8"?>
<!-- Generator: Adobe Illustrator 25.1.0, SVG Export Plug-In . SVG Version: 6.00 Build 0)  -->
<svg version="1.1" id="レイヤー_1" xmlns="http://www.w3.org/2000/svg" xmlns:xlink="http://www.w3.org/1999/xlink" x="0px"
	 y="0px" viewBox="0 0 400 71.9" style="enable-background:new 0 0 400 71.9;" xml:space="preserve">
<style type="text/css">
	.st0{fill:#1A1A1A;}
	.st1{fill:#182987;}
</style>
<g>
	<g>
		<polygon class="st0" points="0,52.2 4.2,52.2 4.2,26.8 14.7,26.8 14.7,22.8 0,22.8 		"/>
		<polygon class="st0" points="395.8,36.2 395.8,61.6 385.3,61.6 385.3,65.5 400,65.5 400,36.2 		"/>
	</g>
	<g>
		<path class="st1" d="M64,43.8c-3.4,3.4-4.6,8.3-7.8,11.7c-3.1,3.3-4,8.5-8.9,10.6c-2.6-6.6-1.9-13.1-1.7-19.3
			c4.3-4.4,10.9-5.7,12.9-12c-4.2,0.6-7.4,3.4-11.5,4.4c-0.3-2-0.1-3.9,0.6-5.8c4.3-4.1,9.9-6.1,14.2-10.9c-3-1.2-4.9-0.1-6.9,0.7
			c-1.9,0.8-3.6,2.4-6.1,1.4l2.6-8.6c-1.9-2.7-2.2-2.7-5.1-0.9c-1.5,4.9-1.3,10.1-3.2,14.5c-3.5,3.1-8,3.9-11.4,6.1
			c0.4,4.1,2.7,5.1,6.5,3.1c1.1-0.6,2-1.8,3.6-1.5v5c-3.9,3.1-9,4.4-12.6,7.7c-0.1,1.2,0.4,2.5,1.4,3.3c4,1.6,6.1-2.7,9.4-3.3
			c0.4,1.2,0.6,2.6,0.4,3.9c0.2,4.7,0,9.5,2.2,14c2.4,4.8,5.7,4.6,9.4,1.9c1.1-1,2-2.2,2.4-3.6c0.5-1.6,1.2-3.2,2.1-4.6
			c3.8-4.7,5.3-10.4,8-15.7c0.1-0.1,0.1-0.1,0.1-0.2C65,45.1,64.7,44.2,64,43.8z"/>
		<path class="st1" d="M135.3,51.1c2.5-6.8,7.1-12.3,11.6-17.8c2.1-2.5,4.3-4.8,6.3-7.1c-2.2-3.6-5-3.9-7-0.8
			c-2.1,3.4-5.8,5.6-6.8,9.9l-0.7-0.1c-1.2-4.3-2.5-8.6-3.6-12.8c-3.3-2.3-4.5-2.2-6.7,0.8c2.9,5.2,4.4,11.2,6.6,16.7
			c-0.3,1-0.7,2-1.3,2.9c-1.9,3.3-4.1,6.6-4.5,10.5c-0.7,5.6,2.3,10.7,9.7,7.9c1-0.4,1.9-0.8,2.8-1.3c4.4-2.4,8.4-5.4,11.9-9
			c1.8-1.9,4.2-3.4,4.6-6.4c-7.4,4.1-14.1,9.1-21.6,12.5C133.8,55.3,134.5,53.2,135.3,51.1z"/>
		<path class="st1" d="M103,34.2c-1.9-1.4-3.9-0.8-5.8,0.1c-6.8,3.2-12.2,8.4-18.4,12.2c-0.4,2-0.1,3.5,1.5,4.5
			c3.5,0.1,3.4,0.1,5.4-2.4c3.5-4.1,8-7.2,13-8.9c-1,8.6-3.5,16.9-7.6,24.6c2.1,0.8,3.2-0.7,4.2-1.9c5.2-6.6,7.3-14.5,9.1-22.4
			C104.9,37.7,105,35.6,103,34.2z"/>
		<path class="st1" d="M328.2,39.1c-0.2-7.9-1.1-15.7-0.7-23.5c-2.3-3.1-2.6-3.2-5.8-1.5c1.5,12.9,3.2,25.6,0.7,38.1
			c0.7,1.2,1.9,2,3.3,2.3c2.4-1,2.7-1.1,2.9-2.4c0.7-4.1,1.7-8.1,1.9-11.9C329.9,39,328.8,39.8,328.2,39.1z"/>
		<path class="st1" d="M346.4,35.7c-1.1-0.4-0.8-2-2.3-2.1c-1.1,0.9-2.3,1.8-3.7,2.9c0.3,3.2,1.1,4.4,3.7,4.5
			c7,0.3,13.8-0.2,19.6-4.7c1-0.8,2.6-1,2.6-3.4C359.6,33.8,353.2,36.3,346.4,35.7z"/>
		<path class="st1" d="M355.4,17.4c-3.7-2-16.3,3-19.8,7.7c0.5,2.3,1.8,3.5,4.8,3.1c2.3-2.1,4.9-4,7.6-5.5
			C350.5,21.1,353.8,20.5,355.4,17.4z"/>
		<path class="st1" d="M200.1,33.5L200.1,33.5L200.1,33.5L200.1,33.5C200.1,33.5,200.1,33.5,200.1,33.5c0,0-0.1-0.1-0.1-0.1
			c0,0,0,0,0,0C200,33.4,200.1,33.5,200.1,33.5L200.1,33.5z"/>
		<path class="st1" d="M200.7,34.9c0,0,0-0.1,0.1-0.1C200.7,34.8,200.7,34.8,200.7,34.9L200.7,34.9z"/>
		<path class="st1" d="M234.8,44.8c-6.7-3-12.9-6.9-18.5-11.7c-2.2-1.6-2.9-4.5-1.6-6.9c1.6-1.2,3.5-2.5,5.3-3.8
			c1.8-1.3,4.6-1.7,4.5-4.5c-0.7-1.2-2.1-0.9-2.7-2.2c0.4-1.3,0.9-2.8,1.4-4.3c0.6-1.5,1.2-3,0.4-4.6c-2-2.1-3.9-1.2-5.6,0.3
			c-1.2,1.1-2.3,2.4-4.4,2.3c0-2.3-0.8-4.1-3.1-4.9c-1.1-0.1-2.2,0.6-2.5,1.7c0.1,2.1,2.1,4.1,1.1,7l-7.8,5.5
			c-0.1,0.2-0.2,0.4-0.2,0.6c-0.3,1.5,0.7,3.1,2.2,3.4c3.1,0.1,3.7-3.5,6.5-3.7c0.4,1.8,0.4,3.6,0.1,5.4c-2.6,2-4.9,4.3-7.8,5.7
			c-1.4,0.5-2.3,2-2,3.5c0.5,0.3,1.1,0.5,0.7,1.3c1.1-0.6,2.3,0.9,3.2,0.1c1.8-0.6,2.4-2.7,4.8-2.9c1.3,4.5,0,9-0.4,13.5
			c-0.5,4.7-1.4,9.4-2.9,13.9c1.6,0.2,2.2-0.6,2.8-1.6c2.1-3.5,2.4-7.5,3.4-11.2c0.9-3.2,0.5-6.7,1.7-10.2
			c8.2,6.4,16.9,10.8,26.9,12.3C238.9,46.6,236.8,45.7,234.8,44.8z M214.6,14.6c1-1.1,2.2-1.8,3.7-2.1c-1.2,3,0.3,6.4-3.7,8.1V14.6z
			"/>
		<path class="st1" d="M189,36c-0.4-6.5-0.8-13.1-1.7-19.6c-0.4-2.3-0.3-4.8-1.1-7c-0.7-1.9-1.8-2.1-3.3-0.9
			c-0.2,4,4.6,51.1,5.8,53.2c0.7-3.4,1.7-6.7,1.2-10.2C189.2,46.4,189.2,41.2,189,36z"/>
		<path class="st1" d="M179.7,28c-1.8,0.2-2.2,1.3-1.8,2.9c0.4,1.6,0.4,3.2,0.1,4.7c-0.7,3.6-1.9,7.2-3.5,10.5
			c-1.1,2.4-1.9,4.9-2.9,7.6c1.3,0,2.6-0.4,3.8-1.1c4.1-6.5,7.1-13.8,7.1-22C181.6,29.5,181.1,28.3,179.7,28z"/>
		<path class="st1" d="M200,33.4c-2-1-1.5-3.1-2-4.8c-0.8-2.9-2.1-3.6-4.8-2.6c-0.5,4.8,4,12.7,8.1,13.8c0.7-1.8-1.3-3.3-0.6-5
			C199.9,34.6,199.4,34.3,200,33.4z"/>
		<path class="st1" d="M200.6,34.9C200.7,34.9,200.7,34.9,200.6,34.9L200.6,34.9C200.7,34.8,200.7,34.8,200.6,34.9z"/>
		<path class="st1" d="M295.4,13.5c-0.4-1.1-1.2-2-2.3-2.4c-3.2-1.5-4.8,2.7-8.1,2.2c1.3-2.4,3.1-4.4,1.9-6.8c1-1.6,3.2-1.3,3.7-3.1
			c-0.6-1.1-1.6-1.8-2.8-2.1c-3.6,1-7.1,2.4-10.3,4.4c-1.5-2.2-1.5-5.5-4.9-5.7c-1,0.4-1.7,1.4-1.9,2.5c0.7,2,1.5,4.2,2.2,6.3
			c-2.7,3.4-6.6,4.9-9.7,7.2c-0.4,2.9,0.8,4.1,3.1,4.2c2.4-0.8,3.5-3.2,5.9-3.7c1.3,1.6,1.3,3.4,1.4,5.2c-0.4,0.7-1.1,1.2-2,1.2
			c-0.4-0.4-0.8-0.7-1.3-1.1c-0.5-0.3-1.1-0.6-1.7-0.8c-1.3,0-2.5,0.8-2.9,2c2.2,10.4,1.3,21.3,3.2,31.6c0,0,0.1,0.1,0.1,0.1
			c0.8,0.8,2.1,0.8,2.8,0V31.5c2.2,2.5,4.2,0.5,6.1,0.7c1.4,4.3-3.5,4.5-4.5,7.6c-0.1,2.1-1.3,4.5,0.6,7c1.8,0.3,3.5,1,4.9,2.1
			c6.6-1.6,6.8-8.5,10.5-12.9c0.3,3.7,0.3,7.4-0.1,11.1c-7,4.3-24.9,12.6-27.3,12.5c0.8-2.3,1.7-4.6,2.4-7c0.8-2.7,0-4.3-2.4-5.6
			c-0.7-0.4-1.5-0.4-2.2-1.3c1.6-4,3.9-7.6,6.8-10.7c-0.3-1.5-1-2.8-2.1-3.9c-7.1,0.1-11.7,6.6-18.2,8.3c-0.4,2.1,0.1,3.2,1.5,3.9
			c1.5,0.6,3.2,0.3,4.4-0.8c1.2-0.8,2-2.6,3.9-2c-0.5,3.4-3.3,6.1-2.6,9.4c1.3,2.3,3.7,1.8,5.4,2.6c-0.5,6-5.1,9.5-8.4,13.3
			c2.4,2.8,4,3.3,6.6,2.2c2-0.8,3.9-1.8,5.8-2.8c8.3-4.1,16.5-8.4,25-12c1.2,0.2,2,1.2,3.4,1.2c1,0,2-0.6,2.5-1.5l0.5-2.9
			c6-3.5,13-5.3,18.2-10.2c-6.5,0.3-12.2,3.4-18.7,5.5C294.6,34.4,292.9,23.9,295.4,13.5z M278.3,18.3c-1.5-4.7-0.7-6.7,3-8.5
			C281.5,13.1,280.1,15.7,278.3,18.3z M289.8,33.9L289.8,33.9c-1.5-0.7-1.7-2.2-2.7-2.3c-1.4-0.6-2.4,0.1-3.5,0.3
			c-2-3.8,1.8-5.4,2.9-7.4c0-2.1-2-1.8-2.5-3.2c0.5-2.6,3.2-2.2,5.1-4.2C289.7,22.8,289.9,28.4,289.8,33.9z"/>
		<path class="st1" d="M260.8,27.3c-0.5-4.1-1.7-8.1-3.4-11.9c-1-2.4-3.3-2.2-5.5,0.3c2.9,4.2,4.1,9.5,7.5,13.7
			C260.6,28.4,260.8,27.9,260.8,27.3z"/>
	</g>
</g>
</svg>
