<?xml version="1.0" encoding="utf-8"?>
<!-- Generator: Adobe Illustrator 25.1.0, SVG Export Plug-In . SVG Version: 6.00 Build 0)  -->
<svg version="1.1" id="レイヤー_1" xmlns="http://www.w3.org/2000/svg" xmlns:xlink="http://www.w3.org/1999/xlink" x="0px"
	 y="0px" viewBox="0 0 400 68.6" style="enable-background:new 0 0 400 68.6;" xml:space="preserve">
<style type="text/css">
	.st0{fill:#1A1A1A;}
	.st1{fill:#182987;}
</style>
<g>
	<g>
		<polygon class="st0" points="0,48.1 4.2,48.1 4.2,22.7 14.7,22.7 14.7,18.8 0,18.8 		"/>
		<polygon class="st0" points="395.8,32.2 395.8,57.6 385.3,57.6 385.3,61.5 400,61.5 400,32.2 		"/>
	</g>
	<g>
		<path class="st1" d="M216.6,41.2c-0.6-5.2,3.3-7.1,6.8-9.5c3.9-0.2,4.8-0.9,5.2-5.2c0.5-4.7,0.8-9.5,1.3-14.2
			c0.1-1.1-0.3-2.1-1.1-2.8c-1.3-0.4-2.7-1.2-4.5-0.4c-1,0.9-1.8,2.9-3.9,2.7c-0.3-1-0.4-2.1-0.2-3.2c2.2-2.3,5.1-3.6,7.8-5.2
			c0.1-0.3,0.2-0.6,0.2-0.9c0-1.1-0.8-2.1-2-2.1c-4.3,0.8-7.3,4.4-11.2,4.6c-1.2,1-1,2.4-2.2,3c-4.1,2.1-6.7,6-10.6,8.4
			c-1,0.5-1.6,1.6-1.6,2.7c3.1,5,4.6,9.9,2.6,15.7c2.9,1.9,0,6.3,3.1,8.4c1.7,0.5,3.4-1.9,4.9,0.5c-1.5,3.9-0.6,8.6-3.8,12
			c0.9,1.6,1.9,1.3,2.9,0.6c1.4-0.9,2.5-2.3,3.1-3.9c0.7-2.1,1-4.3,2.5-6.6c6.7,6.2,15.5,6,23.6,8.1
			C233.1,47.1,222.9,47.5,216.6,41.2z M223.5,16.1c0.5,2.5,0.1,2.9-4.2,2.7C221.3,17.9,222,16.5,223.5,16.1z M223.6,23.2
			c0.9,0.7,0.8,1.7,0.5,2.6h0c-1.4,1.6-3.5,1.9-5,3.5C218.6,26,219.2,25.3,223.6,23.2z M210.2,34.8c-0.8-0.9-1.3-1.8-0.8-2.9
			c1.1-0.7,2.1,0.1,3.5,0C212.6,33.3,211.6,34.4,210.2,34.8z M214.3,17c-2.5,0.9-3.7,4.3-7.5,4.5c1.1-4.4,4.5-6,7.4-8.4
			C215.1,14.5,214.6,15.6,214.3,17z"/>
		<path class="st1" d="M196.4,5.8c-1.5-1.2-2.9-0.8-4.4,0.6c-1.8,11.6-7.3,21.8-12.3,32.6c3.8-1,4-4.8,6.6-6.1
			c0.2,0.4,0.3,0.7,0.4,1.1c0.7,10.1,0.9,20.2,0.6,30.3c0,1.6-0.3,3,1.9,3.2c1.8-1.8,2-4.2,2.1-6.5c0.1-3.2,0.1-6.3,0.3-9.5
			c0.5-9.1,0.5-18.3-0.1-27.5c2.2-4.6,4-9.3,5.5-14.1C197.5,8.3,197.8,6.9,196.4,5.8z"/>
		<path class="st1" d="M266,30c-0.1-2.1-0.7-4-0.2-5.8c1.8-3.1,6.2-2.7,7.1-6c-0.3-1.1-0.7-1.7-1.5-2c-2.5-1-4,1.8-6.4,2.1v-4.5
			c-0.7-1.9-2.2-2.1-2.9-3.2c0.6-2.1,1.6-4.1,2.8-5.9c0.3-1.2,0.1-2.5-0.5-3.6c-1.5-1.2-3.1-1.2-5.2,0.1c-1.4,8.7-5,16.9-8,25.4
			c4.1-2,5.5-6.3,8.6-9.7c0.2,1.9,0.3,3.1,0.4,4.6c-4.5,3.5-8.4,7.4-13.1,10c0.1,2.2,1,3.4,2.8,3.8c1.5,0.3,3-0.4,3.8-1.7
			c1.9-2.4,4.4-4.2,7.2-5.5c0.7,2.6,0.6,4.5-2.1,5.5c-0.7,0.3-1.3,0.8-1.7,1.5c-1.5,3.5-3.2,6.9-5.2,10.2c-1.1,1.9-2.9,3.7-3.5,6
			c2.3,0.8,2.3,0.9,3.7-0.3c2.1-1.9,3.9-4.1,5.3-6.6c1.2-1.9,2.8-3.6,4.7-4.8c-0.8,7.7,1.4,14.8-0.6,21.9c0.7,1.2,1.5,2.1,2.9,2.2
			c1.6-0.6,1.9-1.8,2-3.3c0.5-6.7,0.5-13.4,0-20c-0.2-1.3-0.1-2.6,0.3-3.8c4.4-0.1,8.5,2.8,12.8,1.5c0.5-0.9,0.6-1.5,0.3-1.7
			C275.5,33.1,270.6,32,266,30z"/>
		<path class="st1" d="M305.8,46.9c-2-12.3-3.2-24.7-2-37.2c0.1-1.5,0.3-3.1-1.2-3.9c-1.4-1-3.4-0.8-4.6,0.5
			c0.6,14.6,1,29.4,3.8,44.3c-5.7-0.7-8.5-5.9-14-7.3c2.6,6.9,13.8,14.6,19.3,13.7c1-0.9,1.4-2.2,1.2-3.5
			C307,51.4,306.1,49.2,305.8,46.9z"/>
		<path class="st1" d="M291.1,24.7c-0.8-4-0.9-8.1-0.4-12.1c0.3-1.1,0.2-2.2-0.4-3.1c-1.6-0.8-3.3-1.7-5.3,0.3
			c1.1,6.5-0.2,13.7,4.6,19.9C291,28.4,291.6,26.5,291.1,24.7z"/>
		<path class="st1" d="M68.4,40.6c-3.4,3.4-4.6,8.3-7.8,11.7c-3.1,3.3-4,8.5-8.9,10.6c-2.6-6.6-1.9-13.1-1.7-19.3
			c4.3-4.4,10.9-5.7,12.9-12c-4.2,0.6-7.4,3.4-11.5,4.4c-0.3-2-0.1-3.9,0.6-5.8c4.3-4.1,9.9-6.1,14.2-10.9c-3-1.2-4.9-0.1-6.9,0.7
			c-1.9,0.8-3.6,2.4-6.1,1.4l2.6-8.6c-1.9-2.7-2.2-2.7-5.1-0.9c-1.5,4.9-1.3,10.1-3.2,14.5c-3.5,3.1-8,3.9-11.4,6.1
			c0.4,4.1,2.7,5.1,6.5,3.1c1.1-0.6,2-1.8,3.6-1.5v5c-3.9,3.1-9,4.4-12.6,7.7c-0.1,1.2,0.4,2.5,1.4,3.3c4,1.6,6.1-2.7,9.4-3.3
			c0.4,1.2,0.6,2.6,0.4,3.9c0.2,4.7,0,9.5,2.2,14c2.4,4.8,5.7,4.6,9.4,1.9c1.1-1,2-2.2,2.4-3.6c0.5-1.6,1.2-3.2,2.1-4.6
			c3.8-4.7,5.3-10.4,8-15.7c0.1-0.1,0.1-0.1,0.1-0.2C69.4,41.9,69.1,41,68.4,40.6z"/>
		<path class="st1" d="M139.7,47.9c2.5-6.8,7.1-12.3,11.6-17.8c2.1-2.5,4.3-4.8,6.3-7.1c-2.2-3.6-5-3.9-7-0.8
			c-2.1,3.4-5.8,5.6-6.8,9.9l-0.7-0.1l-3.6-12.8c-3.3-2.3-4.5-2.2-6.7,0.8c2.9,5.2,4.4,11.2,6.6,16.7c-0.3,1-0.7,2-1.3,2.9
			c-1.9,3.3-4.1,6.6-4.5,10.5c-0.7,5.6,2.3,10.7,9.7,7.9c1-0.4,1.9-0.8,2.8-1.3c4.4-2.4,8.4-5.4,11.9-9c1.8-1.9,4.2-3.4,4.6-6.4
			c-7.4,4.1-14.1,9.1-21.6,12.5C138.1,52,138.9,50,139.7,47.9z"/>
		<path class="st1" d="M107.4,31c-1.9-1.4-3.9-0.8-5.8,0.1c-6.8,3.2-12.2,8.4-18.4,12.2c-0.4,2-0.1,3.5,1.5,4.5
			c3.5,0.1,3.4,0.1,5.4-2.4c3.5-4.1,8-7.2,13-8.9c-1,8.6-3.5,16.9-7.6,24.6c2.1,0.8,3.2-0.7,4.2-1.9c5.2-6.6,7.3-14.5,9.1-22.4
			C109.3,34.5,109.4,32.4,107.4,31z"/>
		<path class="st1" d="M332.6,35.9c-0.2-7.9-1.1-15.7-0.7-23.5c-2.3-3.1-2.6-3.2-5.8-1.5c1.5,12.9,3.2,25.6,0.7,38.1
			c0.7,1.2,1.9,2,3.3,2.3c2.4-1,2.7-1.1,2.9-2.4c0.7-4.1,1.7-8.1,1.9-11.9C334.2,35.7,333.2,36.6,332.6,35.9z"/>
		<path class="st1" d="M350.8,32.5c-1.1-0.4-0.8-2-2.3-2.1c-1.1,0.9-2.3,1.8-3.7,2.9c0.3,3.2,1.1,4.4,3.7,4.5
			c7,0.3,13.8-0.2,19.6-4.7c1-0.8,2.6-1,2.6-3.4C363.9,30.6,357.5,33.1,350.8,32.5z"/>
		<path class="st1" d="M359.7,14.2c-3.7-2-16.3,3-19.8,7.7c0.5,2.3,1.8,3.5,4.8,3.1c2.3-2.1,4.9-4,7.6-5.5
			C354.8,17.9,358.1,17.3,359.7,14.2z"/>
	</g>
</g>
</svg>
