<?xml version="1.0" encoding="utf-8"?>
<!-- Generator: Adobe Illustrator 25.1.0, SVG Export Plug-In . SVG Version: 6.00 Build 0)  -->
<svg version="1.1" id="レイヤー_1" xmlns="http://www.w3.org/2000/svg" xmlns:xlink="http://www.w3.org/1999/xlink" x="0px"
	 y="0px" viewBox="0 0 400 38.7" style="enable-background:new 0 0 400 38.7;" xml:space="preserve">
<style type="text/css">
	.st0{fill:#1A1A1A;}
</style>
<g>
	<path class="st0" d="M21.6,17.5c-2.9,0-5.8,0.5-8.6,1.3v-1.4c0-1.5,0-3.1,0.1-4.8c2.8-0.3,5.6-0.8,8.4-1.4L21.3,7
		c-2.7,0.8-5.4,1.3-8.2,1.6c0.1-1.5,0.1-2.8,0.2-3.8c0-1,0.2-2.4,0.3-3.2H9c0.2,1.1,0.2,2.2,0.3,3.3c0,0.8,0,2.3,0,4.2
		c-1,0-2,0.1-2.9,0.1C4.5,9.2,2.7,9,0.9,8.8l0.1,4C2.6,13,4.6,13,6.5,13c0.8,0,1.7,0,2.7-0.1c0,1.6,0,3.1,0,4.6v2.6
		C4.2,22.2,0,25.9,0,29.4c0,4,5.5,7.3,9.1,7.3c2.4,0,4.1-1.3,4.1-5.7c0-1.6-0.1-5.1-0.2-8.6c2.8-0.9,5.6-1.4,8.5-1.4
		c3.8,0,6.7,1.8,6.7,5c0,3.5-3.1,5.4-6.5,6c-1.7,0.2-3.3,0.3-5,0.3l1.5,4.2c1.8,0,3.5-0.2,5.2-0.6c6.1-1.5,9-4.9,9-9.9
		C32.4,20.8,27.8,17.5,21.6,17.5z M8,32.3c-1.4,0-3.9-1.4-3.9-3.1c0-1.7,2.1-3.8,5.1-5.2c0,2.7,0.1,5.1,0.1,6.4
		C9.4,31.8,8.9,32.3,8,32.3z"/>
	<path class="st0" d="M24.2,9.4c3.4,1.7,6.6,3.8,9.6,6.1l2.1-3.4c-3.1-2.2-6.4-4.2-9.8-6L24.2,9.4z"/>
	<polygon class="st0" points="56.7,7.2 84.3,7.2 84.3,12.1 88.2,12.1 88.2,3.7 72.5,3.7 72.5,0.1 68.5,0.1 68.5,3.7 52.9,3.7 
		52.9,12.1 56.7,12.1 	"/>
	<path class="st0" d="M82.1,12l-2.6-1.6l-0.7,0.2H67.9c0.6-0.7,1.1-1.4,1.6-2.1l-4.1-0.8c-3,4.1-7.1,7.2-11.9,9
		c1,0.8,1.9,1.8,2.6,2.9c2.1-1,4.1-2.1,5.9-3.5c1.5,1.5,3.1,2.9,4.8,4.1c-5,2.3-10.3,4-15.7,4.9c0.8,1,1.5,2.2,1.9,3.4
		c2-0.4,4-0.9,6-1.5v11.6h3.8v-1.3h15.6v1.3h4V26.6c1.6,0.4,3.3,0.7,5,1c0.7-1.4,1.5-2.6,2.5-3.8c-5.4-0.5-10.6-1.8-15.7-3.8
		C77.4,17.8,80.1,15.1,82.1,12z M64.8,13.8l0.3-0.2h11.2c-1.7,1.8-3.6,3.3-5.7,4.6C68.5,17,66.5,15.5,64.8,13.8z M78.4,33.9H62.9v-5
		h15.6V33.9z M79.2,25.7H62.8c2.7-0.9,5.3-2.1,7.8-3.4C73.3,23.7,76.2,24.9,79.2,25.7z"/>
	<path class="st0" d="M137.5,27.7l0.6,0.5c2-1.7,3.9-3.5,5.7-5.5l-3-2.1c-1.4,1.9-2.9,3.6-4.7,5.2c-0.8-1.5-1.6-3-2.1-4.6v-1.8h10.2
		v-3.3H134v-2.6h8.6v-3H134V8.2h9.5V5.1h-4.9c0.8-1.2,1.6-2.6,2.4-4l-3.9-1c-0.6,1.7-1.3,3.4-2.2,5.1h-6.2l0.5-0.2
		c-0.6-1.7-1.4-3.3-2.4-4.7l-3.1,1c0.7,1.2,1.4,2.5,1.9,3.9h-4.8v3.1h9.4v2.3H122v3h8.2v2.6H120v3.3h10.3v15.1
		c0,0.5-0.2,0.7-0.7,0.7c-0.5,0-2.3,0-3.9,0c0.5,1.1,0.9,2.3,1,3.5c1.9,0.2,3.9,0,5.7-0.6c1.2-0.6,1.6-1.6,1.6-3.5v-6.4
		c1.9,3.7,4.9,6.7,8.5,8.7c0.7-1.2,1.5-2.2,2.4-3.1C142,32.4,139.4,30.3,137.5,27.7z"/>
	<path class="st0" d="M123.8,20.8l-2.7,1.8c1.5,1.7,2.9,3.5,4.1,5.5l2.9-2C126.9,24.1,125.4,22.4,123.8,20.8z"/>
	<path class="st0" d="M115.5,14.9v-2.3h4.5V8.9h-4.5V0.1h-3.6v8.9h-5.5v3.6h5.1c-1.1,5.3-3.1,10.4-6,15c0.7,1.1,1.3,2.2,1.8,3.4
		c2-3.1,3.5-6.5,4.5-10.1v17.7h3.6V19.5c1.1,2,2.3,4.2,2.9,5.5l2.1-2.9C119.7,21.1,116.6,16.4,115.5,14.9z"/>
	<path class="st0" d="M128.5,27.7c-3.7,2-7.5,4-10.1,5.2l1.8,3.3c2.8-1.5,6.2-3.4,9.4-5.3L128.5,27.7z"/>
	<path class="st0" d="M180,4.8c-10.4,0-18.6,8-18.6,17.2c0,6.9,3.8,11.6,7.9,11.6c4.2,0,7.6-4.7,10.1-13.2c1.1-3.8,1.9-7.7,2.5-11.7
		c6.4,0.8,10,5.5,10,11.6c0,6.7-4.7,10.6-10.1,11.8c-1.2,0.3-2.4,0.5-3.7,0.6l2.5,3.9c10.2-1.4,15.7-7.5,15.7-16.2
		C196.3,11.8,190,4.8,180,4.8z M175.2,19.6c-1.9,6.4-3.9,9.1-5.7,9.1c-1.7,0-3.8-2.2-3.8-7c0-5.1,4.4-11.6,11.8-12.8
		C177.1,12.5,176.3,16.1,175.2,19.6z"/>
	<polygon class="st0" points="223.9,7.4 227.7,7.4 227.7,5.7 237.6,5.7 237.6,7.4 241.4,7.4 241.4,5.7 251.3,5.7 251.3,2.5 
		241.4,2.5 241.4,0.1 237.6,0.1 237.6,2.5 227.7,2.5 227.7,0.1 223.9,0.1 223.9,2.5 214.3,2.5 214.3,5.7 223.9,5.7 	"/>
	<path class="st0" d="M251.5,24v-3h-22.3c0.4-0.6,0.7-1.2,1-1.9h16.2V7.9h-27.2v11.2h6.8c-0.3,0.7-0.7,1.3-1.2,1.9h-10.8v3h8.1
		c-2.6,2.2-5.7,4-8.9,5.1c0.9,0.8,1.6,1.7,2.2,2.8c1.9-0.8,3.8-1.7,5.5-2.8v9.4h3.8v-1.2H241v1.2h4v-9.4c1.6,0.9,3.3,1.6,5.1,2.2
		c0.6-1.1,1.3-2.1,2.2-2.9c-3.5-0.8-6.7-2.3-9.6-4.4H251.5z M242.6,10.3v2.1h-19.7l0-2.1H242.6z M222.9,16.7l0-2.1h19.7v2.1H222.9z
		 M227,24h11.6c0.7,0.8,1.4,1.5,2.2,2.2h-15.9C225.6,25.6,226.3,24.8,227,24z M241,35h-16.3v-2.1H241V35z M241,30.7h-16.3v-2H241
		L241,30.7z"/>
	<path class="st0" d="M293.5,5.3c-5.5-0.7-11-1.8-16.3-3.2l-1,4c3.2,0.8,12.3,2.7,16.4,3.3L293.5,5.3z"/>
	<path class="st0" d="M288.1,16.2c-4.7,0-9.3,1.6-12.9,4.5c0.3-2.6,1-8.1,1.6-10.7l-4.4-0.6c-0.4,5.7-1.1,11.4-2.1,17.1l3.9,0.9
		c0.4-0.8,0.8-1.6,1.4-2.2c3.1-3.5,7.6-5.4,12.3-5.2c4,0,6.8,2.1,6.8,5.2c0,5.5-6.5,8.9-19.3,7.3l1.3,4.3c16.2,1.3,22.6-4,22.6-11.5
		C299.1,20.4,294.8,16.2,288.1,16.2z"/>
	<path class="st0" d="M332.3,33.1c-3.6,0-6.3-1.5-6.3-5.9c0-5.8,0.3-15.4,0.5-20c0.1-1.6,0.2-3.2,0.5-4.7l-5.3,0
		c0.3,1.6,0.4,3.2,0.4,4.8c0,4-0.4,14.7-0.4,20.6c0,6.9,4.2,9.6,10.6,9.6c7.1,0,13.7-3.5,17.7-9.3l-3-3.7
		C343.9,29,339.6,33.1,332.3,33.1z"/>
	<path class="st0" d="M378.6,29.9c0-2.4,2.2-4.3,5.7-6.3c0,2.1,0,4.4-0.2,5.8l4,0c0-2-0.1-5.3-0.2-7.6c2.9-1.3,5.6-2.5,7.7-3.3
		c1.3-0.5,3.1-1.2,4.2-1.5l-1.6-3.9c-1.3,0.7-2.6,1.2-3.9,1.8c-2,0.9-4.1,1.8-6.7,3c-0.9-2.3-3.1-3.7-5.5-3.5
		c-1.8,0-3.6,0.4-5.3,1.2c1.2-1.7,2.3-3.5,3.1-5.4c4.6-0.1,9.1-0.5,13.7-1.1V5.3c-4.1,0.7-8.2,1.1-12.3,1.2c0.6-1.8,0.9-3.4,1.2-4.5
		l-4.3-0.3c-0.2,1.7-0.5,3.4-1,5h-2.4c-2.4,0-4.8-0.2-7.1-0.5v3.9c2.3,0.2,5.2,0.3,6.9,0.3h1.2c-2.4,4.6-5.6,8.7-9.4,12.1l3.6,2.7
		c1.2-1.6,2.4-3.1,3.8-4.4c1.9-1.8,4.3-2.9,6.9-3c1.5-0.2,2.8,0.7,3.4,2.1c-4.8,2.4-9.8,5.7-9.8,10.8c0,5.2,4.8,6.6,11,6.6
		c3.9,0,7.7-0.3,11.5-0.7l0.1-4.2c-3.8,0.7-7.7,1-11.5,1.1C381.3,33.3,378.6,32.8,378.6,29.9z"/>
</g>
</svg>
