<svg xmlns="http://www.w3.org/2000/svg" viewBox="0 0 351.26592 71.16958"><defs><style>.cls-1{fill:#182987;}</style></defs><g id="レイヤー_2" data-name="レイヤー 2"><g id="LP"><path class="cls-1" d="M8.9666,5.8584c1.12061,3.52148,3.20117,6.41846,6.29053,7.6831a6.10367,6.10367,0,0,0-.89649,1.12061c-3.07324-1.45654-5.10595-4.29-6.3706-7.92334a11.20349,11.20349,0,0,1-6.38623,7.92334,3.43979,3.43979,0,0,0-.89649-.97656A10.39052,10.39052,0,0,0,6.93389,5.8584H1.02764V4.64209H7.12578A34.09357,34.09357,0,0,0,7.366.09619H8.64629a37.08377,37.08377,0,0,1-.25586,4.5459h6.61084V5.8584Z"/><path class="cls-1" d="M20.90068,7.31494c-.57666-.51221-1.74511-1.37646-2.59326-1.98486l.68848-.81641c.832.56055,2.0166,1.37647,2.625,1.87305Zm1.26416,1.95264c-.688,1.63281-1.58447,3.58545-2.353,5.0581l-1.05616-.75244a47.24241,47.24241,0,0,0,2.481-5.07373Zm-.3042-6.03418a31.9996,31.9996,0,0,0-2.625-2.08106L19.972.352a28.46857,28.46857,0,0,1,2.64111,1.95264Zm5.97071,4.32178V8.81934h4.17773V9.812H27.83135v1.39258H32.761V12.229H27.83135v2.44873H26.64678V12.229H22.117V11.20459h4.52979V9.812H22.88506V8.81934h3.76172V7.55518H23.14141V6.59473h3.50537V5.16992H22.27715v-1.04h4.36963V2.72119h-3.4253V1.76074h3.4253V.08008h1.18457V1.76074H31.657V4.12988h1.26416v1.04H31.657V7.55518Zm0-3.4253h2.70507V2.72119H27.83135Zm0,2.46485h2.70507V5.16992H27.83135Z"/><path class="cls-1" d="M43.89433,3.44141V5.60205h5.13819v5.60254c0,.688-.16016,1.04053-.68848,1.23242a9.54325,9.54325,0,0,1-2.80127.208,5.36688,5.36688,0,0,0-.416-1.16846c1.07226.03223,2.03271.03223,2.3208.03223.27246-.03223.35254-.09619.35254-.3042V6.73877H43.89433v7.9873H42.678V6.73877H39.0125V12.709H37.82793V5.60205H42.678V3.44141H36.19512V2.27295h6.46679V0h1.24854V2.27295h6.59472V3.44141Z"/><path class="cls-1" d="M61.47832.03223a20.03471,20.03471,0,0,0,6.979,6.21045,6.93452,6.93452,0,0,0-.78418,1.02441,22.0152,22.0152,0,0,1-6.72265-6.06641,20.892,20.892,0,0,1-6.59473,6.16211,4.00457,4.00457,0,0,0-.75244-.92822A18.925,18.925,0,0,0,60.27812.03223Zm.24023,13.09326h6.08252V14.23H54.27568V13.12549h2.00049V7.23486h1.18457v5.89063h3.02539v-8.772h1.23242v3.73H66.3123V9.15576H61.71855Z"/><path class="cls-1" d="M80.35869,10.88428a14.64619,14.64619,0,0,0,5.71436,2.52929,4.283,4.283,0,0,0-.8003,1.05616,15.10522,15.10522,0,0,1-6.01855-3.28125v3.48925H78.08574V11.26855a16.088,16.088,0,0,1-5.97021,3.15333,5.08311,5.08311,0,0,0-.76856-1.00831,15.42456,15.42456,0,0,0,5.65039-2.52929H71.763V9.876h6.32275V8.69141H73.26787V7.7793h4.81787V6.61084H72.46758V5.63428h3.48925a6.73091,6.73091,0,0,0-.78417-1.60059l.56005-.1123H71.827V2.897h2.54541A12.49322,12.49322,0,0,0,73.10771.57617L74.116.24023a11.02123,11.02123,0,0,1,1.36084,2.353l-.8164.30371H76.6292V.064h1.10449V2.897h1.90479V.064h1.12011V2.897h1.937l-.59228-.19189A18.18569,18.18569,0,0,0,83.31963.272l1.21679.32032A22.33085,22.33085,0,0,1,83.12773,2.897h2.481V3.92139H82.40752c-.32031.6084-.67236,1.23291-.99268,1.71289h3.63379v.97656H79.2542V7.7793H84.264v.91211H79.2542V9.876h6.41846v1.0083ZM76.37285,3.92139A6.20868,6.20868,0,0,1,77.17314,5.522l-.5122.11231h3.76172l-.16016-.04785a14.666,14.666,0,0,0,.81641-1.665Z"/><path class="cls-1" d="M102.93682,6.37061s-.01612.36816-.01612.54394c-.208,4.86621-.3999,6.64307-.88037,7.20313a1.34438,1.34438,0,0,1-1.08838.5122,13.63293,13.63293,0,0,1-2.1289-.01611,2.60325,2.60325,0,0,0-.33594-1.10449c.84814.08008,1.6167.09619,1.93652.09619a.64137.64137,0,0,0,.57617-.22412c.35254-.36817.52832-1.88867.70459-5.95459H91.92412a14.49091,14.49091,0,0,1-2.09668,6.85107,3.55421,3.55421,0,0,0-.94434-.75244c1.793-2.59277,1.96875-6.22656,1.96875-8.83545V.9126h10.96436V4.99414H92.03642c0,.43213-.01611.896-.04785,1.37647ZM92.03642,1.937v2.0166h8.61133V1.937Zm2.38477,10.852v.92823H93.33281v-5.042h6.06641v4.11377Zm0-3.1372V11.813h3.87354V9.65186Z"/><path class="cls-1" d="M120.29668,8.0835V14.646h-1.21631v-.96045h-9.98828v.99218H107.908V8.0835h1.18408v4.43359H113.366v-5.458h-4.85009V1.58447h1.18457V5.90625H113.366V.16016h1.21631V5.90625h3.8418V1.58447h1.23242V7.05908h-5.07422v5.458h4.49805V8.0835Z"/><path class="cls-1" d="M129.14092,4.32178c-1.44043.46435-2.94532.92822-4.14551,1.3125l-.46436-1.04053c1.15235-.272,2.833-.75244,4.46582-1.2002Zm1.26465,8.4834a22.80834,22.80834,0,0,1-4.88184,1.92089,9.309,9.309,0,0,0-.88037-.89648,18.3246,18.3246,0,0,0,4.68945-1.53662Zm-1.74463-10.228a19.32561,19.32561,0,0,0-3.34571-1.34473l.52832-.8164a20.52037,20.52037,0,0,1,3.34522,1.23242ZM126.66,5.71436h10.356v6.41845H126.66Zm1.15234,1.87255h8.01953V6.51465H127.8123Zm0,1.87305h8.01953V8.35547H127.8123Zm0,1.88867h8.01953V10.228H127.8123Zm3.69776-9.21972a8.41412,8.41412,0,0,1-1.42481,1.39257,3.00826,3.00826,0,0,0-.89648-.59228A6.949,6.949,0,0,0,131.60576.064l1.07275.17627a10.181,10.181,0,0,1-.54443.99219h5.47412l.19238-.04785.8003.23975a10.80618,10.80618,0,0,1-1.60059,2.27295l-.96045-.33594a6.50384,6.50384,0,0,0,.97608-1.23242h-2.561c.35254,1.23242,1.24854,2.38476,4.53028,2.88134a3.3524,3.3524,0,0,0-.6084.96c-2.72119-.48-3.88965-1.50439-4.48194-2.65673-.624,1.18408-1.80859,1.93652-4.08154,2.38476a3.26089,3.26089,0,0,0-.56006-.84814c2.60889-.46436,3.56934-1.26465,3.95313-2.72119Zm2.52881,10.21191c1.729.56055,3.6333,1.24854,4.80224,1.77686l-1.313.59228a35.03965,35.03965,0,0,0-4.46582-1.76074Z"/><path class="cls-1" d="M149.89433.09619a17.2482,17.2482,0,0,0,6.979,5.47412,6.35332,6.35332,0,0,0-.76856,1.05615,19.62045,19.62045,0,0,1-6.75488-5.394,18.30736,18.30736,0,0,1-6.61035,5.4585,3.73027,3.73027,0,0,0-.68848-.94483,16.81428,16.81428,0,0,0,6.627-5.6499Zm-7.01074,7.95508h13.15723V9.15576H148.534c-.56054,1.18457-1.24853,2.561-1.88916,3.68164,1.98487-.06445,4.24219-.14453,6.48291-.24023a24.643,24.643,0,0,0-2.11279-2.16113l1.0083-.544a21.31977,21.31977,0,0,1,3.76172,4.17773l-1.07275.65625a9.97387,9.97387,0,0,0-.73633-1.07275c-3.92139.19238-8.0669.36816-10.8042.46436l-.16016-1.16846c.68848-.01611,1.48877-.03223,2.353-.064a30.18175,30.18175,0,0,0,1.72852-3.72949h-4.20948Zm10.292-3.041V6.09863h-7.5708V5.01025Z"/><path class="cls-1" d="M165.7332,10.084c-.416-.46435-1.29638-1.36035-2.0166-2.03271v6.62646h-1.16846V8.4834a15.87544,15.87544,0,0,1-2.44922,1.98486,5.36982,5.36982,0,0,0-.624-1.07226,13.88522,13.88522,0,0,0,5.00977-5.25049H160.035V3.05713h2.51318V.08008h1.16846v2.977h1.39258l.208-.04785.67236.44824a14.83525,14.83525,0,0,1-2.06494,3.48926c.73633.59228,2.145,1.8247,2.54492,2.17676ZM174.553,13.061V14.23h-8.96387V13.061h4.0498V6.41846h-3.42529V5.26611H169.639V.19189h1.18457V5.26611h3.40918V6.41846h-3.40918V13.061Z"/><path class="cls-1" d="M184.77422,5.68213a1.69678,1.69678,0,1,1-1.69678,1.69678A1.68719,1.68719,0,0,1,184.77422,5.68213Z"/><path class="cls-1" d="M203.44658,5.8584c1.12061,3.52148,3.20117,6.41846,6.29053,7.6831a6.12428,6.12428,0,0,0-.89649,1.12061c-3.07324-1.45654-5.106-4.29-6.3706-7.92334a11.20349,11.20349,0,0,1-6.38623,7.92334,3.43979,3.43979,0,0,0-.89649-.97656,10.39052,10.39052,0,0,0,6.22657-7.82715h-5.90625V4.64209h6.09814A34.09357,34.09357,0,0,0,201.846.09619h1.28028a37.08377,37.08377,0,0,1-.25586,4.5459h6.61084V5.8584Z"/><path class="cls-1" d="M218.0208,1.16846c-.48,1.3125-1.05615,2.94531-1.58447,4.20947a4.95205,4.95205,0,0,1,1.4248,3.42578,2.18867,2.18867,0,0,1-.62451,1.82471,1.72363,1.72363,0,0,1-.832.28808,7.79609,7.79609,0,0,1-1.07276.03174,2.4064,2.4064,0,0,0-.30419-1.05615,4.656,4.656,0,0,0,.92871.01611.97.97,0,0,0,.5122-.12841,1.41179,1.41179,0,0,0,.31983-1.08838A4.51468,4.51468,0,0,0,215.36406,5.522c.46387-1.16845.92822-2.59277,1.26465-3.68115h-2.09717V14.67773h-1.05615V.75244h3.58545l.19189-.04834Zm8.772,4.22558a13.33254,13.33254,0,0,1-2.51318,6.09864,9.44647,9.44647,0,0,0,3.29736,2.19287,3.97919,3.97919,0,0,0-.80029.99218,9.76985,9.76985,0,0,1-3.24951-2.30468,10.61448,10.61448,0,0,1-3.44141,2.3208,3.79492,3.79492,0,0,0-.7041-.97656,8.922,8.922,0,0,0,3.37744-2.24073,15.209,15.209,0,0,1-2.46533-5.16992h-.07959c-.06445,2.60889-.46436,6.03418-2.24121,8.37109a4.59537,4.59537,0,0,0-.91211-.73632c1.85644-2.417,2.0166-5.82618,2.0166-8.3711V.99219h8.0835V2.08105h-6.94678V5.21826h5.63428l.19189-.04834Zm-5.41015.9126a12.97357,12.97357,0,0,0,2.12841,4.28955,11.50291,11.50291,0,0,0,1.937-4.28955Z"/><path class="cls-1" d="M241.25566,4.00146a5.74135,5.74135,0,0,0,1.02442-.08007l.896.44824a5.03085,5.03085,0,0,0-.08008.78467c-.064,1.53662-.25585,6.19433-.97607,7.73095a1.64134,1.64134,0,0,1-1.71289.97657c-.81641,0-1.74463-.04834-2.57715-.11231l-.15967-1.32861a19.42182,19.42182,0,0,0,2.38477.17627.87511.87511,0,0,0,.92822-.51221c.6084-1.23242.81641-5.17041.81641-6.88281h-4.48194C236.7415,9.812,235.077,12.229,232.4041,14.06982l-1.15283-.94433a8.25654,8.25654,0,0,0,1.63281-1.18457,10.255,10.255,0,0,0,3.16943-6.73877h-2.68945a16.94084,16.94084,0,0,0-1.84033.064V3.92139c.56006.04834,1.21631.08007,1.82471.08007h2.81689c.03223-.5122.064-1.05615.064-1.61669a9.2967,9.2967,0,0,0-.11182-1.32813h1.50439c-.04785.352-.08007.91211-.0957,1.29639-.01611.57617-.04834,1.12011-.08008,1.64843ZM241.86357.9126a24.63947,24.63947,0,0,1,1.3125,2.19287l-.86425.38379a19.3856,19.3856,0,0,0-1.29639-2.209ZM243.62432.272a19.83722,19.83722,0,0,1,1.32861,2.17676l-.84815.38428A16.694,16.694,0,0,0,242.77617.64014Z"/><path class="cls-1" d="M260.2957,2.75293a4.61164,4.61164,0,0,0-.40039.70459,20.24668,20.24668,0,0,1-2.689,4.68994,45.84637,45.84637,0,0,1,4.67382,4.76953l-1.12011.97656a36.99406,36.99406,0,0,0-4.40186-4.7539,20.28863,20.28863,0,0,1-6.24267,4.67383l-1.02442-1.07227a18.29862,18.29862,0,0,0,6.59473-4.75391,14.268,14.268,0,0,0,2.65723-4.4497h-6.24268c-.56006,0-1.44043.064-1.6167.08008v-1.457c.22412.03223,1.13672.11231,1.6167.11231h6.17871a4.26092,4.26092,0,0,0,1.2002-.144Z"/><path class="cls-1" d="M279.36846,9.7959a8.8879,8.8879,0,0,1-1.85694,2.57715c.44824.84814.97656,1.3125,1.585,1.3125.46387,0,.64014-.38428.72022-1.82471a2.54431,2.54431,0,0,0,.8164.52832c-.19238,1.79248-.54443,2.3208-1.60058,2.3208a2.72068,2.72068,0,0,1-2.32129-1.64892,11.5983,11.5983,0,0,1-2.78516,1.60107,6.63724,6.63724,0,0,0-.64013-.75244,10.40154,10.40154,0,0,0,2.99316-1.76074,15.46261,15.46261,0,0,1-.81641-2.99317h-2.49707c-.01562.31983-.064.624-.0957.92822a17.38839,17.38839,0,0,1,2.209,1.56885l-.67237.81641a15.60014,15.60014,0,0,0-1.729-1.36084,5.72733,5.72733,0,0,1-2.09668,3.5376,3.33318,3.33318,0,0,0-.72022-.78418c1.45655-1.00879,1.88868-2.80127,2.04883-4.70606h-1.13672V8.25928l-.49609.7041c-.208-.51221-.7041-1.48828-1.13623-2.28858v7.98731h-1.07276v-7.395a17.639,17.639,0,0,1-1.76074,4.35352,6.24064,6.24064,0,0,0-.59179-.99219,18.62084,18.62084,0,0,0,2.24072-6.01856h-1.90479V3.52148h2.0166V.064h1.07276V3.52148h1.72851V4.60986h-1.72851v.72022c.416.57617,1.50439,2.3208,1.74463,2.769l-.064.09619H275.303a57.91025,57.91025,0,0,1-.51221-8.11523h1.07226a52.13805,52.13805,0,0,0,.48,8.11523h2.17724a8.69,8.69,0,0,0-1.34473-.92822l.56006-.57617a8.01652,8.01652,0,0,1,1.69678,1.15234l-.33594.352h1.3125v.96045h-3.90576a14.63979,14.63979,0,0,0,.57617,2.209A7.28914,7.28914,0,0,0,278.344,9.41162Zm-8.1792-3.77735c.33593-.44824.7041-.99267,1.07226-1.55273A11.81324,11.81324,0,0,0,270.56474,2.833l.4961-.65625q.19263.14429.38428.28808a18.86278,18.86278,0,0,0,.96045-2.24072l.92822.36817c-.416.78417-.896,1.72851-1.29639,2.38476a5.64772,5.64772,0,0,1,.68848.70459c.38379-.65625.73633-1.3125.99219-1.873l.86425.41651a41.14012,41.14012,0,0,1-2.40088,3.72949l1.56885-.09619a8.11127,8.11127,0,0,0-.43213-.99268l.73633-.272a8.4,8.4,0,0,1,.896,2.30518l-.78418.33593a4.39918,4.39918,0,0,0-.12793-.54394c-1.15235.0957-2.25684.208-3.2334.30371l-.17627-.94434Zm5.47412-.16015a16.46254,16.46254,0,0,0,.96045-1.40869,10.18312,10.18312,0,0,0-1.68067-1.6167l.4961-.65625c.11181.09619.24023.17627.36816.28808A19.04747,19.04747,0,0,0,277.784.22412l.92823.36817c-.40039.80029-.9126,1.72851-1.3125,2.36914.25586.25586.5122.49609.7041.72021.38427-.65625.73633-1.3125.99267-1.873l.86426.41651c-.67236,1.13623-1.52051,2.51269-2.28906,3.56933l1.69678-.1123A9.68114,9.68114,0,0,0,278.9041,4.77l.73633-.3042a8.63987,8.63987,0,0,1,.99267,2.30469l-.76855.36816a3.21991,3.21991,0,0,0-.19189-.65625c-1.20069.12842-2.33692.2085-3.34522.3042l-.17627-.89648Z"/><path class="cls-1" d="M293.55937,7.44287A11.5095,11.5095,0,0,0,298.44121,9.876a5.37838,5.37838,0,0,0-.75244.96045c-.33594-.0962-.688-.208-1.02442-.33643v4.16211h-1.10449v-.54443h-2.91308V14.71h-1.05616V9.54h3.05713a9.91789,9.91789,0,0,1-2.57715-2.09717h-2.417A11.66326,11.66326,0,0,1,286.98076,9.54h3.12109v5.12207h-1.10449v-.54443h-2.86523V14.71H285.076v-4.2417c-.32032.144-.65625.272-.99268.38428a4.86365,4.86365,0,0,0-.73633-.89649,13.56977,13.56977,0,0,0,4.67383-2.51318h-4.27344V6.37061h5.314a6.734,6.734,0,0,0,.8164-1.21631h-5.042V.76807h5.15381V4.93018l.09619-.2085,1.15234.36816a9.05157,9.05157,0,0,1-.72021,1.28077h7.4751V7.44287Zm-4.68994-5.69824H285.908V4.19385h2.96142Zm.12793,8.80371h-2.86523v2.54492h2.86523Zm7.93946-5.394h-5.18653V.76807h5.18653Zm-1.377,7.939V10.54834h-2.91308v2.54492Zm.25635-11.34863h-2.99316V4.19385h2.99316Z"/><path class="cls-1" d="M307.98955,2.17676V14.646h-1.15234V11.74854c-2.01709.33642-4.06592.64062-5.58643.89648l-.208-1.2002c.44824-.04834.97656-.1123,1.55274-.19238V2.17676H301.347V1.07227h7.76319V2.17676Zm-1.15234,0h-3.12159v2.1289h3.12159Zm0,3.18554h-3.12159V7.58691h3.12159Zm-3.12159,5.73c.97657-.12793,2.04883-.28809,3.12159-.44825V8.67529h-3.12159ZM315.4168,2.43311a19.47463,19.47463,0,0,1-2.59327,8.11523,8.89227,8.89227,0,0,0,3.29737,2.97705,4.95754,4.95754,0,0,0-.84815.97656,10.00877,10.00877,0,0,1-3.18554-2.89746,11.41837,11.41837,0,0,1-3.26514,2.84912,4.56854,4.56854,0,0,0-.78467-.96,9.76053,9.76053,0,0,0,3.36133-2.96142,22.30337,22.30337,0,0,1-2.38477-6.835l1.13672-.208a20.59924,20.59924,0,0,0,1.96875,5.92236,17.55078,17.55078,0,0,0,1.98438-5.98633h-5.394V2.25684h5.71436l.22412-.04786Z"/><path class="cls-1" d="M322.40459,8.64355v4.64161c0,.65625-.16016.99267-.56055,1.18457a5.83494,5.83494,0,0,1-2.1289.19238,4,4,0,0,0-.35206-1.07275c.72022.01611,1.37647.01611,1.585,0,.208,0,.28808-.064.28808-.3042V8.99561l-2.17724.65625-.31983-1.15235c.688-.17627,1.55274-.416,2.49707-.68847V4.38574h-2.27295V3.29736h2.27295V.08008h1.16846V3.29736h1.84082V4.38574h-1.84082V7.4751l1.85644-.56055.16016,1.10449ZM333.35283,5.106a13.54356,13.54356,0,0,1-2.977,6.51465,8.97544,8.97544,0,0,0,3.28125,2.04882,4.60847,4.60847,0,0,0-.81641,1.02442,9.49573,9.49573,0,0,1-3.28125-2.24073,11.3629,11.3629,0,0,1-3.45752,2.17676,3.65325,3.65325,0,0,0-.7041-.92822,9.86119,9.86119,0,0,0,3.4253-2.11279,15.16788,15.16788,0,0,1-2.38477-4.834c-.3042,3.26514-.96045,5.8584-2.46533,7.875a11.635,11.635,0,0,0-1.04053-.75244c2.145-2.561,2.5293-6.64258,2.59326-11.84473h-1.16845V.92822h5.57031l.19189-.064.81641.12793c-.16016,1.10449-.416,2.54541-.67236,3.90576h2.1289l.22412-.064ZM326.6624,2.03271q-.02416.9126-.04834,1.77686a16.15507,16.15507,0,0,0,2.97705,6.96289,11.87346,11.87346,0,0,0,2.40137-4.81787h-1.937l-.17578.81592-1.07276-.11182c.28809-1.39258.62451-3.28125.83252-4.626Z"/><path class="cls-1" d="M351.08037,2.12891V3.26514H339.04375V6.2583c0,2.43311-.22412,6.01856-1.58447,8.43555a4.459,4.459,0,0,0-1.00879-.67237c1.29687-2.28857,1.4248-5.49023,1.4248-7.76318V2.12891h5.87451V.08008h1.21631V2.12891Zm-5.58594,3.37744h5.36182V6.57861h-5.36182V8.86768H349.784v5.79443h-1.20019v-.59229h-6.915v.624h-1.16846V8.86768h3.79346V3.60156h1.20068Zm3.08936,4.41748h-6.915v3.07324h6.915Z"/><path class="cls-1" d="M7.83476,27.04785c.9795,3.082,2.79834,5.61719,5.499,6.72363a5.33592,5.33592,0,0,0-.78369.981c-2.68653-1.2749-4.46338-3.75439-5.56885-6.93408a9.80565,9.80565,0,0,1-5.583,6.93408A2.99763,2.99763,0,0,0,.61455,33.898a9.09175,9.09175,0,0,0,5.44287-6.8501H.89433V25.9834H6.22539a29.80047,29.80047,0,0,0,.21-3.978H7.555a32.61374,32.61374,0,0,1-.22412,3.978h5.77881v1.06445Z"/><path class="cls-1" d="M19.20439,22.94385c-.41992,1.14844-.92382,2.57715-1.38525,3.68408a4.33387,4.33387,0,0,1,1.24512,2.99756,1.91556,1.91556,0,0,1-.5459,1.59668,1.507,1.507,0,0,1-.72754.25244,6.78584,6.78584,0,0,1-.9375.02783,2.10459,2.10459,0,0,0-.26563-.92432,4.01291,4.01291,0,0,0,.81153.01368A.849.849,0,0,0,17.847,30.48a1.23614,1.23614,0,0,0,.27979-.95264,3.9522,3.9522,0,0,0-1.24512-2.77343c.40576-1.02246.81152-2.269,1.105-3.22168h-1.833V34.76611h-.92334V22.57959h3.13428l.168-.042Zm7.66748,3.69824a11.674,11.674,0,0,1-2.19677,5.33643A8.26129,8.26129,0,0,0,27.55742,33.898a3.47172,3.47172,0,0,0-.69971.86816A8.54468,8.54468,0,0,1,24.01738,32.749a9.27073,9.27073,0,0,1-3.0083,2.03125,3.3174,3.3174,0,0,0-.61572-.85449A7.80591,7.80591,0,0,0,23.346,31.96484a13.30519,13.30519,0,0,1-2.15478-4.52441H21.1209c-.05567,2.2832-.40576,5.28076-1.9585,7.32568a4.01867,4.01867,0,0,0-.79785-.644c1.623-2.11523,1.76318-5.09912,1.76318-7.32617V22.78955h7.06592v.95264H21.1209v2.7456h4.92529l.168-.042Zm-4.72949.79834a11.36579,11.36579,0,0,0,1.86133,3.75391,10.07683,10.07683,0,0,0,1.69287-3.75391Z"/><path class="cls-1" d="M38.14336,25.42334a5.03522,5.03522,0,0,0,.89551-.07031l.78369.39258a4.37451,4.37451,0,0,0-.06983.686c-.05615,1.34473-.22412,5.4209-.85351,6.76563a1.4337,1.4337,0,0,1-1.49756.85449c-.71338,0-1.5249-.042-2.25244-.09815L35.00908,32.791a16.9943,16.9943,0,0,0,2.085.15429.76566.76566,0,0,0,.81153-.44824c.53173-1.07861.71386-4.52441.71386-6.02344h-3.918c-.5039,4.03418-1.959,6.14942-4.29589,7.76026l-1.00733-.82618a7.22293,7.22293,0,0,0,1.42725-1.03662,8.97763,8.97763,0,0,0,2.7705-5.89746H31.24541a14.75283,14.75283,0,0,0-1.60938.05616V25.353c.48975.042,1.06348.07031,1.59522.07031h2.46289c.02783-.44824.05566-.9248.05566-1.415a8.19087,8.19087,0,0,0-.09765-1.1626h1.31494c-.042.30811-.06983.79834-.084,1.13477-.01367.50439-.042.98047-.06982,1.44287Zm.53174-2.70361a21.72374,21.72374,0,0,1,1.14746,1.91894l-.75537.33643A17.00342,17.00342,0,0,0,37.9334,23.042Zm1.53906-.56006a17.39077,17.39077,0,0,1,1.16162,1.90478l-.7417.33643A14.56556,14.56556,0,0,0,39.473,22.48145Z"/><path class="cls-1" d="M53.4168,24.33057a4.04355,4.04355,0,0,0-.34961.61621,17.74451,17.74451,0,0,1-2.35108,4.10449,40.15366,40.15366,0,0,1,4.08594,4.17432l-.97949.85449a32.35978,32.35978,0,0,0-3.84766-4.16065,17.74586,17.74586,0,0,1-5.457,4.09034l-.89551-.93848A16.00319,16.00319,0,0,0,49.387,28.91113a12.479,12.479,0,0,0,2.32275-3.894h-5.457c-.48974,0-1.25927.05566-1.41308.06982V23.8125c.1958.02783.99316.09766,1.41308.09766h5.40088a3.71741,3.71741,0,0,0,1.04981-.126Z"/><path class="cls-1" d="M62.75762,25.00293h-4.394v1.96094h-.9375V24.24658h5.33155v-.85449h-4.5337v-.8125H68.38213v.8125H63.76494v.85449h5.42871v2.71729h-.96533V25.00293H63.76494v3.19385H62.75762Zm5.10693,8.82471c.7417,0,.88135-.252.95166-1.65284a2.84408,2.84408,0,0,0,.90918.3501c-.15381,1.69483-.47559,2.11524-1.791,2.11524H64.71611c-1.56689,0-2.00049-.26612-2.00049-1.38672v-.44824H59.60918v.72851h-.99365V28.67285h9.43115v4.13233H63.70879v.44824c0,.47607.168.57422,1.04931.57422Zm-9.03906-6.65332h3.21826v.6582H58.82549Zm3.21826-.77051H59.0916v-.64453h2.95215ZM59.60918,29.4292v.9668h3.10644v-.9668Zm3.10644,2.61963v-.95264H59.60918v.95264Zm4.32325-2.61963H63.70879v.9668h3.33008Zm0,2.61963v-.95264H63.70879v.95264Zm.46191-6.28955v.64453H64.50664v-.64453Zm-2.99414,1.415h3.33008v.6582H64.50664Z"/><path class="cls-1" d="M74.18291,24.34473a11.18387,11.18387,0,0,1-2.2666,3.15136,8.79682,8.79682,0,0,0-.95166-.67236,10.06157,10.06157,0,0,0,3.0083-4.87451l1.07763.25244q-.21019.65112-.46191,1.26025H83.306v.88282Zm4.50537,4.5664a13.93072,13.93072,0,0,1-1.77686,2.437,18.02735,18.02735,0,0,1,2.5044,2.1294l-.8252.78467A16.43843,16.43843,0,0,0,76.15557,32.105a16.11856,16.11856,0,0,1-4.04346,2.77344,5.87234,5.87234,0,0,0-.76953-.79834A14.257,14.257,0,0,0,75.344,31.5166a31.07757,31.07757,0,0,0-2.6582-1.69482l.74121-.68653c.85352.47608,1.77734,1.03663,2.67285,1.63868a11.07439,11.07439,0,0,0,1.60889-2.19922Zm2.70068-1.4707c.01368,3.61377.21,6.31738,1.25928,6.31738.27979,0,.34961-.79834.37793-1.9751a4.14922,4.14922,0,0,0,.72754.60206c-.09814,1.751-.32178,2.38134-1.17529,2.3955-1.84717-.01416-2.14112-2.61963-2.2251-6.44336H72.3499v-.89648Zm-7.44384-1.12061v-.86865h8.03125v.86865Z"/><path class="cls-1" d="M89.848,22.45361a18.893,18.893,0,0,1-1.49707,2.82959v9.46924H87.30156v-7.9707a15.857,15.857,0,0,1-1.875,2.05908,6.876,6.876,0,0,0-.602-1.0083,15.70441,15.70441,0,0,0,4.04395-5.687ZM93.5418,27.188c.47607,3.71191,1.38525,6.21972,2.88232,6.35937.40576.02832.62988-.79834.77-2.40918a4.2134,4.2134,0,0,0,.86719.54639c-.30762,2.39551-.86719,3.12354-1.59522,3.08154-2.29443-.168-3.41406-3.06738-3.9458-7.438l-3.35791.42042-.14014-.98047,3.38623-.42041c-.11181-1.30274-.21-2.68946-.26562-4.146H93.178c.042,1.41455.126,2.77344.26611,4.00586l4.18359-.53223.13965.98047Zm3.14843-2.10108a14.93906,14.93906,0,0,0-2.25293-2.29736l.75586-.50391a14.76513,14.76513,0,0,1,2.3086,2.24122Z"/><path class="cls-1" d="M103.68,31.88086c-1.49707.50391-3.09229,1.05029-4.3374,1.45654l-.2378-1.05029c.51758-.1543,1.16114-.35059,1.875-.58838V27.93066H99.38457V26.9502h1.59521v-3.04H99.24443v-.98047h4.33789v.98047H101.973v3.04H103.386v.98046H101.973v3.46l1.52539-.50439Zm8.35351,1.48486v.95215h-9.01123v-.95215h4.25391V31.44629H104.0999v-.95215h3.17627V28.855h-3.0083v-6.2334h7.10791V28.855h-3.05029v1.63916h3.26025v.95215h-3.26025v1.91943ZM105.219,25.29736H107.346V23.53223H105.219Zm0,2.647H107.346v-1.793H105.219Zm5.16358-4.41211H108.2415v1.76513h2.14112Zm0,2.61914H108.2415v1.793h2.14112Z"/><path class="cls-1" d="M125.92168,23.78418v.99463H115.39922v2.61963c0,2.1289-.1958,5.2666-1.38526,7.38183a3.87213,3.87213,0,0,0-.88134-.58838c1.1333-2.00293,1.24511-4.80468,1.24511-6.79345V23.78418H119.513v-1.793h1.06347v1.793Zm-4.8833,2.95557h4.6875v.93847h-4.6875v2.00342h3.75v5.0708h-1.04981v-.51855h-6.04443v.54638h-1.02148V29.68164h3.3164V25.07275h1.04932Zm2.70019,3.86621h-6.04443v2.68945h6.04443Z"/><path class="cls-1" d="M133.723,26.894A1.48487,1.48487,0,1,1,132.24,28.37891,1.47589,1.47589,0,0,1,133.723,26.894Z"/><path class="cls-1" d="M150.77324,23.58838a11.4639,11.4639,0,0,0,2.95264,5.729l-.82569.86817a15.34425,15.34425,0,0,1-1.707-2.59131c.29395,3.502-1.16162,6.96191-4.75732,6.96191a3.38575,3.38575,0,0,1-3.59619-3.66992,8.94994,8.94994,0,0,1,2.49072-5.78516c-.69971.11182-1.73486.28028-2.28076.39209-.23779.042-.48975.09815-.76953.1543l-.168-1.17676a7.23007,7.23007,0,0,0,.7417-.042,24.66227,24.66227,0,0,0,4.44922-.79834l.33593,1.0083c-.18164.07031-.53173.1543-.72754.25244a8.81322,8.81322,0,0,0-2.98046,5.84082,2.39571,2.39571,0,0,0,2.54687,2.66162c2.88233,0,4.51953-3.34765,3.55371-8.46044q-.16772-.4834-.33545-1.00879Zm1.49707,1.42871a20.53533,20.53533,0,0,0-.937-2.00342l.69922-.23779c.27978.51807.72754,1.38672.96582,1.96094Zm1.18945-2.7876c.30811.51807.72754,1.37256.99366,1.96094l-.72754.26611a15.98743,15.98743,0,0,0-.95166-1.96093Z"/><path class="cls-1" d="M160.47783,25.21289c-.168.25244-.40576.63037-.61572.9668-.02783.28027-.042.58838-.06983.88232a6.98221,6.98221,0,0,1,4.39356-1.72265,3.49934,3.49934,0,0,1,3.65185,3.50146c.01416,2.7876-2.0288,4.27246-5.05127,4.84668l-.5039-1.05029c2.33691-.3501,4.436-1.42871,4.42187-3.82422a2.52014,2.52014,0,0,0-2.67236-2.45117,6.40276,6.40276,0,0,0-4.32373,1.98877c-.02832.5747-.042,1.13476-.042,1.625,0,1.26074,0,2.10107.05566,3.34765.01416.23828.042.58838.07031.84082H158.575c.01367-.19629.042-.60254.042-.82666.01367-1.33056.01367-2.01709.042-3.55761,0-.14014.01368-.32227.01368-.53272-.67139,1.02295-1.58106,2.35352-2.25245,3.27783l-.6997-.96631c.76953-.96679,2.36474-3.12353,3.064-4.2163.02832-.44825.05615-.89649.084-1.33057-.6294.06982-1.833.23779-2.7002.3501l-.1123-1.1626a6.723,6.723,0,0,0,.90966-.01416c.44776-.02783,1.25928-.11231,1.97315-.22412.042-.65821.06982-1.14844.06982-1.30274a5.23925,5.23925,0,0,0-.05615-1.03662l1.32959.042c-.07031.33643-.18213,1.12061-.27979,2.08741l.06983-.02832Z"/><path class="cls-1" d="M171.86113,28.01465a9.47091,9.47091,0,0,0-2.28076-1.38672l.55957-.74268a9.16232,9.16232,0,0,1,2.30908,1.28907Zm-2.01465,6.05127a42.64668,42.64668,0,0,0,1.93067-4.44043l.82568.54639c-.51758,1.45654-1.23144,3.16552-1.833,4.44042Zm2.5044-9.69336a8.63727,8.63727,0,0,0-2.18262-1.49854l.57373-.72851a8.3291,8.3291,0,0,1,2.22461,1.41455Zm1.6372,8.53076v1.10645h-.92334V28.37891h1.60889V25.85742h-2.085v-.96631h2.085v-2.5498h.95166v2.5498h1.86084v.96631h-1.86084v2.52149h1.48291v4.52441Zm0-3.61426v2.68946h2.19678V29.28906Zm7.94776,4.21631c0,.53223-.126.79883-.47608.9668a4.92632,4.92632,0,0,1-1.84668.168,3.903,3.903,0,0,0-.3081-.88233c.65771.01367,1.2456.01367,1.41357.01367.1958-.01367.26563-.06982.26563-.27978V30.14355h-2.085a7.96338,7.96338,0,0,1-1.7627,4.66456,2.87288,2.87288,0,0,0-.77-.56006c1.53955-1.667,1.69336-4.1045,1.69336-6.07959V22.50977h3.876Zm-.95166-4.30029v-2.437h-2.001v1.40039c0,.32226,0,.68652-.02783,1.03662Zm-2.001-5.75684v2.38135h2.001V23.44824Z"/><path class="cls-1" d="M194.21465,24.14844l.68554.43408a2.7915,2.7915,0,0,0-.21.70068,13.92443,13.92443,0,0,1-2.08447,5.16846,10.71116,10.71116,0,0,1-5.51318,3.74023l-.95166-1.05078a9.254,9.254,0,0,0,5.457-3.36132,10.66285,10.66285,0,0,0,1.833-4.5669h-7.16407c-.54541,0-1.03515.02832-1.38525.042V24.02246a13.93753,13.93753,0,0,0,1.39941.084h7.01026a3.11033,3.11033,0,0,0,.60156-.042c-.29395-.53222-.71387-1.23291-1.02148-1.68115l.75537-.32178a20.20628,20.20628,0,0,1,1.11963,1.84864Zm1.21728-2.45117a20.35987,20.35987,0,0,1,1.14746,1.84912l-.76953.33593a15.43389,15.43389,0,0,0-1.14746-1.86279Z"/><path class="cls-1" d="M198.07012,33.3374a6.64921,6.64921,0,0,0,2.435-3.4458,25.09551,25.09551,0,0,0,.41944-5.63086,5.19586,5.19586,0,0,0-.09766-1.02295h1.28711c-.01416.16846-.06982.58838-.06982,1.00879a30.66528,30.66528,0,0,1-.43408,5.95313,7.72352,7.72352,0,0,1-2.49024,3.83789Zm6.40869.07031a3.35685,3.35685,0,0,0,.09765-.78466V24.23242a6.9364,6.9364,0,0,0-.08349-1.03662h1.28711a8.86466,8.86466,0,0,0-.05616,1.03662v8.08252a10.62032,10.62032,0,0,0,4.07178-3.4458l.67188.95264a14.08281,14.08281,0,0,1-4.77149,3.87988,2.78,2.78,0,0,0-.47558.32227Z"/><path class="cls-1" d="M212.658,27.63623c.41992.02832,1.16113.07031,1.94482.07031h7.668c.69971,0,1.20312-.042,1.51123-.07031v1.373c-.27979-.01416-.86768-.07032-1.49756-.07032h-7.68164c-.76953,0-1.51123.02833-1.94482.07032Z"/><path class="cls-1" d="M236.97051,31.95068a9.84051,9.84051,0,0,0,1.16113-.084v1.27441a8.82237,8.82237,0,0,0-1.16113-.05566h-9.249c-.37793,0-.79785.01367-1.23144.05566V31.8667a9.555,9.555,0,0,0,1.23144.084h3.9458V25.50732h-3.14843c-.26563,0-.8252.01368-1.1753.05616V24.33057a9.23242,9.23242,0,0,0,1.1753.084h7.6958a9.89855,9.89855,0,0,0,1.18945-.084v1.23291a10.638,10.638,0,0,0-1.18945-.05616h-3.35791v6.44336Z"/><path class="cls-1" d="M251.08281,26.1377c.46192,0,.99365-.02832,1.21729-.05616V27.272c-.22364-.02783-.79737-.042-1.23145-.042h-3.708a7.34133,7.34133,0,0,1-3.87548,7.00391l-1.0918-.8125a6.26907,6.26907,0,0,0,3.792-6.19141h-4.09961c-.53174,0-1.03564.01416-1.31543.042V26.06738c.27979.02832.78369.07032,1.2876.07032h4.12744V24.24658a7.78937,7.78937,0,0,0-.126-1.38672h1.38526a12.9907,12.9907,0,0,0-.084,1.40088v1.877Z"/><path class="cls-1" d="M258.49248,28.08447l-.64356.98047a31.05337,31.05337,0,0,0-3.06445-1.91894l.62988-.95215C256.23955,26.64209,257.87676,27.65039,258.49248,28.08447Zm1.623,3.34815a14.31216,14.31216,0,0,0,5.30322-5.14112l.67139,1.1626a16.471,16.471,0,0,1-5.38672,5.001,16.70879,16.70879,0,0,1-4.63184,1.73681l-.64355-1.13476A15.17791,15.17791,0,0,0,260.11553,31.43262Zm.44775-6.41553-.65771.96631c-.67139-.51807-2.19678-1.52686-3.00831-2.00293l.62989-.93848C258.35234,23.50439,259.96172,24.58252,260.56328,25.01709Zm4.23975.40625-.79786.36426a14.09044,14.09044,0,0,0-1.27294-2.19922l.76953-.33643A20.69592,20.69592,0,0,1,264.803,25.42334Zm1.875-.70068-.79786.36425a16.57935,16.57935,0,0,0-1.3291-2.17089l.78369-.33643A20.25157,20.25157,0,0,1,266.678,24.72266Z"/><path class="cls-1" d="M268.99443,27.63623c.41992.02832,1.16114.07031,1.94483.07031h7.668c.6997,0,1.20312-.042,1.51123-.07031v1.373c-.27979-.01416-.86768-.07032-1.49756-.07032h-7.68164c-.76953,0-1.51123.02833-1.94483.07032Z"/><path class="cls-1" d="M291.65557,25.42334a5.03509,5.03509,0,0,0,.8955-.07031l.78369.39258a4.37439,4.37439,0,0,0-.06982.686c-.05615,1.34473-.22412,5.4209-.85352,6.76563a1.43368,1.43368,0,0,1-1.49755.85449c-.71338,0-1.52491-.042-2.25245-.09815l-.14013-1.16259a16.9943,16.9943,0,0,0,2.085.15429.76565.76565,0,0,0,.81152-.44824c.53174-1.07861.71387-4.52441.71387-6.02344h-3.918c-.50391,4.03418-1.959,6.14942-4.2959,7.76026l-1.00732-.82618a7.22288,7.22288,0,0,0,1.42724-1.03662,8.97764,8.97764,0,0,0,2.77051-5.89746h-2.35058a14.75283,14.75283,0,0,0-1.60938.05616V25.353c.48975.042,1.06348.07031,1.59522.07031h2.46289c.02783-.44824.05566-.9248.05566-1.415a8.18942,8.18942,0,0,0-.09766-1.1626h1.315c-.042.30811-.06983.79834-.084,1.13477-.01367.50439-.042.98047-.06982,1.44287Zm.53173-2.70361a21.71889,21.71889,0,0,1,1.14746,1.91894l-.75537.33643A17.00193,17.00193,0,0,0,291.4456,23.042Zm1.53907-.56006a17.39232,17.39232,0,0,1,1.16162,1.90478l-.7417.33643a14.56556,14.56556,0,0,0-1.16113-1.91943Z"/><path class="cls-1" d="M306.929,24.33057a4.04525,4.04525,0,0,0-.34961.61621,17.74409,17.74409,0,0,1-2.35107,4.10449,40.15366,40.15366,0,0,1,4.08594,4.17432l-.9795.85449a32.32521,32.32521,0,0,0-3.84765-4.16065,17.74586,17.74586,0,0,1-5.457,4.09034l-.89551-.93848a16.00319,16.00319,0,0,0,5.76465-4.16016,12.47922,12.47922,0,0,0,2.32275-3.894h-5.457c-.48975,0-1.25928.05566-1.41309.06982V23.8125c.19581.02783.99317.09766,1.41309.09766h5.40088a3.71738,3.71738,0,0,0,1.0498-.126Z"/><path class="cls-1" d="M315.19219,22.45361a18.89393,18.89393,0,0,1-1.49707,2.82959v9.46924H312.6458v-7.9707a15.85773,15.85773,0,0,1-1.875,2.05908,6.87692,6.87692,0,0,0-.60205-1.0083,15.70439,15.70439,0,0,0,4.04394-5.687ZM318.886,27.188c.47608,3.71191,1.38526,6.21972,2.88233,6.35937.40576.02832.62988-.79834.77-2.40918a4.21313,4.21313,0,0,0,.86719.54639c-.30762,2.39551-.86719,3.12354-1.59522,3.08154-2.29443-.168-3.41406-3.06738-3.9458-7.438l-3.35791.42042-.14014-.98047,3.38623-.42041c-.11181-1.30274-.21-2.68946-.26562-4.146h1.03515c.042,1.41455.126,2.77344.26612,4.00586l4.18359-.53223.13965.98047Zm3.14844-2.10108a14.93906,14.93906,0,0,0-2.25293-2.29736l.75586-.50391a14.76458,14.76458,0,0,1,2.30859,2.24122Z"/><path class="cls-1" d="M329.02422,31.88086c-1.49707.50391-3.09229,1.05029-4.3374,1.45654l-.2378-1.05029c.51758-.1543,1.16114-.35059,1.875-.58838V27.93066h-1.59521V26.9502H326.324v-3.04h-1.73535v-.98047h4.33789v.98047h-1.60937v3.04h1.41308v.98046h-1.41308v3.46l1.52539-.50439Zm8.35351,1.48486v.95215H328.3665v-.95215h4.25391V31.44629h-3.17627v-.95215h3.17627V28.855h-3.0083v-6.2334H336.72V28.855h-3.05029v1.63916H336.93v.95215h-3.26025v1.91943Zm-6.81445-8.06836h2.12695V23.53223h-2.12695Zm0,2.647h2.12695v-1.793h-2.12695Zm5.16357-4.41211h-2.14111v1.76513h2.14111Zm0,2.61914h-2.14111v1.793h2.14111Z"/><path class="cls-1" d="M351.26592,23.78418v.99463H340.74346v2.61963c0,2.1289-.1958,5.2666-1.38526,7.38183a3.872,3.872,0,0,0-.88135-.58838c1.13331-2.00293,1.24512-4.80468,1.24512-6.79345V23.78418h5.13526v-1.793h1.06347v1.793Zm-4.8833,2.95557h4.6875v.93847h-4.6875v2.00342h3.75v5.0708h-1.04981v-.51855h-6.04443v.54638h-1.02149V29.68164h3.31641V25.07275h1.04932Zm2.70019,3.86621h-6.04443v2.68945h6.04443Z"/><path class="cls-1" d="M7.49823,45.97337c-3.36465,2.91424-5.98786,6.46494-5.98786,12.5593,0,6.09283,2.62321,9.64353,5.98786,12.55777H5.82916A15.666,15.666,0,0,1,0,58.53267a15.66679,15.66679,0,0,1,5.82916-12.5593Z"/><path class="cls-1" d="M23.8631,49.10018V45.97337h4.1594v3.12681h5.29891v4.1601H28.0225V55.3799h5.66963v4.15871H29.162a15.87374,15.87374,0,0,0,5.03372,5.24628l-1.61589,5.0079A16.499,16.499,0,0,1,28.0225,63.8581v7.31148H23.8631V63.46a15.03551,15.03551,0,0,1-4.663,6.4909l-2.57-4.18592a14.10521,14.10521,0,0,0,5.7228-6.2264H18.21943a12.84459,12.84459,0,0,0,1.21921,1.40526l-2.46437,3.23177a11.0648,11.0648,0,0,1-1.35083-3.70885V71.16958H11.59622v-8.954a17.57187,17.57187,0,0,1-2.30484,4.68895L8.04551,61.102a17.268,17.268,0,0,0,3.28565-6.86162h-2.782v-4.0007h3.04711V45.97337h4.02722v4.26632h2.2518v1.27183a16.9838,16.9838,0,0,0,1.457-5.14007L23.121,46.663c-.23854,1.51037-.31768,1.98744-.4239,2.43716ZM19.72966,55.3799l-1.85442-1.53758v.39807h-2.2518v.60926a19.11283,19.11283,0,0,0,2.2518,4.21188V55.3799Zm4.13344,0V53.26028H21.42524a17.91052,17.91052,0,0,1-1.08633,2.11962Z"/><path class="cls-1" d="M36.49261,45.97337a15.66772,15.66772,0,0,1,5.82832,12.5593,15.66691,15.66691,0,0,1-5.82832,12.55777H34.82284c3.36535-2.91424,5.98787-6.46494,5.98787-12.55777,0-6.09436-2.62252-9.64506-5.98787-12.5593Z"/><path class="cls-1" d="M45.39,66.5338c5.7228-2.01326,8.61107-4.76936,9.98842-10.3865h-9.617V51.7227H55.82894V45.92159h4.55733V51.7227H70.82456v4.4246H60.969c1.8279,5.962,4.82183,8.50541,10.3858,10.54464l-2.4112,4.3985A17.16625,17.16625,0,0,1,58.42549,60.70533a19.04628,19.04628,0,0,1-10.73,10.33193Z"/><path class="cls-1" d="M79.82422,61.34055a35.48351,35.48351,0,0,1-4.10692,9.69671l-3.04642-3.57667c.82128-1.05911,2.27832-2.88688,3.73537-8.21245ZM75.108,52.33209a19.51923,19.51923,0,0,1,4.3188,2.88827L76.91,58.74385a17.9418,17.9418,0,0,0-4.13344-3.07363Zm.55608-6.4909a31.84771,31.84771,0,0,1,4.5043,2.59656L77.7046,51.96124a18.41563,18.41563,0,0,0-4.372-2.80788ZM85.838,63.19567H79.8774V59.90932H85.838v-.98011H80.407V55.8828H85.838v-.98H79.24079V51.85627H85.838V50.84908H80.407v-3.285H85.838V45.94741H90.21v1.61672h6.80914V51.6437H98.158V55.114H97.01916v3.8152H90.21v.98011h7.233v3.28635H90.21v.84779h7.948V67.646H90.21v3.39131H85.838V67.646H79.02947V64.04346H85.838ZM90.21,50.84908v1.00719h2.62252V50.84908Zm0,4.05375v.98h2.62252v-.98Z"/><path class="cls-1" d="M122.28626,51.273l-.02666,4.26492c-.02652,2.62392-.29171,9.22117-1.1395,11.473a4.825,4.825,0,0,1-4.95472,3.12542,42.24769,42.24769,0,0,1-5.00719-.39668l-.31754-4.663a22.95043,22.95043,0,0,0,4.02639.44986c1.64324,0,1.96078-.37072,2.25249-1.74876.13218-.6884.5036-6.54408.5036-6.86176V55.64426h-5.19325a21.164,21.164,0,0,1-5.48427,11.39243,19.73453,19.73453,0,0,1-4.02708,3.25913l-3.206-3.55084c4.95471-2.72874,6.94131-5.98787,7.9746-11.10072h-6.70291V51.273h7.20651c.13218-2.11962.13218-3.52349.13218-4.45182l4.875.0804c-.079,1.35083-.13218,2.64848-.291,4.37142Zm-4.13358-.71561a32.29359,32.29359,0,0,0-.901-4.21328l2.38468-.29032a24.91548,24.91548,0,0,1,1.00663,4.10692Zm3.81521-.4239a26.43465,26.43465,0,0,0-1.00663-3.97474l2.41063-.29032a21.6585,21.6585,0,0,1,1.00733,3.89421Z"/><path class="cls-1" d="M125.775,66.40148a25.12968,25.12968,0,0,0,14.17434-14.04217H127.39088V47.96067h18.73183a26.76129,26.76129,0,0,1-4.63648,11.473,61.49774,61.49774,0,0,1,8.53069,7.23234l-3.94739,3.84242a90.17709,90.17709,0,0,0-7.445-7.60445c-5.0869,5.21907-8.39851,6.62308-10.25363,7.39187Z"/><path class="cls-1" d="M165.05761,46.90156h4.79532V51.352h4.02778v4.39864h-4.02778v2.54351c0,5.72211-1.907,10.28015-13.22034,12.08069l-1.7489-4.29228c4.13358-.42389,6.62377-1.457,8.21314-2.59516,1.37805-1.00732,1.96078-2.59669,1.96078-5.2206V55.75062h-6.51742v6.146h-4.60995v-6.146H150.115V51.352h3.81521V46.92752h4.60995V51.352h6.51742Z"/><path class="cls-1" d="M199.94173,56.12134v4.82253h-23.3676V56.12134Z"/><path class="cls-1" d="M208.62441,47.56413v6.86162a43.32323,43.32323,0,0,0,10.439-4.05374c.05248.21118.31754,1.11215.39739,1.27169l1.58921-.4239,1.96079,2.72888a68.27252,68.27252,0,0,1-14.38637,5.03371v4.505c0,1.16533.18536,1.37665,1.64242,1.37665h7.25968c.18536,0,2.70235-.15814,3.86768-.29032.58343-.08039,1.32487-.23853,2.11962-.34489l.26506,4.82114a33.3756,33.3756,0,0,1-5.13937.39807h-9.35266c-3.78868,0-5.4583-1.35083-5.4583-4.45182V47.56413Zm11.36591,3.285a27.87552,27.87552,0,0,0-1.325-4.16009l2.35815-.44986a22.34739,22.34739,0,0,1,1.37805,4.00056Zm3.81521-.45125a23.8971,23.8971,0,0,0-1.37749-4.13274l2.2518-.47708a16.12731,16.12731,0,0,1,1.43053,4.05375Z"/><path class="cls-1" d="M227.21512,66.40148a25.12994,25.12994,0,0,0,14.17449-14.04217H228.831V47.96067h18.73182a26.76081,26.76081,0,0,1-4.63633,11.473,61.50543,61.50543,0,0,1,8.53067,7.23234l-3.94738,3.84242a90.19728,90.19728,0,0,0-7.44505-7.60445c-5.087,5.21907-8.3985,6.62308-10.25362,7.39187Z"/><path class="cls-1" d="M274.63258,50.90226c-.3449,5.74933-2.279,9.82889-8.02849,12.77048l-2.78191-3.52488a8.95015,8.95015,0,0,0,5.06093-4.37142l-7.47157.76879v7.20651c0,1.404.18536,1.53619,2.03979,1.53619h6.38537a28.38558,28.38558,0,0,0,3.94808-.3435v4.60982c-.92763.10636-2.86175.21132-3.84186.21132h-7.55127c-5.7228,0-5.7228-3.788-5.7228-5.48357V57.04827l-4.90153.50429-.3442-4.584,5.24573-.45112V46.87434h4.74269v5.21922Z"/><path class="cls-1" d="M285.51318,56.06816a36.098,36.098,0,0,0-8.45167-4.16l2.03977-3.94753a38.71986,38.71986,0,0,1,8.87558,3.86839Zm-8.081,8.95527c10.2271-.875,15.63167-4.45167,18.59894-15.288l4.31894,2.2c-4.18592,14.73057-13.40639,16.82423-21.35434,18.0687Z"/><path class="cls-1" d="M312.26385,55.8828a24.43214,24.43214,0,0,1,5.27239,2.80787,16.20443,16.20443,0,0,0,2.27832-4.92735h-7.15333a24.23267,24.23267,0,0,1-7.17985,6.19918l-2.94089-3.33813a18.039,18.039,0,0,0,9.00776-10.25292l4.98136.58329A19.16764,19.16764,0,0,1,315.4698,49.55h10.06757c-1.05981,6.83579-3.68233,17.24812-18.94314,20.878l-2.4112-4.18592a22.791,22.791,0,0,0,9.98843-4.13274,28.59927,28.59927,0,0,0-4.98124-3.09973Z"/><path class="cls-1" d="M350.96387,56.12134v4.82253h-23.3676V56.12134Z"/></g></g></svg>