<?xml version="1.0" encoding="utf-8"?>
<!-- Generator: Adobe Illustrator 25.1.0, SVG Export Plug-In . SVG Version: 6.00 Build 0)  -->
<svg version="1.1" id="レイヤー_1" xmlns="http://www.w3.org/2000/svg" xmlns:xlink="http://www.w3.org/1999/xlink" x="0px"
	 y="0px" viewBox="0 0 300 69.6" style="enable-background:new 0 0 300 69.6;" xml:space="preserve">
<style type="text/css">
	.st0{fill:#FFFFFF;}
</style>
<g>
	<path class="st0" d="M139.2,7.2c1.2-0.6,2.5-1.1,3.7-1.4c2.5-0.7,5.1-1.1,7.8-1.1c3.4,0,6.8,0.6,9.9,1.8c0.5,0.2,1.1,0.4,1.6,0.7
		c1.2-0.6,2.5-1.1,3.7-1.4c2.5-0.7,5.1-1.1,7.7-1.1V0h-46v4.7c3.4,0,6.7,0.6,9.9,1.8C138.2,6.8,138.7,7,139.2,7.2z"/>
	<path class="st0" d="M156.8,16.3c-0.2,0.5-0.3,1-0.3,1.6c0,3.2,2.6,5.7,5.7,5.7c1.1,0,2.3-0.3,3.2-1c1.6-1.1,2.5-2.8,2.5-4.7
		c0-0.6-0.1-1.2-0.4-1.8c-0.3-0.7-0.7-1.4-1.1-1.9c-1.2-1.4-2.6-2.6-4.2-3.5c-1.3,0.7-2.4,1.6-3.5,2.6
		C157.9,14.1,157.2,15.1,156.8,16.3z"/>
	<path class="st0" d="M173.7,7.7c-2.8,0-5.6,0.5-8.3,1.4c0.9,0.6,1.7,1.3,2.4,2.1c1.2,1.2,2.1,2.6,2.6,4.1c0.3,0.8,0.5,1.7,0.5,2.6
		c0,4.8-3.9,8.7-8.7,8.7c-4.8,0-8.7-3.9-8.7-8.7c0-1.3,0.4-2.6,1-3.8c0.7-1.3,1.6-2.4,2.6-3.4c0.6-0.6,1.2-1.1,1.9-1.5
		c-0.5-0.2-0.9-0.3-1.4-0.5c-2.3-0.7-4.6-1-6.9-1c-2.8,0-5.7,0.5-8.3,1.4c0.9,0.6,1.7,1.3,2.4,2.1c1.2,1.2,2.1,2.6,2.6,4.1
		c0.3,0.8,0.5,1.7,0.5,2.6c0,4.8-3.9,8.7-8.7,8.7c-4.8,0-8.7-3.9-8.7-8.7c0-1.3,0.4-2.6,1-3.8c0.7-1.3,1.6-2.4,2.6-3.4
		c0.6-0.6,1.2-1.1,1.9-1.5c-0.5-0.2-0.9-0.3-1.4-0.5c-2.2-0.7-4.6-1-6.9-1v22.5h46V7.7z"/>
	<path class="st0" d="M133.8,16.3c-0.2,0.5-0.3,1-0.3,1.6c0,3.2,2.6,5.7,5.7,5.7c1.1,0,2.3-0.3,3.2-1c1.6-1.1,2.5-2.8,2.5-4.7
		c0-0.6-0.1-1.2-0.4-1.8c-0.3-0.7-0.7-1.3-1.1-1.9c-1.2-1.4-2.6-2.6-4.2-3.5c-1.3,0.7-2.4,1.6-3.5,2.6
		C134.9,14.1,134.2,15.1,133.8,16.3z"/>
	<path class="st0" d="M14.9,51.8c2.2,1,4.2,2.3,6.1,3.7l1.5-2.6c-2-1.3-4.1-2.5-6.3-3.6L14.9,51.8z"/>
	<path class="st0" d="M13.5,56.1c-1.7,0-3.3,0.3-4.9,0.7v-0.9c0-0.7,0-1.5,0-2.3c1.6-0.2,3.3-0.5,4.9-0.8l-0.1-3.2
		c-1.5,0.4-3.1,0.7-4.7,1c0-0.6,0.1-1.3,0.1-1.8C8.9,48.1,9,47,9.1,46.5H5.6c0.1,0.7,0.2,1.5,0.2,2.2c0,0.4,0,1.2,0,2.1
		c-0.5,0-1,0.1-1.5,0.1c-1.2,0-2.4-0.1-3.5-0.2l0.1,3.1c1.1,0.1,2.4,0.1,3.6,0.1c0.4,0,0.9,0,1.4-0.1V56c0,0.6,0,1.2,0,1.8
		C2.6,59.1,0,61.4,0,63.7c0,2.7,3.5,4.8,6,4.8c1.6,0,2.8-0.8,2.8-4c0-0.9-0.1-2.8-0.1-4.9c1.6-0.4,3.2-0.7,4.8-0.7
		c2.2,0,3.8,1,3.8,2.7c0,1.9-1.6,2.9-3.7,3.3c-1,0.1-2.1,0.2-3.1,0.2l1.2,3.3c1.1,0,2.2-0.2,3.3-0.4c4-1,5.6-3.3,5.6-6.3
		C20.5,58.2,17.4,56.1,13.5,56.1z M5,65c-0.7,0-1.9-0.7-1.9-1.5c0-0.9,1-2,2.6-2.8c0.1,1.3,0.1,2.5,0.1,3.1C5.8,64.8,5.5,65,5,65z"
		/>
	<rect x="40.9" y="52.6" class="st0" width="5" height="1.6"/>
	<path class="st0" d="M46.4,67.2h-4.9c-1.6,0-1.9-0.2-1.9-1.1V66h7.7v-8.2H29.6v9.3h2.9V66h4.3V66c0,2.7,1,3.4,4.5,3.4h5.4
		c2.8,0,3.6-0.8,4-3.9c-0.9-0.2-1.8-0.5-2.5-1C47.9,66.8,47.7,67.2,46.4,67.2z M39.7,59.8h4.7v1.1h-4.7V59.8z M39.7,62.8h4.7v1.1
		h-4.7V62.8z M36.7,63.9h-4.3v-1.1h4.3V63.9z M36.7,60.9h-4.3v-1.1l4.3,0V60.9z"/>
	<polygon class="st0" points="29.9,51.7 36.9,51.7 36.9,57.1 39.9,57.1 39.9,51.7 47,51.7 47,54.9 49.8,54.9 49.8,49.7 39.9,49.7 
		39.9,48.7 47.9,48.7 47.9,46.4 28.9,46.4 28.9,48.7 36.9,48.7 36.9,49.7 27.2,49.7 27.2,54.9 29.9,54.9 	"/>
	<rect x="30.9" y="52.6" class="st0" width="5.1" height="1.6"/>
	<rect x="40.9" y="55.1" class="st0" width="5.6" height="1.7"/>
	<rect x="30.4" y="55.1" class="st0" width="5.6" height="1.7"/>
	<rect x="56.1" y="46.3" class="st0" width="7.6" height="2.3"/>
	<rect x="56" y="57.1" class="st0" width="7.7" height="2.3"/>
	<rect x="54.8" y="49.9" class="st0" width="9.8" height="2.4"/>
	<path class="st0" d="M73.4,49.4c1.6-0.2,3.3-0.6,4.9-1.1l-2.2-2.5c-3.6,1-7.2,1.6-10.9,1.9c0.4,0.8,0.7,1.7,0.8,2.6
		c1.4-0.1,2.8-0.2,4.3-0.4V53h-5.5v2.9h5.5v3.4h-4.2v10.3H69v-1.2h5.8v1.1h3.1V59.2h-4.5v-3.4l5.5,0V53h-5.5V49.4z M74.8,62v3.6H69
		V62H74.8z"/>
	<rect x="56" y="53.6" class="st0" width="7.7" height="2.3"/>
	<path class="st0" d="M55.9,69.5h2.6v-1h5.4v-7.8h-7.9V69.5z M58.5,63.2h2.8v2.9h-2.8V63.2z"/>
	<path class="st0" d="M98.2,54.7c0.8,1.1,1.5,2.3,2,3.6l2-0.9c-0.6-1.2-1.3-2.4-2.1-3.5L98.2,54.7z"/>
	<path class="st0" d="M93.4,58.9c0.1-3.3,2.3-6.1,5.4-7.1c1.6-0.3,3.3-0.4,4.9-0.3l0-3.3c-1.8,0.1-4.6,0.2-7.2,0.4
		c-4.7,0.4-8.9,0.8-11,1c-0.5,0.1-1.5,0.1-2.5,0.1l0.3,3.5c3-0.6,8.3-1.2,10.5-1.4c-2.4,1.9-3.8,4.8-3.8,7.8c0,5.5,5,8.4,10.4,8.8
		l1.2-3.5C97.3,64.7,93.4,63.1,93.4,58.9z"/>
	<path class="st0" d="M101.1,53.6c0.8,1.1,1.5,2.3,2.1,3.5l1.9-0.9c-0.7-1.2-1.4-2.3-2.2-3.4L101.1,53.6z"/>
	<path class="st0" d="M121.6,48.3c-6.6,0-11.7,5-11.7,10.9c0,4.3,2.4,7.4,5.2,7.4c2.8,0,5-3.1,6.5-8.3c0.7-2.3,1.2-4.6,1.5-6.9
		c3.4,0.6,5.3,3.2,5.3,6.7c0,3.7-2.5,6-5.8,6.8c-0.7,0.2-1.4,0.3-2.4,0.4l1.9,3c6.4-1,9.7-4.8,9.7-10.1
		C131.9,52.7,127.9,48.3,121.6,48.3z M118.2,57.7c-1,3.4-2.1,5-3.1,5c-1,0-2-1.3-2-3.8c0.2-3.6,2.9-6.7,6.5-7.4
		C119.3,53.6,118.9,55.6,118.2,57.7z"/>
	<path class="st0" d="M152.9,51.8c2.2,1,4.2,2.3,6.1,3.7l1.5-2.6c-2-1.3-4.1-2.5-6.3-3.6L152.9,51.8z"/>
	<path class="st0" d="M151.5,56.1c-1.7,0-3.3,0.3-4.9,0.7l0-0.9c0-0.7,0-1.5,0-2.3c1.6-0.2,3.3-0.5,4.9-0.8l-0.1-3.2
		c-1.5,0.4-3.1,0.7-4.7,1c0-0.6,0.1-1.3,0.1-1.8c0.1-0.6,0.2-1.8,0.2-2.2h-3.5c0.1,0.7,0.2,1.5,0.2,2.2c0,0.4,0,1.2,0,2.1
		c-0.5,0-1,0.1-1.5,0.1c-1.2,0-2.4-0.1-3.5-0.2l0.1,3.1c1.1,0.1,2.4,0.1,3.6,0.1c0.4,0,0.9,0,1.4-0.1V56c0,0.6,0,1.2,0,1.8
		c-3.1,1.4-5.7,3.7-5.7,5.9c0,2.7,3.5,4.8,6,4.8c1.6,0,2.8-0.8,2.8-4c0-0.9-0.1-2.8-0.1-4.9c1.6-0.4,3.2-0.7,4.8-0.7
		c2.2,0,3.8,1,3.8,2.7c0,1.9-1.6,2.9-3.7,3.3c-1,0.1-2.1,0.2-3.1,0.2l1.2,3.3c1.1,0,2.2-0.2,3.3-0.4c4-1,5.6-3.3,5.6-6.3
		C158.5,58.2,155.4,56.1,151.5,56.1z M143,65c-0.7,0-1.9-0.7-1.9-1.5c0-0.9,1-2,2.6-2.8c0.1,1.3,0.1,2.5,0.1,3.1
		C143.8,64.8,143.4,65,143,65z"/>
	<path class="st0" d="M177.3,56.1h7v9.8c0,0.5-0.2,0.6-0.7,0.6c-0.5,0-2.2,0.1-3.7-0.1c0.5,1,0.8,2,1,3.1c1.7,0.1,3.4-0.1,5-0.6
		c1.1-0.5,1.4-1.4,1.4-3.1V46.5h-10.1V56.1z M180.2,48.8h4.1v1.4h-4.1V48.8z M180.2,52.3h4.1v1.5h-4.1V52.3z"/>
	<path class="st0" d="M175.5,46.5h-9.8v23.1h3V56.1h6.8V46.5z M172.6,53.8h-3.9v-1.5h3.9V53.8z M172.6,50.2h-3.9v-1.4h3.9V50.2z"/>
	<path class="st0" d="M181.3,57.9h-10v9.5h2.9v-1.4l7.1,0V57.9z M178.5,63.4h-4.2v-3l4.2,0V63.4z"/>
	<path class="st0" d="M208,50.6c2.8,3.1,4.1,9.1,4.5,13.2l3.4-1.3c-0.3-3.9-2.2-10.1-4.7-13L208,50.6z"/>
	<path class="st0" d="M201.1,63.7c-1.6,0-2.4-2.5-2.7-6.2c-0.2-1.8-0.2-3.8-0.2-5.4c0-1,0.1-2.1,0.3-3.1l-3.9-0.1
		c0.1,0.9,0.2,1.7,0.2,2.6c0,1.6,0.1,4.5,0.3,6.9c0.7,6.8,3.2,9.4,5.9,9.4c2.1,0,3.7-1.6,5.4-6l-2.6-3.1
		C203.3,60.7,202.3,63.7,201.1,63.7z"/>
	<path class="st0" d="M224.7,69.6h3v-1h10.2v1h3.1V59h-16.3V69.6z M227.7,61.7h10.2v4.2h-10.2V61.7z"/>
	<path class="st0" d="M234.1,45.6h-3.2c-2.6,3.9-6.2,7.1-10.5,9.2c0.7,0.7,1.4,1.6,1.9,2.5c1.4-0.8,2.7-1.6,4-2.5v1.8h12.8v-1.8
		c1.2,0.9,2.6,1.7,3.9,2.4c0.6-1,1.2-1.9,2-2.8C240.7,52.5,236.8,49.5,234.1,45.6z M227.5,53.8c1.9-1.5,3.7-3.3,5.1-5.2
		c1.5,2,3.3,3.7,5.3,5.2H227.5z"/>
	<path class="st0" d="M265.6,51.5c-2.7,0-5.4,1-7.5,2.7c0-0.3,0-0.5,0.1-0.7c0.4-0.7,1-1.5,1.3-1.9l-1-1.2c0.2-1.6,0.4-2.9,0.6-3.6
		l-3.7-0.1c0.1,0.8,0.1,1.5,0.1,2.3c0,0.3-0.1,1-0.1,2c-1.1,0.2-2.2,0.3-2.9,0.3c-0.7,0-1.5,0.1-2.2,0l0.3,3.3
		c1.4-0.2,3.4-0.4,4.6-0.6l-0.1,1.8c-1.4,2.1-4,5.5-5.5,7.3l2,2.8c0.9-1.2,2.1-3.1,3.2-4.7c-0.1,2.2-0.1,3.6-0.1,5.6
		c0,0.4,0,1.3-0.1,1.9h3.5c-0.1-0.6-0.2-1.5-0.2-2c-0.2-2.4-0.2-4.5-0.2-6.6c0-0.7,0-1.4,0.1-2.1c1.9-2,4.5-3.1,7.2-3.3
		c0.1,0,0.1,0,0.2,0c2.1-0.1,3.9,1.6,4,3.8c0,4-3.2,5.8-7.7,6.5l1.5,3.1c6.3-1.3,9.5-4.3,9.5-9.5c0-0.1,0-0.3,0-0.4
		C272.4,54.2,269.3,51.4,265.6,51.5z"/>
	<path class="st0" d="M297.6,52c-0.6,0-1.2,0.1-1.9,0.1c0-0.8,0.1-1.7,0.1-2.8c0-0.7,0.1-1.5,0.2-2.2h-3.4c0.1,0.8,0.2,1.5,0.2,2.3
		v2.9c-2.3,0.2-4.8,0.4-6.9,0.6c0-1,0-1.9,0-2.4c0-0.9,0-1.8,0.2-2.7h-3.6c0.1,0.9,0.2,1.9,0.2,2.8v2.6l-1.9,0.2
		c-1.3,0.1-2.5,0.2-3.2,0.2l0.3,3.3c0.7-0.1,2.3-0.4,3.1-0.5l1.7-0.2c0,2.4,0,4.9,0,5.9c0.1,4.4,0.9,5.8,7.5,5.8
		c2.4,0,4.8-0.2,7.3-0.4l0.1-3.5c-2.5,0.4-5.1,0.7-7.6,0.7c-3.8,0-4-0.6-4.1-3.1c-0.1-1.1,0-3.4,0-5.8c2.2-0.2,4.7-0.5,6.9-0.6
		c0,1-0.1,2-0.2,3.1c-0.1,0.5-0.3,0.6-0.8,0.6c-0.8,0-1.6-0.1-2.3-0.3l-0.1,2.8c1.3,0.2,2.6,0.3,3.8,0.4c1.3,0,2-0.3,2.2-1.7
		c0.2-1.7,0.4-3.4,0.4-5.1c0.7-0.1,1.4-0.1,2-0.1c0.7,0,2-0.1,2.5,0v-3.1C299.3,51.9,298.3,52,297.6,52z"/>
</g>
</svg>
