<svg xmlns="http://www.w3.org/2000/svg" viewBox="0 0 445.39 40.25"><defs><style>.cls-1{fill:#333;}</style></defs><g id="レイヤー_2" data-name="レイヤー 2"><g id="コンテンツ"><path class="cls-1" d="M235.86,29.4A13.78,13.78,0,0,1,231.77,35a9.66,9.66,0,0,1-4.14,1.93,3.3,3.3,0,0,1-1.25.28A4.14,4.14,0,0,1,223,35.33l.5-.09,1.38-.14.74-.18a9.81,9.81,0,0,0,3.49-1.61c1.34-1,1.48-1.11,2-1.52a4.53,4.53,0,0,0,1-1l.56-.78a23.77,23.77,0,0,0,3.86-8.24L237,20.1a18.69,18.69,0,0,0,.37-2.53l-.23-.13a3.73,3.73,0,0,0-.46.32l-1.24.69a16.16,16.16,0,0,0-1.61,1.1c-2,1.57-2.44,1.8-3,1.8-1.11,0-4.1-2.81-4.1-3.82a7.28,7.28,0,0,1,.42-1.7,2.79,2.79,0,0,0,.13-.51l.46.51A4.71,4.71,0,0,0,229.33,17c.14,0,1.1.23,1.1.23a23.1,23.1,0,0,0,3.41-1.29c1.88-1,2.44-1.2,3.31-1.66,1.38-.6,1.38-.6,1.61-5.89L239,4.65c0-1.29-.14-1.48-2-2.63.88-1.19,1.47-1.56,2.44-1.56a5.06,5.06,0,0,1,1.89.41c1.56.42,1.93.69,1.93,1.48,0,.32-.14.5-.6.78a4.93,4.93,0,0,0-.28,1.65c0,1.29.05,1.34,2.67,3C246.81,9,246.81,9,247.18,9a4.72,4.72,0,0,0,1.15-.28.76.76,0,0,1,.32,0c1.43,0,3.5,1.28,3.5,2.2a.87.87,0,0,1-.19.46c-.41.37-.41.37-3.35,1.2l-1.39.55-1.93.69c-3.95,1.75-4.64,2.12-4.74,2.35-.82,1.65-.82,1.65-.82,1.93a20,20,0,0,0,2.8,4.78c.78,1.06,4.88,5.94,5.57,6.63,1.38,1.43,1.38,1.43,6.62,4.05a17.4,17.4,0,0,1,4.33,3.17v.09c-.69.42-1,.46-2.72.46a14.73,14.73,0,0,1-5.1-.73c-.88-.32-.92-.37-2.44-1.8a19.57,19.57,0,0,1-2-2L239.36,22.5l-.55-.69h-.1l-.13.5c-.23.83-.42,1.43-.42,1.52-.27.74-.55,1.47-.83,2.25-.09.23-.18.51-.27.79a13.45,13.45,0,0,1-.55,1.42ZM246.35,9.89A16.1,16.1,0,0,1,241.89,6a5,5,0,0,0-.14.55c-.05.23-.14,1.11-.32,2.44a13.48,13.48,0,0,1-.42,2.12,2.54,2.54,0,0,0-.13.78.41.41,0,0,0,.13.32L246.3,10Z"/><path class="cls-1" d="M294.88,23.32c-4.6,1.15-5.47,1.48-9.11,3.59l-.69.42-.69.55C283,29,283,29,282.83,29s-.19,0-1.43-.87a18.53,18.53,0,0,1-2.35-.92,1.85,1.85,0,0,1-.46-1.29c0-.5.14-.83.79-1.84l.09-.09.09.14a5.13,5.13,0,0,0,1.24.83c.23,0,.56.13,1.29.23l.74-.1h.37l7.45-3,1.88-.41c2.12-.55,2.44-.69,2.4-.92l-.1-.55.14-9c-.09-1-.14-1.61-.18-1.79a1.73,1.73,0,0,0-.37-1.11l-.37-.6c-.23.09-.41.19-.5.23-1.38.46-2.3.83-2.49.92a5.35,5.35,0,0,1-1.75.65c-.32,0-.32-.05-1.19-1.29l-.42-.42-.32-.36q-.9-.63-1-.69c-.19-.19-.23-.42-.28-1l1.24-1.56h.19c.73,1.2,1.51,1.84,2.25,1.84s.69,0,5.52-1.33c2.16-.83,3.54-1.29,4.05-1.48a2.39,2.39,0,0,0,.78-.55l.69-.64a.39.39,0,0,1,.28-.09l.46-.1a3.58,3.58,0,0,1,.6-.13c1.38,0,3,1.05,3,1.93,0,.46-.28.78-.92.92-1,.23-1.66.37-1.84.46L300,6l-3.31,1a2.41,2.41,0,0,0-.55.23,5.31,5.31,0,0,0,.6.6c.69.74.78.78,1,1.34a1.09,1.09,0,0,1,0,.46l-.14.41v1c-.09.51-.13,1-.22,1.57,0,.09,0,.64-.05,1.42a18.89,18.89,0,0,1-.09,1.89c.64-.05.64-.05,3.45-2.9A3,3,0,0,0,301.73,11c0-.32-.13-.55-.78-1.06a1.41,1.41,0,0,1,.51-.23l.83-.14c.92-.46.92-.46,1.19-.46s.42,0,1.84.83a3.36,3.36,0,0,1,1.29.83c.51.55.51.6.51.78a1.06,1.06,0,0,1-.42.78,3,3,0,0,1-.5.19l-.69.23a12,12,0,0,0-3.78,2.11,13.42,13.42,0,0,1-4.5,2.12l.09,3.45a3.07,3.07,0,0,0,.5.05l6-1,4.47-.28a1.53,1.53,0,0,0,.46-.09l.6-.27a1.1,1.1,0,0,1,.59-.19,5.75,5.75,0,0,1,2,.51c.18,0,.18,0,2.16,1.24.55.32.83.51.92.55a4.85,4.85,0,0,1,.42,1.11,2.38,2.38,0,0,0-.7.78,5,5,0,0,0-.5.18,3.61,3.61,0,0,1-.74.23.92.92,0,0,1-.27,0l-.05-.37c-.46-.32-.64-.42-.83-.55l-1.06-.42c-1.7-.6-1.7-.6-5-.6a22.69,22.69,0,0,0-4.61.42c-1.19.18-2,.27-2.25.37a2.37,2.37,0,0,1-.64.09l-.92.27c-.46.05-.55.1-.6.42l.18,11.91c-.18.33-.18.33-.18.42v.18a8.16,8.16,0,0,1,.09,1,3.67,3.67,0,0,1-.55,2.26c-.32.83-.46,1-.92,1s-.51,0-1.06-1.1c-.18-.32-.32-.64-.51-.92s-.13-.37-.27-.74-.32-1.56-.32-1.74a2.73,2.73,0,0,1,.18-.6l.09-.28a2.64,2.64,0,0,1,.32-.37l.19-.41a7.45,7.45,0,0,1,.37-1.06l.09-8.19Zm-8.83-8.18a8.12,8.12,0,0,0,1.65,1.1,8.2,8.2,0,0,0,2.26-1.1,25.77,25.77,0,0,1,2.44-1.48,2.36,2.36,0,0,1-.42,1c0,.09-.5.69-1.29,1.66a7.17,7.17,0,0,0-1.19,2,12,12,0,0,1-.51,1.52c0,.09-.14.27-.37.5a2.75,2.75,0,0,1-.55-.27l-.32-.32-1.06-.28a2.72,2.72,0,0,1-.92-.51,9.43,9.43,0,0,0-.78-.59,1.48,1.48,0,0,1-.83-1.43c0-.41,0-.41.51-1.38a4.55,4.55,0,0,0,.41-1h.09l.05-.19c.18.14.32.28.41.33Z"/><path class="cls-1" d="M358.4,38.87l-.36-.23c-2-1.47-2-1.47-2.86-2.94-.46-.83-.46-.83-.46-1.38a2,2,0,0,1,.46-1.29c-.13-1-.13-1.29-.22-2,0-.51-.1-1.34-.1-2.58v-2.3l0-1.93.09-1.75v-1.7l.23-2.95v-.09c0-.09-.05-.32-.09-.55a12.22,12.22,0,0,0-.51-1.47l-.05-.83a2,2,0,0,1,.47,0c1.56,0,3,1.71,3,3.55v.73l-.05.55c0,.14-.28,1.38-.69,3.18-.19.78-.78,5.29-.74,5.66l.19,2.3a5.77,5.77,0,0,0,.69,3.13h.18a5.35,5.35,0,0,0,1.34-1.25c0-.13.18-.36.36-.78l.83-1.75.41-1.1a5.26,5.26,0,0,1,.42-.74c.05.83.09,1.25.09,2a15.75,15.75,0,0,1-.87,5.52,7.55,7.55,0,0,1-1.34,3.08ZM355.64,4.42l.6-.23a4.64,4.64,0,0,1,1.24-.46c1.29,0,4,2.76,4,4.09,0,.41-.18.55-.73.65l-2.35,1-1,.46a2.48,2.48,0,0,1-.46,0V9.52c0-.09,0-.64.13-1.56V7.64a12.69,12.69,0,0,0-.5-1.84l-.88-1.29Zm11.74,22a5.5,5.5,0,0,0-1.57,1.33c-.37-.09-.64-.14-.73-.18-.37-.23-.74-.42-1.15-.65-2.4-1.15-2.4-1.15-2.4-1.65s0-.42,1.25-1.94c.18.14.36.23.41.28a2,2,0,0,0,.51.37l.41.18.32.14.51-.14,1-.18.23-.14,8-2.76,1.38-.28c.23-.32.32-.46.32-.69V19l.09-2.44-.09-.69v-.14l-.14-.23a15.2,15.2,0,0,0-3.45,1.11c-.32.14-.73.27-1.84.69l-1.7.92q-2,1-2.07,1c-.37,0-.37,0-2.07-1.1-.23-.14-.28-.23-.28-.32,0-.28,0-.28.79-1.06a2,2,0,0,0,.36-.46l.83-1.43c2.12-3.63,2.81-5.19,2.81-6.58a2.2,2.2,0,0,0-.6-1.61s0,0-.32-.18l-.55-.37a2,2,0,0,0,.36-.46c.51-.64.6-.73.92-.73,1.43,0,4.28,2.43,4.28,3.63,0,.19-.09.32-.5.65l-.37.36c-.14.23-.28.46-.42.65s-.46.64-.73,1c0,0-.23.51-.55,1.2-.05.14-.37.83-.92,1.84a4.35,4.35,0,0,0-.46.83c3.31-1.15,5.47-1.93,5.52-1.89.73-.09,1-.23,1.15-.55,0-.14,0-.14.23-4,0-.09,0-1.75-.05-2V5.7c0-1.15,0-1.19-.41-1.61l-.42-.27-.83-.55-.36-.33c1.15-1.19,1.47-1.38,2.07-1.38a3.17,3.17,0,0,1,.92.19c1.65.46,3.49,1.61,3.49,2.16,0,.09,0,.09-1,1.7a26,26,0,0,0-.74,5.8c0,.09.05.14.14.28.28,0,.46,0,.5,0l.7-.18c.45-.1,1-.19,1.47-.33a3.51,3.51,0,0,0,1-.36c.14-.79.33-1,.83-1a3.32,3.32,0,0,1,2.26.74c1,.78,1.19,1,1.19,1.33s0,.37-1.79.78l-3.13,1L380.4,14c-.51.13-.83.23-.93.27s-.27.05-.5.28L378.83,20a.51.51,0,0,0,.51.23,30.31,30.31,0,0,0,3.59-.42l1.7-.32,2.21-.18c.92-.33.92-.33,1-.33a11.67,11.67,0,0,1,3.63,1.11,1.58,1.58,0,0,1,.92,1.33,1.59,1.59,0,0,1-.32.83l-.92.05a2.72,2.72,0,0,1-.55-.14l-.65-.19a19.14,19.14,0,0,0-4-.32,24.19,24.19,0,0,0-4.7.51l-.78.09a1.08,1.08,0,0,1-.32.05h-.05l-.13-.05c-.14.14-.19.14-.56.18-.09,0-.55.1-1.19.23s-1.52.33-2.3.51l-.88.23c-3.91,1.06-4.74,1.33-6.39,2.3Zm6.11,4.41a.63.63,0,0,0-.27,0c-.46-.05-.83,1-.83,2.25a15.69,15.69,0,0,0,1,5.11.83.83,0,0,1,.05.37,2.49,2.49,0,0,1-.55,1.74,3.53,3.53,0,0,1-2.17-2.07,24,24,0,0,1-1.56-6.34,6.57,6.57,0,0,1,.51-2.26,8.19,8.19,0,0,0,.41-1.42c.46.13.51.18.6.55a9,9,0,0,0,.92,2.3l.32-.05a3.71,3.71,0,0,0,.32-.41,3.64,3.64,0,0,1,.51-.65,7,7,0,0,0,.73-.41l.79-.64a5.89,5.89,0,0,1,1.47-.56c.23,0,1.47-.5,3.27-1.19a9.3,9.3,0,0,1,1.15-.37l.64-.09c1.2-.37,1.2-.37,1.38-.37a4.12,4.12,0,0,1,3.08,1.93,2.37,2.37,0,0,1-.23.69,4.64,4.64,0,0,1-.6.51L381.59,33l-.64.55-.28.33-1,1L378.6,36l-.37.32c0,.33,0,.37.28.51a3.73,3.73,0,0,1,.55-.09,10.93,10.93,0,0,0,2-.37l1.51-.6a1.58,1.58,0,0,1,.42-.09c.18,0,.55.18,1.65.87.83.46,1.06.79,1.06,1.25a1.05,1.05,0,0,1-1.06,1l-3.26-.09a37.85,37.85,0,0,1-3.91.51,1.42,1.42,0,0,1-1.29-.56c-.69-.69-.92-1.1-.92-1.61s0-.46,1.19-1.7l1.39-1.61A11.75,11.75,0,0,0,381,28.89l-.78.19a9.24,9.24,0,0,0-1,.73c-.42.28-.83.6-1.25.92a6.9,6.9,0,0,1-2.25.88c-.23,0-.23,0-1.2-.37l-.78-.19Z"/><path class="cls-1" d="M427,27.88c-.27-.23-.6-.41-.87-.6a1.41,1.41,0,0,0-.46-.27c-.05-.05-.14-.05-.28-.05-1.38,2.9-2.39,4.14-4.23,5.43-2.21,1.88-2.62,2.16-4.92,2.94-1.84.78-1.89.78-3.18.78a6.52,6.52,0,0,1-3.08-.5,1.76,1.76,0,0,0-.6-.28,2.57,2.57,0,0,1,.74-.27l1.47-.14a3.52,3.52,0,0,0,1.15-.32l1-.46c.59-.28,1.19-.51,1.84-.79A16.53,16.53,0,0,0,419.45,31c1.65-1.06,2.53-2.11,4-5-.41-1-1.43-1.38-3.36-1.52a4.06,4.06,0,0,1-2-1.1c-.23-.28-.37-.46-.42-.51l-.27-.13c-.05,0-.23-.14-.42-.33a5.34,5.34,0,0,1,2-.36,5.88,5.88,0,0,1,3.64,1c.78.69,1,.78,1.15.78.5,0,.64-.41.87-3.45,0-.55.09-.92.09-1a.72.72,0,0,0,.05-.27c0-.14-.05-.23-.23-.42a.74.74,0,0,1-.32.14c-.65.28-1.29.51-1.89.78a1.92,1.92,0,0,1-.6.1c-.41,0-.6-.1-1-.51a3.8,3.8,0,0,1-.65-.46,2.45,2.45,0,0,1-.36-.37,1.34,1.34,0,0,0,.87-.23c.14,0,1.57-.6,3.77-1.38a3.61,3.61,0,0,0,.51-.18l.09.09c.32-.41.32-.41.42-2.44l.09-2.71a2.15,2.15,0,0,0-.05-.46,1.26,1.26,0,0,0-.41-.23,3.43,3.43,0,0,0-1.47.5,11.76,11.76,0,0,1-4.19,1.38,2.26,2.26,0,0,1-1.24-.5.93.93,0,0,0-.42-.23h-.09a11.22,11.22,0,0,0-.18,2.07,12.82,12.82,0,0,0,.14,2c0,.32,0,.32.78,1.61a1.32,1.32,0,0,1,.18.73.94.94,0,0,1-.92,1c-.6,0-.69-.05-1.93-1.52l-.51-.55-1-1.7c-1-1.43-1-1.43-1-1.84,0-.14,0-.14.05-1.15.23-.56.41-1.11.6-1.66a4.66,4.66,0,0,0,.09-.6l.37.28a5.32,5.32,0,0,1,.73,1.19c.23.56.47,1.11.69,1.71.05,0,.19.23.42.5.18-.18.18-.23.28-.64.41-2,1-2.9,1.7-2.76a1.6,1.6,0,0,0,.69-.14c.55-.23,1.15-.46,1.75-.74L422,9.29l1.47-.5a13.27,13.27,0,0,0,1.84-.32c.23-.19.28-.42.28-2a11,11,0,0,0-.19-3.17,3.92,3.92,0,0,1-.5-.92l-1.61-.69a3.4,3.4,0,0,0,.27-.46c.37-.74.42-.83.69-.92A5.31,5.31,0,0,1,426,0c1.42,0,3.54,1.33,3.54,2.25,0,.19,0,.19-.69,1a1.36,1.36,0,0,0-.32.59c-.1.51-.42,3.22-.42,3.5a2.58,2.58,0,0,0,.05.51,2.69,2.69,0,0,0,.83,0c.73-.14,1.47-.28,2.25-.41a7,7,0,0,1,1-.1c.18,0,1.24.05,3.17.19h.51l1.24.18.55.09.09-.13c.51.27.65.32,1.06.55,1.43.64,2,1.24,2,2,0,.6,0,.6-2.35,1.61l-.83.46-1,.51-1.15.74c-1.38.82-1.89,1.28-1.89,1.65s0,.23.69.42a1,1,0,0,1,.6.87.55.55,0,0,1-.09.32c-.05.05-.32.23-.92.65a13.87,13.87,0,0,0-1.84-.1,15.4,15.4,0,0,0-4.79.83L426.07,25l.37.14L433.62,30l1.7,1.34.37.27,1.52,1.15a31.16,31.16,0,0,0,3.12,1.06c4.47,1.93,4.56,2,5.06,2.94a8.49,8.49,0,0,1-3,.42c-1.47.09-1.93.09-2.12.09a6.18,6.18,0,0,1-3.27-1,1,1,0,0,0-.41-.32,4.4,4.4,0,0,1-1.06-.74l-.69-.69-6-5.24-.09-.14c-.23-.14-.37-.23-.41-.32ZM427.54,16a5.44,5.44,0,0,1,.6-.09,18,18,0,0,0,2.76-.6l.23-.18.19-.37c.46-.55.92-1.15,1.47-1.75.78-.92,1.56-1.89,2.39-2.81a5.31,5.31,0,0,1,.74-.73V9.34a9.72,9.72,0,0,0-2.76-.41,8,8,0,0,0-1.84.41,19.3,19.3,0,0,1-2.12.32c-1.29.23-1.38.42-1.47,2.95l-.14,1.28.05.83-.1.78Z"/><path class="cls-1" d="M8.62,12.77a33.65,33.65,0,0,1-2.57,4.85V33.84H4.25V20.18A26.43,26.43,0,0,1,1,23.71,11.94,11.94,0,0,0,0,22a26.76,26.76,0,0,0,6.94-9.74ZM15,20.88c.82,6.36,2.38,10.66,4.95,10.9.69,0,1.08-1.37,1.32-4.13a7.15,7.15,0,0,0,1.49.93c-.53,4.11-1.49,5.36-2.74,5.28-3.94-.28-5.86-5.25-6.77-12.74l-5.76.72L7.2,20.16,13,19.44c-.19-2.23-.36-4.61-.46-7.11h1.78c.07,2.43.21,4.76.46,6.87L22,18.29,22.2,20Zm5.4-3.6a26.13,26.13,0,0,0-3.86-3.94l1.3-.86a26.06,26.06,0,0,1,4,3.84Z"/><path class="cls-1" d="M47.57,24.55A42.7,42.7,0,0,1,42.48,28a13,13,0,0,0,6.46,4.22,5.73,5.73,0,0,0-1.15,1.56c-5.12-1.73-8.19-5.59-9.87-11a21.52,21.52,0,0,1-3.55,2.8V31c1.89-.46,3.93-1,5.93-1.47l.19,1.59c-3.77,1-7.85,2-10.71,2.73l-.57-1.63c1-.21,2.11-.48,3.36-.79V26.66a30.79,30.79,0,0,1-4.83,2.12,11,11,0,0,0-1.15-1.47,26.42,26.42,0,0,0,9.1-4.65H27.38V21.1h9.48V18.94H29.35V17.45h7.51V15.5H28.27V13.94h8.59V12h1.78v2h8.74V15.5H38.64v1.95h7.82v1.49H38.64V21.1h9.55v1.56H39.6a16,16,0,0,0,2,4.2,35.69,35.69,0,0,0,4.53-3.41Z"/><path class="cls-1" d="M63.38,15.12v18.7H61.66V29.47c-3,.51-6.1,1-8.38,1.35L53,29c.67-.08,1.46-.17,2.32-.29V15.12H53.42V13.46H65.06v1.66Zm-1.72,0H57v3.19h4.68Zm0,4.78H57v3.33h4.68ZM57,28.49c1.46-.19,3.07-.43,4.68-.67v-3H57Zm17.54-13a29.13,29.13,0,0,1-3.89,12.17,13.32,13.32,0,0,0,5,4.47A7.18,7.18,0,0,0,74.3,33.6a15,15,0,0,1-4.77-4.34,17.17,17.17,0,0,1-4.9,4.27,6.59,6.59,0,0,0-1.17-1.44,14.74,14.74,0,0,0,5-4.44A33.23,33.23,0,0,1,64.92,17.4l1.7-.31a31.12,31.12,0,0,0,3,8.88,26.35,26.35,0,0,0,3-9H64.46V15.24H73l.34-.07Z"/><path class="cls-1" d="M82.27,25.82a21.61,21.61,0,0,1-1.63,6.08,6.53,6.53,0,0,0-1.3-.63,18.68,18.68,0,0,0,1.47-5.71Zm4-6.24a20.39,20.39,0,0,1,2,5l-1.37.58a9.73,9.73,0,0,0-.41-1.52l-1.78.1v10.1H83.18v-10l-3.64.24-.15-1.61,1.75-.07c.46-.6.94-1.28,1.42-2a21.1,21.1,0,0,0-3-3.5l1-1.11c.24.22.5.48.74.72A34.66,34.66,0,0,0,83.38,12l1.53.58a49.17,49.17,0,0,1-2.69,4.95A16.54,16.54,0,0,1,83.47,19c.94-1.49,1.8-3.05,2.43-4.32l1.46.64a72.76,72.76,0,0,1-4.61,7L86,22.15c-.29-.72-.63-1.44-1-2.09Zm.43,5.91a17.79,17.79,0,0,1,1.2,4.34l-1.35.39a16.06,16.06,0,0,0-1.1-4.35Zm14.66-6.79v4.1H99.67V20.21h-10V22.8H88.08V18.7h3.41a16.34,16.34,0,0,0-1-3l.2-.05H88.25V14.16h5.5V12h1.77v2.21h5.57v1.53H99c-.44,1.06-.92,2.14-1.37,3Zm-1.24,10.94c0,.77-.15,1.25-.7,1.54a6.71,6.71,0,0,1-2.52.26,4.62,4.62,0,0,0-.53-1.51c.89,0,1.61,0,1.87,0s.29-.07.29-.31V24.74H95.45v9.1H93.82v-9.1H91v6.77h-1.6V23.23h4.44V21h1.63v2.25h4.66Zm-7.9-13.95a15,15,0,0,1,1,3h2.74a25.5,25.5,0,0,0,1.2-3Z"/><path class="cls-1" d="M113.64,17.28a27,27,0,0,1-2.38,3.34V33.84h-1.72V22.54a30,30,0,0,1-2.86,2.56,12.18,12.18,0,0,0-1.06-1.63A22.5,22.5,0,0,0,112,16.68Zm-.72-4.63a22.65,22.65,0,0,1-6,5.85,10.16,10.16,0,0,0-.94-1.44A18.91,18.91,0,0,0,111.24,12Zm13.32,10.27a15.52,15.52,0,0,1-4.61,6.79,17.34,17.34,0,0,0,6.6,2.62,7.87,7.87,0,0,0-1.15,1.56,17.47,17.47,0,0,1-6.89-3.07,22,22,0,0,1-6.65,3.09,7.37,7.37,0,0,0-1-1.51,19.57,19.57,0,0,0,6.26-2.76,15.75,15.75,0,0,1-3.48-5.18l1.28-.39H113.9V22.44h10.81l.36-.07Zm-8.64-7.23A7.12,7.12,0,0,1,114.5,22a6.66,6.66,0,0,0-1.41-1.08,5.72,5.72,0,0,0,2.81-5.26V12.89h8.16v5.64c0,.48,0,.74.14.84a.79.79,0,0,0,.43.09h.87a1.8,1.8,0,0,0,.57-.07.73.73,0,0,0,.29-.53,14,14,0,0,0,.12-1.94,4.22,4.22,0,0,0,1.37.7,11.93,11.93,0,0,1-.26,2.32,1.3,1.3,0,0,1-.75.8,3.56,3.56,0,0,1-1.25.24h-1.34a2.47,2.47,0,0,1-1.46-.44c-.39-.31-.51-.72-.51-2.08v-4H117.6ZM117,24.07a12.55,12.55,0,0,0,3.24,4.54,14.42,14.42,0,0,0,3.6-4.54Z"/><path class="cls-1" d="M141.36,27c-.62-.7-1.94-2-3-3.05v9.93h-1.76V24.58a23.67,23.67,0,0,1-3.67,3,8.69,8.69,0,0,0-.93-1.61,20.85,20.85,0,0,0,7.51-7.87h-6.67V16.44h3.76V12h1.76v4.47h2.08l.32-.07,1,.67a22,22,0,0,1-3.09,5.23c1.1.89,3.21,2.74,3.81,3.27Zm13.23,4.46v1.75H141.14V31.44h6.08v-10h-5.14V19.75h5.14V12.14H149v7.61h5.12v1.73H149v10Z"/><path class="cls-1" d="M179.4,26.16a36.72,36.72,0,0,1-5.4,3.26,16.27,16.27,0,0,0,6.84,3,5.43,5.43,0,0,0-1.1,1.56c-5.5-1.28-9.15-4.28-11.16-9h-3.41v6.34l6.29-1.06.07,1.59c-3.82.67-7.92,1.37-10.78,1.85l-.46-1.64,3.05-.45V25h-4.2v-1.6h4.2V12.91h14.79v1.51h-13v2h12.24v1.46H165.17v2h12.24v1.47H165.17v2h15.29V25H170.4a12.09,12.09,0,0,0,2.47,3.46,37.29,37.29,0,0,0,5.07-3.24Z"/></g></g></svg>