<?xml version="1.0" encoding="utf-8"?>
<!-- Generator: Adobe Illustrator 25.2.3, SVG Export Plug-In . SVG Version: 6.00 Build 0)  -->
<svg version="1.1" id="レイヤー_1" xmlns="http://www.w3.org/2000/svg" xmlns:xlink="http://www.w3.org/1999/xlink" x="0px"
	 y="0px" viewBox="0 0 767 620" style="enable-background:new 0 0 767 620;" xml:space="preserve">
<style type="text/css">
	.st0{clip-path:url(#SVGID_2_);}
	.st1{clip-path:url(#SVGID_4_);}
	.st2{clip-path:url(#SVGID_6_);}
	.st3{fill:#F2F1ED;}
	.st4{clip-path:url(#SVGID_8_);}
	.st5{opacity:0.3;}
	.st6{clip-path:url(#SVGID_10_);}
	.st7{fill:#8DC21F;}
	.st8{clip-path:url(#SVGID_12_);}
	.st9{clip-path:url(#SVGID_14_);}
	.st10{fill:#2CA6E0;}
	.st11{fill:none;stroke:#3E3A39;stroke-width:2.06;stroke-miterlimit:10;}
	.st12{fill:none;stroke:#3E3A39;stroke-width:6.17;stroke-miterlimit:10;stroke-dasharray:2.06,6.17;}
	.st13{fill:none;stroke:#F29600;stroke-width:2.06;stroke-miterlimit:10;}
	.st14{fill:none;stroke:#F7B52C;stroke-width:2.06;stroke-miterlimit:10;}
	.st15{fill:#94B2DD;}
	.st16{fill:none;stroke:#231815;stroke-width:4.11;stroke-miterlimit:10;}
	.st17{fill:none;stroke:#FFFFFF;stroke-width:2.06;stroke-miterlimit:10;stroke-dasharray:10.28,10.28;}
	.st18{fill:none;stroke:#FFFFFF;stroke-width:2.06;stroke-miterlimit:10;}
	.st19{fill:none;stroke:#FFFFFF;stroke-width:2.06;stroke-miterlimit:10;stroke-dasharray:10.44,10.44;}
	.st20{fill:#FFFFFF;}
	.st21{fill:none;stroke:#231815;stroke-width:1.57;stroke-miterlimit:10;}
	.st22{fill:none;stroke:#231815;stroke-width:1.5754;stroke-miterlimit:10.0344;}
	.st23{fill:none;stroke:#231815;stroke-width:1.21;stroke-miterlimit:10;}
	.st24{fill:#1E1E1E;}
	.st25{font-family:'NotoSansCJKjp-Regular-90ms-RKSJ-H';}
	.st26{font-size:11.08px;}
	.st27{fill:#ADABA5;}
	.st28{font-family:'NotoSansCJKjp-Bold-90ms-RKSJ-H';}
	.st29{font-size:13.3px;}
	.st30{font-size:17.73px;}
	.st31{font-size:25.49px;}
	.st32{fill:#F29600;}
	.st33{fill:#6885AA;}
	.st34{font-size:19.95px;}
	.st35{fill:url(#SVGID_15_);}
</style>
<g id="レイヤー_2_1_">
	<g id="コンテンツ">
		<g>
			<defs>
				<rect id="SVGID_1_" x="0" width="767" height="620"/>
			</defs>
			<clipPath id="SVGID_2_">
				<use xlink:href="#SVGID_1_"  style="overflow:visible;"/>
			</clipPath>
			<g class="st0">
				<g>
					<defs>
						<rect id="SVGID_3_" x="-46.1" y="-49.6" width="814.4" height="677"/>
					</defs>
					<clipPath id="SVGID_4_">
						<use xlink:href="#SVGID_3_"  style="overflow:visible;"/>
					</clipPath>
					<g class="st1">
						<g>
							<defs>
								<rect id="SVGID_5_" x="-46.1" y="-49.6" width="814.4" height="677"/>
							</defs>
							<clipPath id="SVGID_6_">
								<use xlink:href="#SVGID_5_"  style="overflow:visible;"/>
							</clipPath>
							<g class="st2">
								<rect x="-46.1" y="-49" class="st3" width="814.4" height="676.4"/>
								<g>
									<defs>
										<rect id="SVGID_7_" x="-46.1" y="-49.6" width="814.4" height="677"/>
									</defs>
									<clipPath id="SVGID_8_">
										<use xlink:href="#SVGID_7_"  style="overflow:visible;"/>
									</clipPath>
									<g class="st4">
										<g class="st5">
											<g>
												<defs>
													<rect id="SVGID_9_" x="170.9" y="26.6" width="186.4" height="308.6"/>
												</defs>
												<clipPath id="SVGID_10_">
													<use xlink:href="#SVGID_9_"  style="overflow:visible;"/>
												</clipPath>
												<g class="st6">
													<path class="st7" d="M345.7,205c-24.9,84.2-81.5,141.6-126.6,128.3s-61.5-92.3-36.6-176.5S264,15.2,309,28.5
														S370.5,120.8,345.7,205"/>
												</g>
											</g>
										</g>
										<g class="st5">
											<g>
												<defs>
													<rect id="SVGID_11_" x="136.4" y="311.9" width="171.7" height="193.9"/>
												</defs>
												<clipPath id="SVGID_12_">
													<use xlink:href="#SVGID_11_"  style="overflow:visible;"/>
												</clipPath>
												<g class="st8">
													<path class="st7" d="M136.7,403.4c3.4-53.4,44.5-94.3,91.8-91.4s82.9,48.8,79.5,102.2s-44.5,94.4-91.8,91.4
														S133.3,456.9,136.7,403.4"/>
												</g>
											</g>
										</g>
										<g class="st5">
											<g>
												<defs>
													<rect id="SVGID_13_" x="257.6" y="351.1" width="213.8" height="281.6"/>
												</defs>
												<clipPath id="SVGID_14_">
													<use xlink:href="#SVGID_13_"  style="overflow:visible;"/>
												</clipPath>
												<g class="st9">
													<path class="st10" d="M258,485.2c4.9-77.7,56.5-137.6,115.4-133.9S476,421,471.1,498.6s-56.5,137.6-115.4,133.9
														S253.1,562.9,258,485.2"/>
												</g>
											</g>
										</g>
										<path class="st11" d="M117.4,267.9c0-4.3,1.7-11.1,3-20.1s1.7-9.9-7.7-18c-9.4-8.1-13.3,0-25.3-0.9s-12-6-21.4-14.6
											c-9.4-8.6-3-10.7,0-20.1c3-9.4,0-8.1-3.4-27.4c-3.4-19.3,0.4-8.1,0-21.9s16.2-14.5,19.7-15.4c11-2.9,10.4-19.8,2.9-24.9"
											/>
										<path class="st12" d="M117.4,267.9c0-4.3,1.7-11.1,3-20.1s1.7-9.9-7.7-18c-9.4-8.1-13.3,0-25.3-0.9s-12-6-21.4-14.6
											c-9.4-8.6-3-10.7,0-20.1c3-9.4,0-8.1-3.4-27.4c-3.4-19.3,0.4-8.1,0-21.9s16.2-14.5,19.7-15.4c11-2.9,10.4-19.8,2.9-24.9"
											/>
										<path class="st13" d="M771.1,256.2c0,0-49.2,8.1-69.2,11.2s-15.6,18.7-39.2,24.9s-24.9-16.8-48-0.6s-30.5,20.6-34.3,38.6
											s-8.1,18.1-15.6,20.6s-29.3-9.3-29.3-9.3s-36.1,2.5-50.5,24.3s-77.3,77.9-87.2,85.4s-87.9,9.4-96.6,5.6
											s-15.6-44.9-26.8-50.5s-24.3-21.2-46.1-2.5s-39.3,44.2-48,51.7s-51.1,31.8-60.4,34.3s-86.7-0.7-97.9,0.6"/>
										<path class="st13" d="M768,574c0,0-43,0-124.6-17.5s-61.1-56.1-97.9-63.5s-71-10-84.8-10s-24.8-16.6-25.2-35.5
											c-0.2-9.1-12.2-16.5-12.2-16.5"/>
										<path class="st13" d="M38.3,627.6c0,0,13.1-43.6,51.1-31.2s24.3,28.7,53,17.5s79.1-34.9,89.1-33s55.5,10,61.7-15.6
											s-4.4-41.8,8.7-54.2s49.9-18.1,56.7-34.9s10.6-19.9,10.6-19.9"/>
										<path class="st13" d="M283.1,140.3c0,0-17.5,9.4-29.3,10.6s-16.8-3.7-27.4,8.7s-22.4,6.9-20.6,22.4s-2.5,20.6-5.6,24.9
											s-11.8,10.6-9.4,16.2s18.7,13.7,18.7,13.7s-13.1,15.6-15.6,28s10,1.9,11.8,7.5s-1.2,18.7-2.5,32.4"/>
										<path class="st14" d="M238.3-47.3c0,0,11.2,49.2,4.4,56.1s-10,9.3-21.2,28.7s-19.3,21.2-23.1,38.6s0,2.5-12.5,38.6
											s-4.4,44.2-17.4,77.9s-22.4,48.6-22.4,48.6s-38.6,35.5-44.2,42.4c-2.4,2.9-5.1,5.5-8,7.8c-1.2,1-2.5,1.9-3.8,2.8
											c0,0-64.1,13.5-84.2,16"/>
										<path class="st14" d="M211.5,49.9c0,0,0.6-2.5,0.6-9.3s-16.8-1.2-26.2,5s-25.6-6.9-38-10.6s1.9-5.6,3.1-10
											s-3.7-8.7-11.2-5.6s-7.5,3.1-18.1,16.2c-10.6,13.1-6.2,1.9-13.1,7.5S90.6,19.4,90.6,19.4S84.6,0,87.1-14.4"/>
										<path class="st14" d="M245.2,5.3c0,0,3.1,12.2,13.7,18.4s17.4-3.1,17.4,6.2s0.6,14.3,3.1,21.8S276.9,78,291.2,78
											s19.3,5,34.3,6.2s31.8,12.4,31.8,12.4l8.7,8.1l44.9,20.6c0,0,38.6,65.4,43.6,59.2s26.8-43.6,26.8-49.8
											s13.7-16.8,15.6-15.6s31.2,15.6,29.9,21.2s32.4-62.3,38.6-54.2s-0.6,3.1,10.6,18.7s16.8,18.1,34.9,26.8s22.4,0,33.7,12.5
											s34.3,36.8,43.6,48.6s11.2,37.4,10.6,53.6s5,28,7.5,31.8s23,21.8,26.2,31.1s15.6,11.2,15.6,11.2l22.4-17.5"/>
										<path class="st14" d="M751.1,122.8c0,0-72.3,59.8-92.8,67.9s-43,15.6-58.6,24.3s-31.8,23.7-31.8,23.7s11.2,13.7-5,36.8
											s-40.5,24.9-48,35.5s-16.2,21.2-16.2,21.2"/>
										<path class="st14" d="M767.3,425.7c-5.6-1.2-79.8-48-105.9-62.9s-33.7-28.7-47.4-29.3s-36.1-13.7-58.6-13.7
											s-44.9,2.5-49.2,4.4"/>
										<path class="st14" d="M413.4,627.6c0,0,5-23.1-9.3-24.3s-13.7,1.9-21.8-10.6c-4.9-7.4-12.5-12.6-21.2-14.3
											c0,0-19.9,16.8-19.9,2.5s6.9-1.2,5-23.7s-5-8.1-7.5-33s-1.9-20.6-6.2-39.2s-8.1-34.9-8.1-34.9s-21.2-59.2-46.1-62.3
											s-39.9-8.1-46.7-5s-36.1,30.5-45.5,30.5s-23-6.1-23-6.1"/>
										<path class="st14" d="M361,102.3c0,0-9.4,16.8-21.2,36.2s-19.9,30.5-24.3,39.9s-9.4,18.1-21.8,35.5
											c-7.5,10.6-14,21.8-19.3,33.7c0,0-2.5,11.2-28.7,23.1s-13.7,57.3-15,62.9s-23.1,23-25,51.9s-9.9,27.3-19.8,37.2
											s-11.2,9.4-15.6,13.1s-37.4-4.4-41.8-6.2s-13.1-13.1-21.2-16.2S45.7,397,45.7,397l-29.1-4.9"/>
										<path class="st14" d="M334.2-47.9c0,0-13.7,34.3-14.3,56.7s13.1,53.6,6.9,68.5s-9.4,29.3-16.8,48.6
											c-5.9,15.7-10.1,32-12.5,48.6c-1.2,9.4-6.9,31.2-6.9,36.8s8.7,6.9,6.9,9.4s-18.1,26.2-18.1,26.2s-11.2,23.7-15,34.3
											s-15,36.1-15,36.1l-3.7,33.6c0,0,26.2,24.3,29.3,30.5c1.6,3.3,3.4,6.4,5.6,9.3"/>
										<path class="st15" d="M358.7-50.5c0,0-7.4,24.7-3.6,33.6s22.5,37.2,25.8,44.3s8.4,2.5-1.5,18.1S367.7,49.3,370,71
											s21.2,28.7,7.1,44.7s-4.7,17.4-28.2,36.7s-21.6,20.2-35.3,43.8s-25.9,49.8-34.4,62.5s-13.2,40-18.4,57
											s-19.8,23.5-4.7,41.4c15.1,17.9,8.5,7.5,22.6,16s28.2,6.1,30.1,14.6s-7.1,18.8,6.1,30.1s16.9,25.4,16.5,35.3
											s4.2,17.4,4.7-9.9s-12.7-17.9,0.5-38.6s12.2-2.4,15.5-24.5s5.2-8.5-1.4-42.4s-26.8-31.5-6.1-49.9s15.5-8,29.6-27.3
											s23.1-10.8,19.3-33.4s-6.5-15.5-6.5-15.5s2.8,18.3,12.2,10.3s19.8,15.5,9.9-12.7s-20.7-18.3-16.5-37.6
											s10.5-70.4,14.6-72.9c16.2-10.2,26.4,8.9,31.1,9.4s10.4,16.9,20.2,1.9s12.7-4.2,12.2-21.2s4.7-33,17.9-28.7
											s9.4,11.8,19.8,13.2S529.6,87,536.1,70s3.6-18.9,17.9-17.9c43.5,3.2,11.3,24.5,46.6,10.4s52.2-14.1,34.8-30.1
											s-16-24.5-5.2-51.3s17.9-27.3,17.9-31.1S358.7-50.5,358.7-50.5"/>
										<path class="st16" d="M454,316.7c0,0,15.3,14.9,33.2,13.5s69.2-9.9,99.8,5.2s132.7,89.9,132.7,89.9l49.9,35.3"/>
										<path class="st17" d="M454,316.7c0,0,15.3,14.9,33.2,13.5s69.2-9.9,99.8,5.2s132.7,89.9,132.7,89.9l49.9,35.3"/>
										<path class="st11" d="M266.2,228.4c0,0-6,27.9-16.3,40.3s-14.1,55.7-12.9,70.7s15.9,18.4,33.9,39s37.7,29.6,39.9,41.1
											s7.7,10.3,11.1,16.7"/>
										<path class="st12" d="M266.2,228.4c0,0-6,27.9-16.3,40.3s-14.1,55.7-12.9,70.7s15.9,18.4,33.9,39s37.7,29.6,39.9,41.1
											s7.7,10.3,11.1,16.7"/>
										<path class="st11" d="M256.7,228.1c0,0-8.6,9.4-15,10.7s-18.4-2.1-34.7,0.9s-18,6.4-34.3,3.9s-20.1-8.6-32.1,0
											s-7.7-16.7-18.9,12.8s-7.7,28.7-13.3,39s-9,5.6-18.4,15.9c-9.4,10.3-9.4-5.6-10.3,15.4s-7.3,82.3-6.4,97.7"/>
										<path class="st12" d="M256.7,228.1c0,0-8.6,9.4-15,10.7s-18.4-2.1-34.7,0.9s-18,6.4-34.3,3.9s-20.1-8.6-32.1,0
											s-7.7-16.7-18.9,12.8s-7.7,28.7-13.3,39s-9,5.6-18.4,15.9c-9.4,10.3-9.4-5.6-10.3,15.4s-7.3,82.3-6.4,97.7"/>
										<path class="st11" d="M144.9,629.8c0,0-37.5-73.3-17.7-85.6s40.6-136,40.6-136s-29.3-6.2-37.2-10.3s-17.4-28-17.4-28
											l-92.9-43.3l-23.4-19.2"/>
										<path class="st12" d="M144.9,629.8c0,0-37.5-73.3-17.7-85.6s40.6-136,40.6-136s-29.3-6.2-37.2-10.3s-17.4-28-17.4-28
											l-92.9-43.3l-23.4-19.2"/>
										<path class="st14" d="M502.2,329c0,0-36.4,4.7-44.5,12.5c-4.1,4-10.6,9.4-17,15.3c-6.2,5.7-12.3,11.8-16.3,17.3
											c-8.1,11.3-54.9,61.5-76.2,64s-29.1-0.7-29.1-0.7"/>
										<path class="st14" d="M361,467.9c0,0,48-56.8,56.2-67.1s17.6-38.9,17.6-38.9"/>
										<path class="st16" d="M773.4,103.7c0,0-120.6,56.7-155.2,83.4s-171.4,194.3-178,202.7s-58.7,60.6-72.4,66.5
											s-243.8-18.2-284.2-31.9L0.8,409.7"/>
										<path class="st17" d="M773.4,103.7c0,0-120.6,56.7-155.2,83.4s-171.4,194.3-178,202.7s-58.7,60.6-72.4,66.5
											s-243.8-18.2-284.2-31.9L0.8,409.7"/>
										<path class="st16" d="M785.6,46C771,58.2,482.8,283.2,463.7,304.9c-3.3,3.7-6.4,7.5-9.5,11.3
											c-27.6,34.7-45.9,73.3-54.5,82.8c-12.7,14.1-41.9,46.6-80.5,37.6s-26.1-35.7-48-44.2c-16.9-6.6-71.5,0-71.5,0"/>
										<path class="st17" d="M773.5,55.6c-57.5,45.6-292.6,229.8-309.9,249.2c-3.3,3.7-6.4,7.5-9.5,11.3
											c-27.6,34.7-45.9,73.3-54.5,82.8c-12.7,14.1-41.9,46.6-80.5,37.6s-26.1-35.7-48-44.2c-12.3-4.8-44.7-2.6-61.3-1.1"/>
										<path class="st18" d="M204.8,391.8c-3.2,0.3-5.1,0.6-5.1,0.6"/>
										<path class="st16" d="M352.1-55.6c0,0-10.4,35.3-5.1,44.2s23,36.7,19.7,53.7S325.3,159,302.2,179.2s-19.8,74.8-33.9,86.6
											s-20.2,38.1-20.7,51.3s-30.6,50.4-41.9,68.2s-97.2,33.6-109.5,41.6"/>
										<path class="st19" d="M348.4-40.5C346-29.8,344-16.4,347-11.4c5.1,8.9,23,36.7,19.7,53.7s-41.4,116.8-64.5,137
											s-19.8,74.8-33.9,86.6s-20.2,38.1-20.7,51.3s-30.6,50.4-41.9,68.2c-9.7,15.3-73.8,29-99.9,37.6"/>
										<path class="st18" d="M101,424.7c-1.6,0.6-3.2,1.3-4.6,2.2"/>
										
											<rect x="362.1" y="419.1" transform="matrix(0.7655 -0.6435 0.6435 0.7655 -186.1288 338.0915)" class="st20" width="17.4" height="10.6"/>
										
											<rect x="362.1" y="419.1" transform="matrix(0.7655 -0.6435 0.6435 0.7655 -186.1288 338.0915)" class="st21" width="17.4" height="10.6"/>
										
											<rect x="430.7" y="331.6" transform="matrix(0.5548 -0.832 0.832 0.5548 -84.662 515.5532)" class="st20" width="17.4" height="10.6"/>
										
											<rect x="430.7" y="331.6" transform="matrix(0.5548 -0.832 0.832 0.5548 -84.662 515.5532)" class="st21" width="17.4" height="10.6"/>
										
											<rect x="401.4" y="378.6" transform="matrix(0.4983 -0.867 0.867 0.4983 -127.1262 548.2021)" class="st20" width="17.4" height="10.6"/>
										
											<rect x="401.4" y="378.6" transform="matrix(0.4983 -0.867 0.867 0.4983 -127.1262 548.2021)" class="st22" width="17.4" height="10.6"/>
										
											<rect x="347.7" y="69.2" transform="matrix(0.333 -0.9429 0.9429 0.333 167.4732 385.7956)" class="st20" width="17.4" height="10.6"/>
										
											<rect x="347.7" y="69.2" transform="matrix(0.333 -0.9429 0.9429 0.333 167.4732 385.7956)" class="st21" width="17.4" height="10.6"/>
										
											<rect x="331.4" y="110.5" transform="matrix(0.4399 -0.898 0.898 0.4399 86.4652 370.232)" class="st20" width="17.4" height="10.6"/>
										
											<rect x="331.4" y="110.5" transform="matrix(0.4399 -0.898 0.898 0.4399 86.4652 370.232)" class="st21" width="17.4" height="10.6"/>
										
											<rect x="301.4" y="161.4" transform="matrix(0.4538 -0.8911 0.8911 0.4538 20.7645 367.3247)" class="st20" width="17.4" height="10.6"/>
										
											<rect x="301.4" y="161.4" transform="matrix(0.4538 -0.8911 0.8911 0.4538 20.7645 367.3247)" class="st21" width="17.4" height="10.6"/>
										
											<rect x="228.9" y="331.9" transform="matrix(0.4453 -0.8954 0.8954 0.4453 -170.1093 399.7396)" class="st20" width="17.4" height="10.6"/>
										
											<rect x="228.9" y="331.9" transform="matrix(0.4453 -0.8954 0.8954 0.4453 -170.1093 399.7396)" class="st21" width="17.4" height="10.6"/>
										
											<rect x="271.7" y="225.5" transform="matrix(0.2934 -0.956 0.956 0.2934 -22.4909 431.0807)" class="st20" width="17.4" height="10.6"/>
										
											<rect x="271.7" y="225.5" transform="matrix(0.2934 -0.956 0.956 0.2934 -22.4909 431.0807)" class="st21" width="17.4" height="10.6"/>
										
											<rect x="308.6" y="425.7" transform="matrix(0.4226 -0.9063 0.9063 0.4226 -212.4087 535.3071)" class="st20" width="10.6" height="17.4"/>
										
											<rect x="308.6" y="425.7" transform="matrix(0.4226 -0.9063 0.9063 0.4226 -212.4087 535.3071)" class="st21" width="10.6" height="17.4"/>
										<rect x="221.3" y="384.2" class="st20" width="17.4" height="10.6"/>
										<rect x="221.3" y="384.2" class="st21" width="17.4" height="10.6"/>
										<path class="st20" d="M244.3,304.1c0,3.1-2.5,5.6-5.6,5.6s-5.6-2.5-5.6-5.6c0-3.1,2.5-5.6,5.6-5.6
											C241.8,298.4,244.3,300.9,244.3,304.1C244.3,304.1,244.3,304.1,244.3,304.1"/>
										<circle class="st23" cx="238.7" cy="304.1" r="5.6"/>
										<path class="st20" d="M268.9,369.8c0,3.1-2.5,5.6-5.6,5.6s-5.6-2.5-5.6-5.6c0-3.1,2.5-5.6,5.6-5.6
											C266.4,364.1,268.9,366.6,268.9,369.8"/>
										<path class="st23" d="M268.9,369.8c0,3.1-2.5,5.6-5.6,5.6s-5.6-2.5-5.6-5.6c0-3.1,2.5-5.6,5.6-5.6
											C266.4,364.1,268.9,366.6,268.9,369.8z"/>
										<path class="st20" d="M258.1,263.8c0,3.1-2.5,5.6-5.6,5.6s-5.6-2.5-5.6-5.6c0-3.1,2.5-5.6,5.6-5.6
											S258.1,260.7,258.1,263.8L258.1,263.8"/>
										<path class="st23" d="M258.1,263.8c0,3.1-2.5,5.6-5.6,5.6s-5.6-2.5-5.6-5.6c0-3.1,2.5-5.6,5.6-5.6
											S258.1,260.7,258.1,263.8L258.1,263.8z"/>
										
											<rect x="247" y="276.8" transform="matrix(0.2932 -0.956 0.956 0.2932 -89.0261 443.8253)" class="st20" width="17.4" height="10.6"/>
										
											<rect x="247" y="276.8" transform="matrix(0.2932 -0.956 0.956 0.2932 -89.0261 443.8253)" class="st21" width="17.4" height="10.6"/>
									</g>
								</g>
								<text transform="matrix(1 0 0 1 324.03 72.2)" class="st24 st25 st26">小野</text>
								<text transform="matrix(1 0 0 1 306.28 115.47)" class="st24 st25 st26">堅田</text>
								<text transform="matrix(1 0 0 1 282.25 445.73)" class="st24 st25 st26">石山</text>
								<text transform="matrix(1 0 0 1 339.41 418.12)" class="st24 st25 st26">瀬田</text>
								<text transform="matrix(1 0 0 1 408.41 334.05)" class="st24 st25 st26">草津</text>
								<text transform="matrix(1 0 0 1 366.34 383.51)" class="st24 st25 st26">南草津</text>
								<text transform="matrix(1 0 0 1 244.44 168.58)" class="st24 st25 st26">おごと温泉</text>
								<text transform="matrix(1 0 0 1 199.2 322.56)" class="st24 st25 st26">南滋賀</text>
								<text transform="matrix(1 0 0 1 220.16 265.37)" class="st24 st25 st26">穴太</text>
								<text transform="matrix(1 0 0 1 106.69 323.08)" class="st27 st28 st29">大文字山</text>
								<rect x="137.3" y="271" class="st20" width="84.7" height="33.2"/>
								<path class="st7" d="M220.8,303.1h-82.4v-31h82.4V303.1z M223,269.9h-86.8v35.5H223V269.9z"/>
								<text transform="matrix(1 0 0 1 153.11 293.88)" class="st7 st28 st30">中央店</text>
								<text transform="matrix(1 0 0 1 219.73 220.44)" class="st24 st25 st26">比叡山坂本</text>
								<text transform="matrix(0.697 -0.717 0.717 0.697 550.77 294.8498)" class="st24 st25 st26">東海道新幹線</text>
								<text transform="matrix(0.3899 -0.9208 0.9208 0.3899 306.89 222.1297)" class="st24 st25 st26">湖西線</text>
								<text transform="matrix(0.7592 -0.6509 0.6509 0.7592 502.0999 258.6699)" class="st24 st25 st26">東海道本線</text>
								<text transform="matrix(1 0 0 1 218.28 410.65)" class="st24 st25 st26">大津</text>
								<text transform="matrix(1 0 0 1 268.37 363.74)" class="st24 st25 st26">浜大津</text>
								<text transform="matrix(1 0 0 1 265.12 294.46)" class="st24 st25 st26">唐崎</text>
								<text transform="matrix(1 0 0 1 414.43 47.61)" class="st20 st28 st31">琵琶湖</text>
								<text transform="matrix(1 0 0 1 142.74 205.91)" class="st27 st28 st29">比叡山</text>
								<text transform="matrix(0.7654 -0.6436 0.6436 0.7654 479.41 413.76)" class="st32 st25 st26">名神高速道路</text>
								<text transform="matrix(0.9164 0.4003 -0.4003 0.9164 519.5999 470.4999)" class="st32 st25 st26">新名神高速道路</text>
								<text transform="matrix(0.9997 2.373425e-02 -2.373425e-02 0.9997 302.47 257.24)" class="st33 st28 st34">大津市</text>
								<text transform="matrix(1 0 0 1 397.21 293.71)" class="st27 st28 st34">草津市</text>
								<text transform="matrix(1 0 0 1 512.85 183.14)" class="st27 st28 st34">野洲市</text>
								<rect x="353.1" y="443.5" class="st20" width="84.7" height="33.2"/>
								<path class="st10" d="M436.7,475.6h-82.4v-31h82.4V475.6z M438.9,442.4H352v35.5h86.9V442.4z"/>
								<text transform="matrix(1 0 0 1 368.96 466.41)" class="st10 st28 st30">瀬田店</text>
							</g>
						</g>
					</g>
				</g>
			</g>
		</g>
		
			<linearGradient id="SVGID_15_" gradientUnits="userSpaceOnUse" x1="337.44" y1="146.1198" x2="337.44" y2="42.9499" gradientTransform="matrix(1 0 0 -1 46.06 633.6698)">
			<stop  offset="0" style="stop-color:#F2F1ED;stop-opacity:0"/>
			<stop  offset="1" style="stop-color:#F2F1ED"/>
		</linearGradient>
		<rect y="470" class="st35" width="767" height="150"/>
	</g>
</g>
</svg>
