<?xml version="1.0" encoding="utf-8"?>
<!-- Generator: Adobe Illustrator 25.2.3, SVG Export Plug-In . SVG Version: 6.00 Build 0)  -->
<svg version="1.1" id="レイヤー_1" xmlns="http://www.w3.org/2000/svg" xmlns:xlink="http://www.w3.org/1999/xlink" x="0px"
	 y="0px" viewBox="0 0 880 700" style="enable-background:new 0 0 880 700;" xml:space="preserve">
<style type="text/css">
	.st0{clip-path:url(#SVGID_2_);}
	.st1{clip-path:url(#SVGID_4_);}
	.st2{clip-path:url(#SVGID_6_);}
	.st3{fill:#F2F1ED;}
	.st4{clip-path:url(#SVGID_8_);}
	.st5{opacity:0.3;}
	.st6{clip-path:url(#SVGID_10_);}
	.st7{fill:#8DC21F;}
	.st8{clip-path:url(#SVGID_12_);}
	.st9{clip-path:url(#SVGID_14_);}
	.st10{fill:#2CA6E0;}
	.st11{fill:none;stroke:#3E3A39;stroke-width:2.36;stroke-miterlimit:10;}
	.st12{fill:none;stroke:#3E3A39;stroke-width:7.08;stroke-miterlimit:10;stroke-dasharray:2.36,7.08;}
	.st13{fill:none;stroke:#F29600;stroke-width:2.36;stroke-miterlimit:10;}
	.st14{fill:none;stroke:#F7B52C;stroke-width:2.36;stroke-miterlimit:10;}
	.st15{fill:#94B2DD;}
	.st16{fill:none;stroke:#231815;stroke-width:4.72;stroke-miterlimit:10;}
	.st17{fill:none;stroke:#FFFFFF;stroke-width:2.36;stroke-miterlimit:10;stroke-dasharray:11.8,11.8;}
	.st18{fill:none;stroke:#FFFFFF;stroke-width:2.36;stroke-miterlimit:10;}
	.st19{fill:none;stroke:#FFFFFF;stroke-width:2.36;stroke-miterlimit:10;stroke-dasharray:11.98,11.98;}
	.st20{fill:#FFFFFF;}
	.st21{fill:none;stroke:#231815;stroke-width:1.8;stroke-miterlimit:10;}
	.st22{fill:none;stroke:#231815;stroke-width:1.39;stroke-miterlimit:10;}
	.st23{fill:#1E1E1E;}
	.st24{font-family:'NotoSansCJKjp-Regular-90ms-RKSJ-H';}
	.st25{font-size:12.71px;}
	.st26{fill:#ADABA5;}
	.st27{font-family:'NotoSansCJKjp-Bold-90ms-RKSJ-H';}
	.st28{font-size:15.26px;}
	.st29{font-size:20.34px;}
	.st30{font-size:12.7106px;}
	.st31{font-size:29.24px;}
	.st32{fill:#F29600;}
	.st33{fill:#6885AA;}
	.st34{font-size:22.88px;}
	.st35{fill:url(#SVGID_15_);}
	.st36{fill:url(#SVGID_16_);}
</style>
<g id="レイヤー_2_1_">
	<g id="contents">
		<g>
			<defs>
				<rect id="SVGID_1_" width="880" height="700"/>
			</defs>
			<clipPath id="SVGID_2_">
				<use xlink:href="#SVGID_1_"  style="overflow:visible;"/>
			</clipPath>
			<g class="st0">
				<g>
					<defs>
						<rect id="SVGID_3_" x="-52.8" y="-56.9" width="934.4" height="776.8"/>
					</defs>
					<clipPath id="SVGID_4_">
						<use xlink:href="#SVGID_3_"  style="overflow:visible;"/>
					</clipPath>
					<g class="st1">
						<g>
							<defs>
								<rect id="SVGID_5_" x="-52.8" y="-56.9" width="934.4" height="776.8"/>
							</defs>
							<clipPath id="SVGID_6_">
								<use xlink:href="#SVGID_5_"  style="overflow:visible;"/>
							</clipPath>
							<g class="st2">
								<rect x="-52.8" y="-56.2" class="st3" width="934.4" height="776.1"/>
								<g>
									<defs>
										<rect id="SVGID_7_" x="-52.8" y="-56.9" width="934.4" height="776.8"/>
									</defs>
									<clipPath id="SVGID_8_">
										<use xlink:href="#SVGID_7_"  style="overflow:visible;"/>
									</clipPath>
									<g class="st4">
										<g class="st5">
											<g>
												<defs>
													<rect id="SVGID_9_" x="196" y="30.5" width="213.9" height="354.1"/>
												</defs>
												<clipPath id="SVGID_10_">
													<use xlink:href="#SVGID_9_"  style="overflow:visible;"/>
												</clipPath>
												<g class="st6">
													<path class="st7" d="M396.6,235.2c-28.5,96.6-93.6,162.5-145.2,147.2s-70.5-105.9-42-202.5S302.9,17.4,354.6,32.7
														S425.1,138.6,396.6,235.2"/>
												</g>
											</g>
										</g>
										<g class="st5">
											<g>
												<defs>
													<rect id="SVGID_11_" x="156.6" y="357.9" width="197" height="222.4"/>
												</defs>
												<clipPath id="SVGID_12_">
													<use xlink:href="#SVGID_11_"  style="overflow:visible;"/>
												</clipPath>
												<g class="st8">
													<path class="st7" d="M156.8,462.9c3.9-61.3,51-108.2,105.3-104.8s95.1,56,91.2,117.2s-51,108.2-105.3,104.8
														S152.9,524.2,156.8,462.9"/>
												</g>
											</g>
										</g>
										<g class="st5">
											<g>
												<defs>
													<rect id="SVGID_13_" x="295.6" y="402.9" width="245.3" height="323.1"/>
												</defs>
												<clipPath id="SVGID_14_">
													<use xlink:href="#SVGID_13_"  style="overflow:visible;"/>
												</clipPath>
												<g class="st9">
													<path class="st10" d="M296,556.7c5.6-89.1,64.9-157.9,132.4-153.7S546.1,483,540.5,572.1S475.6,730,408.1,725.8
														S290.4,645.8,296,556.7"/>
												</g>
											</g>
										</g>
										<path class="st11" d="M134.7,307.4c0-4.9,2-12.8,3.4-23.1s2-11.3-8.9-20.6s-15.2,0-29-1s-13.8-6.9-24.6-16.7
											s-3.4-12.3,0-23.1s0-9.3-3.9-31.5s0.5-9.3,0-25.1s18.6-16.6,22.6-17.7c12.7-3.4,12-22.8,3.3-28.5"/>
										<path class="st12" d="M134.7,307.4c0-4.9,2-12.8,3.4-23.1s2-11.3-8.9-20.6s-15.2,0-29-1s-13.8-6.9-24.6-16.7
											s-3.4-12.3,0-23.1s0-9.3-3.9-31.5s0.5-9.3,0-25.1s18.6-16.6,22.6-17.7c12.7-3.4,12-22.8,3.3-28.5"/>
										<path class="st13" d="M884.7,293.9c0,0-56.5,9.3-79.4,12.9s-17.9,21.5-45,28.6s-28.6-19.3-55-0.7s-35,23.6-39.3,44.3
											s-9.3,20.7-17.9,23.6s-33.6-10.7-33.6-10.7s-41.5,2.9-58,27.9s-88.6,89.4-100.1,98s-100.8,10.7-110.8,6.4
											s-17.9-51.5-30.8-57.9s-27.9-24.3-52.9-2.9s-45,50.8-55,59.3s-58.7,36.5-69.4,39.3s-99.5-0.8-112.4,0.6"/>
										<path class="st13" d="M881.1,658.5c0,0-49.3,0-143-20s-70.1-64.4-112.2-72.9s-81.5-11.4-97.2-11.4s-28.5-19-28.9-40.8
											c-0.2-10.4-14-19-14-19"/>
										<path class="st13" d="M43.9,720c0,0,15-50,58.6-35.7s27.9,32.9,60.8,20s90.8-40,102.2-37.9s63.6,11.4,70.8-17.9
											s-5-47.9,10-62.2s57.2-20.7,65.1-40s12.1-22.9,12.1-22.9"/>
										<path class="st13" d="M324.9,160.9c0,0-20,10.7-33.6,12.1s-19.3-4.3-31.5,10s-25.7,7.9-23.6,25.7s-2.9,23.6-6.4,28.6
											s-13.6,12.2-10.7,18.6s21.4,15.7,21.4,15.7s-15,17.9-17.9,32.2s11.4,2.1,13.6,8.6s-1.4,21.5-2.9,37.2"/>
										<path class="st14" d="M273.4-54.2c0,0,12.9,56.5,5,64.3S267,20.8,254.1,43s-22.2,24.3-26.4,44.3s0,2.9-14.3,44.3
											s-5,50.8-20,89.4s-25.7,55.8-25.7,55.8s-44.3,40.8-50.8,48.6c-2.7,3.3-5.8,6.3-9.1,9c-1.4,1.2-2.9,2.2-4.5,3.2
											c0,0-73.6,15.5-96.6,18.4"/>
										<path class="st14" d="M242.6,57.3c0,0,0.7-2.9,0.7-10.7s-19.3-1.4-30,5.7s-29.4-7.9-43.6-12.2s2.1-6.4,3.6-11.4
											s-4.3-10-12.9-6.4s-8.6,3.6-20.7,18.6s-7.1,2.2-15,8.6S104,22.2,104,22.2S97,0,99.9-16.5"/>
										<path class="st14" d="M281.3,6.1c0,0,3.5,14,15.7,21.1s20-3.6,20,7.2s0.7,16.4,3.6,25s-2.9,30,13.6,30s22.2,5.7,39.3,7.2
											s36.5,14.3,36.5,14.3l10,9.3l51.5,23.6c0,0,44.3,75.1,50,67.9s30.7-50,30.7-57.2s15.7-19.3,17.9-17.9s35.7,17.9,34.3,24.3
											s37.2-71.5,44.3-62.2s-0.7,3.6,12.2,21.4s19.3,20.7,40,30.7s25.7,0,38.6,14.3s39.3,42.2,50,55.8s12.9,42.9,12.2,61.5
											s5.7,32.2,8.6,36.5s26.5,25,30,35.8s17.9,12.9,17.9,12.9l25.7-20"/>
										<path class="st14" d="M861.8,140.9c0,0-82.9,68.6-106.5,77.9s-49.3,17.9-67.2,27.9s-36.5,27.2-36.5,27.2
											s12.9,15.7-5.7,42.2s-46.5,28.6-55,40.8s-18.6,24.3-18.6,24.3"/>
										<path class="st14" d="M880.4,488.4c-6.4-1.4-91.5-55-121.5-72.2s-38.6-32.9-54.3-33.6s-41.5-15.7-67.2-15.7
											s-51.5,2.9-56.5,5"/>
										<path class="st14" d="M474.3,720c0,0,5.7-26.5-10.7-27.9s-15.7,2.2-25-12.2c-5.6-8.5-14.3-14.4-24.3-16.5
											c0,0-22.9,19.3-22.9,2.9s7.9-1.4,5.7-27.2s-5.7-9.3-8.6-37.9s-2.1-23.6-7.1-45s-9.3-40-9.3-40s-24.3-67.9-52.9-71.5
											s-45.8-9.3-53.6-5.7s-41.5,35-52.2,35s-26.4-7-26.4-7"/>
										<path class="st14" d="M414.2,117.3c0,0-10.7,19.3-24.3,41.5s-22.9,35-27.9,45.8s-10.7,20.7-25,40.8
											c-8.6,12.1-16.1,25-22.2,38.6c0,0-2.8,12.9-32.8,26.4s-15.7,65.8-17.2,72.2s-26.5,26.4-28.8,59.5s-11.3,31.3-22.8,42.7
											s-12.9,10.7-17.9,15s-42.9-5-47.9-7.1s-15-15-24.3-18.6s-70.8-18.6-70.8-18.6l-33.4-5.6"/>
										<path class="st14" d="M383.5-55c0,0-15.7,39.3-16.5,65.1s15,61.5,7.9,78.6s-10.7,33.6-19.3,55.8
											c-6.8,18-11.6,36.7-14.3,55.8c-1.4,10.7-7.9,35.8-7.9,42.2s10,7.9,7.9,10.7s-20.7,30-20.7,30s-12.9,27.2-17.1,39.3
											S286.3,364,286.3,364l-4.3,38.6c0,0,30,27.9,33.6,35c1.8,3.8,3.9,7.4,6.4,10.8"/>
										<path class="st15" d="M411.6-57.9c0,0-8.5,28.3-4.2,38.6s25.9,42.7,29.7,50.8s9.6,2.9-1.7,20.8s-13.5,4.3-10.8,29.2
											s24.3,32.9,8.1,51.3s-5.4,20-32.4,42.1S375.4,198,359.7,225s-29.7,57.2-39.4,71.8s-15.1,45.9-21.1,65.3s-22.7,27-5.4,47.5
											s9.7,8.6,25.9,18.4s32.4,7,34.6,16.7s-8.1,21.6,7,34.6s19.4,29.2,18.9,40.5c-0.5,11.3,4.9,20,5.4-11.3
											s-14.6-20.5,0.5-44.3s14-2.7,17.8-28.1s5.9-9.7-1.6-48.6s-30.8-36.2-7-57.2s17.8-9.2,34-31.3s26.5-12.4,22.1-38.3
											s-7.5-17.8-7.5-17.8s3.2,21.1,14,11.9s22.7,17.8,11.3-14.6s-23.8-21.1-18.9-43.2s12-80.7,16.7-83.7
											c18.6-11.8,30.2,10.3,35.6,10.8s11.9,19.4,23.2,2.2s14.6-4.9,14-24.3s5.4-37.8,20.5-32.9s10.8,13.5,22.7,15.1
											s24.3,15.7,31.9-3.8s4.1-21.7,20.5-20.5c50,3.6,13,28.1,53.5,11.9s59.9-16.2,40-34.6s-18.4-28.1-6-58.9
											s20.6-31.3,20.6-35.6S411.6-57.9,411.6-57.9"/>
										<path class="st16" d="M520.9,363.4c0,0,17.6,17.1,38.1,15.5s79.4-11.3,114.5,5.9S825.7,488,825.7,488l57.3,40.5"/>
										<path class="st17" d="M520.9,363.4c0,0,17.6,17.1,38.1,15.5s79.4-11.3,114.5,5.9S825.7,488,825.7,488l57.3,40.5"/>
										<path class="st11" d="M305.5,262c0,0-6.9,32-18.7,46.2s-16.2,63.9-14.8,81.1s18.2,21.1,38.9,44.7s43.3,33.9,45.7,47.2
											s8.9,11.8,12.8,19.2"/>
										<path class="st12" d="M305.5,262c0,0-6.9,32-18.7,46.2s-16.2,63.9-14.8,81.1s18.2,21.1,38.9,44.7s43.3,33.9,45.7,47.2
											s8.9,11.8,12.8,19.2"/>
										<path class="st11" d="M294.5,261.7c0,0-9.8,10.8-17.2,12.3s-21.1-2.5-39.8,1s-20.6,7.4-39.3,4.4s-23.1-9.8-36.9,0
											s-8.9-19.2-21.6,14.8s-8.9,33-15.2,44.8s-10.3,6.4-21.2,18.2s-10.8-6.4-11.8,17.7s-8.4,94.4-7.4,112.1"/>
										<path class="st12" d="M294.5,261.7c0,0-9.8,10.8-17.2,12.3s-21.1-2.5-39.8,1s-20.6,7.4-39.3,4.4s-23.1-9.8-36.9,0
											s-8.9-19.2-21.6,14.8s-8.9,33-15.2,44.8s-10.3,6.4-21.2,18.2s-10.8-6.4-11.8,17.7s-8.4,94.4-7.4,112.1"/>
										<path class="st11" d="M166.2,722.5c0,0-43-84.1-20.3-98.2s46.6-156.1,46.6-156.1s-33.6-7-42.6-11.7s-19.9-32.1-19.9-32.1
											L23.3,374.8l-26.9-22"/>
										<path class="st12" d="M166.2,722.5c0,0-43-84.1-20.3-98.2s46.6-156.1,46.6-156.1s-33.6-7-42.6-11.7s-19.9-32.1-19.9-32.1
											L23.3,374.8l-26.9-22"/>
										<path class="st14" d="M576.2,377.4c0,0-41.8,5.4-51.1,14.4c-4.8,4.6-12.1,10.8-19.4,17.6c-7.1,6.5-14.1,13.5-18.7,19.9
											c-9.4,13-63,70.5-87.5,73.4S366,502,366,502"/>
										<path class="st14" d="M414.1,536.8c0,0,55.1-65.1,64.5-77s20.2-44.6,20.2-44.6"/>
										<path class="st16" d="M887.3,119c0,0-138.4,65.1-178,95.7S512.6,437.6,505.2,447.3s-67.3,69.5-83,76.3
											s-279.7-21-326.1-36.6L0.9,470"/>
										<path class="st17" d="M887.3,119c0,0-138.4,65.1-178,95.7S512.6,437.6,505.2,447.3s-67.3,69.5-83,76.3
											s-279.7-21-326.1-36.6L0.9,470"/>
										<path class="st16" d="M901.3,52.8C884.6,66.8,554,325,532,349.8c-3.8,4.2-7.4,8.6-10.9,13c-31.7,39.9-52.7,84.1-62.5,95
											C444,474,410.5,511.2,366.2,501s-29.9-41-55.1-50.8c-19.4-7.6-82.1,0-82.1,0"/>
										<path class="st17" d="M887.5,63.8c-66,52.3-335.7,263.6-355.5,285.9c-3.8,4.2-7.4,8.6-10.9,13
											c-31.7,39.9-52.7,84.1-62.5,95c-14.5,16.2-48,53.5-92.3,43.2s-29.9-41-55.1-50.8c-14.2-5.5-51.2-3-70.3-1.2"/>
										<path class="st18" d="M234.9,449.6c-3.7,0.4-5.9,0.6-5.9,0.6"/>
										<path class="st16" d="M404-63.8c0,0-11.9,40.5-5.9,50.8s26.5,42.1,22.7,61.6s-47.5,133.9-74,157.1s-22.7,85.9-38.9,99.4
											s-23.2,43.7-23.8,58.9s-35.1,57.7-48.1,78.2s-111.5,38.5-125.6,47.7"/>
										<path class="st19" d="M399.7-46.5c-2.6,12.3-4.9,27.6-1.6,33.4C404-2.8,424.5,29,420.8,48.5s-47.5,133.9-74,157.1
											s-22.7,85.9-38.9,99.4s-23.2,43.7-23.8,58.9s-35.1,57.7-48.1,78.2c-11.1,17.5-84.7,33.2-114.6,43.1"/>
										<path class="st18" d="M115.8,487.3c-1.9,0.7-3.6,1.5-5.3,2.5"/>
										
											<rect x="415.4" y="480.8" transform="matrix(0.7655 -0.6435 0.6435 0.7655 -213.5376 387.9004)" class="st20" width="19.9" height="12.1"/>
										
											<rect x="415.4" y="480.8" transform="matrix(0.7655 -0.6435 0.6435 0.7655 -213.5376 387.9004)" class="st21" width="19.9" height="12.1"/>
										
											<rect x="494.2" y="380.4" transform="matrix(0.5548 -0.832 0.832 0.5548 -97.1292 591.5057)" class="st20" width="19.9" height="12.1"/>
										
											<rect x="494.2" y="380.4" transform="matrix(0.5548 -0.832 0.832 0.5548 -97.1292 591.5057)" class="st21" width="19.9" height="12.1"/>
										
											<rect x="458.8" y="436.3" transform="matrix(0.5 -0.866 0.866 0.5 -148.7142 627.1564)" class="st20" width="19.9" height="12.1"/>
										
											<rect x="458.8" y="436.3" transform="matrix(0.5 -0.866 0.866 0.5 -148.7142 627.1564)" class="st21" width="19.9" height="12.1"/>
										
											<rect x="399" y="79.4" transform="matrix(0.333 -0.9429 0.9429 0.333 192.1616 442.6234)" class="st20" width="19.9" height="12.2"/>
										
											<rect x="399" y="79.4" transform="matrix(0.333 -0.9429 0.9429 0.333 192.1616 442.6234)" class="st21" width="19.9" height="12.2"/>
										
											<rect x="380.2" y="126.8" transform="matrix(0.4399 -0.898 0.898 0.4399 99.2132 424.7612)" class="st20" width="19.9" height="12.2"/>
										
											<rect x="380.2" y="126.8" transform="matrix(0.4399 -0.898 0.898 0.4399 99.2132 424.7612)" class="st21" width="19.9" height="12.2"/>
										
											<rect x="345.7" y="185.2" transform="matrix(0.4538 -0.8911 0.8911 0.4538 23.8428 421.4298)" class="st20" width="19.9" height="12.1"/>
										
											<rect x="345.7" y="185.2" transform="matrix(0.4538 -0.8911 0.8911 0.4538 23.8428 421.4298)" class="st21" width="19.9" height="12.1"/>
										
											<rect x="262.6" y="380.7" transform="matrix(0.4453 -0.8954 0.8954 0.4453 -195.1661 458.6297)" class="st20" width="19.9" height="12.1"/>
										
											<rect x="262.6" y="380.7" transform="matrix(0.4453 -0.8954 0.8954 0.4453 -195.1661 458.6297)" class="st21" width="19.9" height="12.1"/>
										
											<rect x="311.7" y="258.7" transform="matrix(0.2934 -0.956 0.956 0.2934 -25.7963 494.5928)" class="st20" width="19.9" height="12.1"/>
										
											<rect x="311.7" y="258.7" transform="matrix(0.2934 -0.956 0.956 0.2934 -25.7963 494.5928)" class="st21" width="19.9" height="12.1"/>
										
											<rect x="354.1" y="488.4" transform="matrix(0.4226 -0.9063 0.9063 0.4226 -243.6945 614.1799)" class="st20" width="12.1" height="19.9"/>
										
											<rect x="354.1" y="488.4" transform="matrix(0.4226 -0.9063 0.9063 0.4226 -243.6945 614.1799)" class="st21" width="12.1" height="19.9"/>
										<rect x="253.9" y="440.8" class="st20" width="19.9" height="12.1"/>
										<rect x="253.9" y="440.8" class="st21" width="19.9" height="12.1"/>
										<path class="st20" d="M280.3,348.9c0,3.6-2.9,6.5-6.5,6.5c-3.6,0-6.5-2.9-6.5-6.4c0-3.6,2.9-6.5,6.5-6.5c0,0,0,0,0,0
											C277.4,342.4,280.3,345.3,280.3,348.9"/>
										<circle class="st22" cx="273.8" cy="348.9" r="6.5"/>
										<path class="st20" d="M308.5,424.2c0,3.6-2.9,6.5-6.5,6.4s-6.5-2.9-6.4-6.5c0-3.6,2.9-6.5,6.5-6.5
											C305.6,417.8,308.5,420.7,308.5,424.2C308.5,424.2,308.5,424.2,308.5,424.2"/>
										<path class="st22" d="M308.5,424.2c0,3.6-2.9,6.5-6.5,6.4s-6.5-2.9-6.4-6.5c0-3.6,2.9-6.5,6.5-6.5
											C305.6,417.8,308.5,420.7,308.5,424.2C308.5,424.2,308.5,424.2,308.5,424.2z"/>
										<path class="st20" d="M296.1,302.7c0,3.6-2.9,6.5-6.5,6.5c-3.6,0-6.5-2.9-6.5-6.5c0-3.6,2.9-6.5,6.5-6.5c0,0,0,0,0,0
											C293.2,296.2,296.1,299.1,296.1,302.7"/>
										<path class="st22" d="M296.1,302.7c0,3.6-2.9,6.5-6.5,6.5c-3.6,0-6.5-2.9-6.5-6.5c0-3.6,2.9-6.5,6.5-6.5c0,0,0,0,0,0
											C293.2,296.2,296.1,299.1,296.1,302.7z"/>
										
											<rect x="283.4" y="317.6" transform="matrix(0.2932 -0.956 0.956 0.2932 -102.1304 509.2081)" class="st20" width="19.9" height="12.1"/>
										
											<rect x="283.4" y="317.6" transform="matrix(0.2932 -0.956 0.956 0.2932 -102.1304 509.2081)" class="st21" width="19.9" height="12.1"/>
									</g>
								</g>
								<text transform="matrix(1 0 0 1 371.76 82.83)" class="st23 st24 st25">小野</text>
								<text transform="matrix(1 0 0 1 351.4 132.47)" class="st23 st24 st25">堅田</text>
								<text transform="matrix(1 0 0 1 323.82 511.4)" class="st23 st24 st25">石山</text>
								<text transform="matrix(1 0 0 1 389.41 479.72)" class="st23 st24 st25">瀬田</text>
								<text transform="matrix(1 0 0 1 468.57 383.26)" class="st23 st24 st25">草津</text>
								<text transform="matrix(1 0 0 1 420.3 440)" class="st23 st24 st25">南草津</text>
								<text transform="matrix(1 0 0 1 280.45 193.41)" class="st23 st24 st25">おごと温泉</text>
								<text transform="matrix(1 0 0 1 228.54 370.08)" class="st23 st24 st25">南滋賀</text>
								<text transform="matrix(1 0 0 1 252.59 304.45)" class="st23 st24 st25">穴太</text>
								<text transform="matrix(1 0 0 1 122.4 370.67)" class="st26 st27 st28">大文字山</text>
								<rect x="157.5" y="310.9" class="st20" width="97.1" height="38.1"/>
								<path class="st7" d="M253.3,347.8h-94.6v-35.6h94.6V347.8z M255.9,309.6h-99.7v40.7h99.7V309.6z"/>
								<text transform="matrix(1 0 0 1 175.66 337.17)" class="st7 st27 st29">中央店</text>
								<text transform="matrix(1 0 0 1 252.1 252.91)" class="st23 st24 st25">比叡山坂本</text>
								<text transform="matrix(0.697 -0.717 0.717 0.697 631.9102 338.28)" class="st23 st24 st25">東海道新幹線</text>
								<text transform="matrix(0.3899 -0.9208 0.9208 0.3899 352.1 254.8505)" class="st23 st24 st25">湖西線</text>
								<text transform="matrix(0.76 -0.65 0.65 0.76 576.0594 296.7797)" class="st23 st24 st30">東海道本線</text>
								<text transform="matrix(1 0 0 1 250.43 471.15)" class="st23 st24 st25">大津</text>
								<text transform="matrix(1 0 0 1 307.91 417.32)" class="st23 st24 st25">浜大津</text>
								<text transform="matrix(1 0 0 1 304.17 337.84)" class="st23 st24 st25">唐崎</text>
								<text transform="matrix(1 0 0 1 475.48 54.62)" class="st20 st27 st31">琵琶湖</text>
								<text transform="matrix(1 0 0 1 163.76 236.24)" class="st26 st27 st28">比叡山</text>
								<text transform="matrix(0.7654 -0.6436 0.6436 0.7654 550.0299 474.7097)" class="st32 st24 st25">名神高速道路</text>
								<text transform="matrix(0.9164 0.4003 -0.4003 0.9164 596.14 539.8099)" class="st32 st24 st25">新名神高速道路</text>
								<text transform="matrix(0.9997 2.373425e-02 -2.373425e-02 0.9997 347.02 295.13)" class="st33 st27 st34">大津市</text>
								<text transform="matrix(1 0 0 1 455.72 336.98)" class="st26 st27 st34">草津市</text>
								<text transform="matrix(1 0 0 1 588.4 210.11)" class="st26 st27 st34">野洲市</text>
								<rect x="405.1" y="508.9" class="st20" width="97.1" height="38.1"/>
								<path class="st10" d="M501,545.7h-94.6v-35.6H501V545.7z M503.5,507.6h-99.7v40.7h99.7L503.5,507.6z"/>
								<text transform="matrix(1 0 0 1 423.32 535.12)" class="st10 st27 st29">瀬田店</text>
							</g>
						</g>
					</g>
				</g>
			</g>
		</g>
		
			<linearGradient id="SVGID_15_" gradientUnits="userSpaceOnUse" x1="730" y1="310.8698" x2="880" y2="310.8698" gradientTransform="matrix(1 0 0 -1 0 660.8698)">
			<stop  offset="0" style="stop-color:#F2F1ED;stop-opacity:0"/>
			<stop  offset="1" style="stop-color:#F2F1ED"/>
		</linearGradient>
		<rect x="730" class="st35" width="150" height="700"/>
		
			<linearGradient id="SVGID_16_" gradientUnits="userSpaceOnUse" x1="1167.15" y1="375.3798" x2="1317.15" y2="375.3798" gradientTransform="matrix(-1 0 0 -1 1317.15 725.3798)">
			<stop  offset="0" style="stop-color:#F2F1ED;stop-opacity:0"/>
			<stop  offset="1" style="stop-color:#F2F1ED"/>
		</linearGradient>
		<rect x="0" y="0" class="st36" width="150" height="700"/>
	</g>
</g>
</svg>
